<?xml version="1.0" encoding="UTF-8"?>
<svg version="1.1" xmlns="http://www.w3.org/2000/svg" width="512" height="512">
<path d="M0 0 C0.68368652 0.36867188 1.36737305 0.73734375 2.07177734 1.1171875 C14.64186362 7.910246 26.96056656 15.15328286 39.27246094 22.40039062 C41.66724921 23.80485292 44.06954341 25.1947807 46.4765625 26.578125 C71.14435956 40.86092251 83.26164667 59.64337046 93.625 85.375 C94.35573395 87.16448626 95.08750023 88.95355133 95.8203125 90.7421875 C96.53911826 92.5025814 97.2578689 94.26299781 97.9765625 96.0234375 C98.32702133 96.87819672 98.67748016 97.73295593 99.03855896 98.61361694 C100.63347803 102.52780816 102.17791064 106.44105938 103.57055664 110.43212891 C106.77040355 119.53445497 106.77040355 119.53445497 113.9621582 125.56860352 C114.696521 125.91721436 115.43088379 126.2658252 116.1875 126.625 C117.79201274 127.49588842 119.39348023 128.37240592 120.9921875 129.25390625 C121.81557617 129.69492676 122.63896484 130.13594727 123.48730469 130.59033203 C127.76804242 132.99190409 131.7812748 135.76805875 135.8125 138.5625 C137.00903198 139.38814453 137.00903198 139.38814453 138.22973633 140.23046875 C151.73490717 149.61856723 165.1645015 159.71629568 176.59375 171.59375 C178.11076273 173.16971004 178.11076273 173.16971004 180.5 174.9375 C184.81219237 178.49505871 188.36577479 182.86461239 191.7578125 187.296875 C193.4151031 189.39264159 194.95567867 191.27751196 197 193 C200.62563814 193.33380814 200.62563814 193.33380814 204 193 C206.375 194.375 206.375 194.375 208 197 C208.11982587 198.53103029 208.1892945 200.06630256 208.2265625 201.6015625 C208.74992095 207.6635236 211.33409731 211.29514333 215 216 C216.10465005 217.47880571 217.20883974 218.95795545 218.3125 220.4375 C218.80363281 221.07558594 219.29476563 221.71367187 219.80078125 222.37109375 C224.51634036 228.77626687 222.51155933 240.4186071 222 248 C219.7505616 260.53258535 212.01711989 269.53295686 203.1875 278.25 C201.93888184 279.48834595 201.93888184 279.48834595 200.66503906 280.75170898 C192.96025968 288.2614584 184.78968075 294.81658688 176 301 C175.06559082 301.66950684 175.06559082 301.66950684 174.11230469 302.35253906 C152.4846987 317.77785762 127.80996413 328.8166503 102 335 C101.21496094 335.19980469 100.42992187 335.39960938 99.62109375 335.60546875 C76.35659369 339.10727874 56.11143633 331.78654368 37.015625 318.93359375 C34.44014263 317.74068622 33.66175002 318.11026526 31 319 C29.3465266 319.86198147 27.71937718 320.77532199 26.11328125 321.72265625 C25.17419922 322.26083984 24.23511719 322.79902344 23.26757812 323.35351562 C21.31043613 324.48537236 19.3597602 325.6284904 17.41601562 326.78320312 C10.14381404 330.91254458 5.29206317 331.90246643 -2.86328125 330.51171875 C-18.29681602 325.31797739 -28.62431729 310.57826512 -35.6171875 296.57421875 C-36.73910847 293.67433828 -37.44823721 291.16130572 -38.0703125 288.14453125 C-40.07244228 277.7416433 -40.07244228 277.7416433 -46.64453125 269.9140625 C-49.59636555 268.22745136 -52.58867573 266.79515419 -55.70654297 265.44433594 C-60.89053775 263.11789849 -65.72632748 260.36477144 -70.61328125 257.4765625 C-82.19608212 250.75038119 -94.11336933 244.79026582 -106.125 238.875 C-110.21255491 236.85481827 -114.29828011 234.83097297 -118.3828125 232.8046875 C-119.38192657 232.3092897 -120.38104065 231.81389191 -121.41043091 231.30348206 C-128.16389088 227.94362062 -134.852525 224.47776867 -141.51544189 220.94252014 C-151.422244 215.69696502 -161.41192261 210.61343262 -171.42135429 205.56697083 C-174.48348438 204.0229903 -177.54247087 202.47335763 -180.59521484 200.91088867 C-184.1780808 199.07726141 -187.77202167 197.26642551 -191.3671875 195.45703125 C-192.46296112 194.89264847 -193.55873474 194.32826569 -194.68771362 193.7467804 C-195.70713043 193.23842148 -196.72654724 192.73006256 -197.77685547 192.20629883 C-198.66774872 191.75458817 -199.55864197 191.3028775 -200.47653198 190.83747864 C-203.47140246 189.8435528 -205.0144709 190.06868649 -208 191 C-210.13250038 192.11403349 -212.23527841 193.28600702 -214.3125 194.5 C-221.09711016 198.22083913 -225.12313024 199.56277142 -232.875 198.4375 C-247.15002836 194.19130761 -256.83415385 182.46418741 -263.96533203 169.99023438 C-266.13259872 165.82139105 -267.73364999 161.41214504 -269.41333008 157.03051758 C-271.07378862 152.83870403 -272.7955211 149.60875407 -275.8125 146.1875 C-288.09737021 131.41669338 -290.95723856 118.54790317 -290.9375 99.625 C-290.94185059 98.70451874 -290.94620117 97.78403748 -290.95068359 96.83566284 C-290.94926086 94.17233769 -290.90459562 91.51403879 -290.83984375 88.8515625 C-290.83383652 88.04909592 -290.82782928 87.24662933 -290.82164001 86.41984558 C-290.58081454 80.62819912 -289.19689198 78.02625322 -285 74 C-282.67016602 72.33178711 -282.67016602 72.33178711 -280.25390625 71.02734375 C-278.8918103 70.27723022 -278.8918103 70.27723022 -277.50219727 69.51196289 C-276.53209717 68.99239014 -275.56199707 68.47281738 -274.5625 67.9375 C-272.47809739 66.79100436 -270.39478962 65.64251633 -268.3125 64.4921875 C-266.72888672 63.62158691 -266.72888672 63.62158691 -265.11328125 62.73339844 C-260.37759809 60.09668651 -255.71840307 57.33697763 -251.0625 54.5625 C-249.23196422 53.47493485 -247.40123333 52.38769805 -245.5703125 51.30078125 C-244.65540039 50.75760254 -243.74048828 50.21442383 -242.79785156 49.65478516 C-238.02387947 46.83122644 -233.23064168 44.04085306 -228.4375 41.25 C-219.55465839 36.07582441 -210.68011448 30.88771286 -201.8125 25.6875 C-201.20947052 25.33391418 -200.60644104 24.98032837 -199.98513794 24.61602783 C-194.38679383 21.3334137 -188.78891225 18.05001194 -183.19189453 14.76513672 C-182.56212708 14.3955484 -181.93235962 14.02596008 -181.2835083 13.64517212 C-180.01713294 12.90192483 -178.75081589 12.15857819 -177.48455811 11.41513062 C-174.39822512 9.60352646 -171.31044296 7.79449154 -168.21923828 5.99121094 C-162.86537212 2.8663121 -157.52560642 -0.27505474 -152.23828125 -3.51171875 C-151.37412598 -4.03330566 -150.5099707 -4.55489258 -149.61962891 -5.09228516 C-148.06498219 -6.03206457 -146.51814926 -6.98497487 -144.98193359 -7.95458984 C-140.05288323 -10.90828858 -136.75308363 -11.66018993 -131 -11 C-128.26953125 -9.93359375 -128.26953125 -9.93359375 -125.8125 -8.4375 C-124.88179687 -7.89996094 -123.95109375 -7.36242187 -122.9921875 -6.80859375 C-120.90401574 -5.54642205 -118.8266376 -4.26629507 -116.7578125 -2.97265625 C-115.11425781 -1.99619141 -115.11425781 -1.99619141 -113.4375 -1 C-112.44621094 -0.38125 -111.45492187 0.2375 -110.43359375 0.875 C-101.20849044 3.89755945 -89.43831955 -2.19553412 -80.4375 -5 C-51.22273599 -14.08056995 -27.45080586 -14.98138546 0 0 Z " fill="#872E02" transform="translate(290,94)"/>
<path d="M0 0 C0.68368652 0.36867188 1.36737305 0.73734375 2.07177734 1.1171875 C14.64186362 7.910246 26.96056656 15.15328286 39.27246094 22.40039062 C41.66724921 23.80485292 44.06954341 25.1947807 46.4765625 26.578125 C71.22654338 40.90850742 83.30518163 59.74669299 93.6875 85.5625 C94.42666993 87.37738702 95.16689913 89.19184298 95.90820312 91.00585938 C97.32067885 94.46455491 98.72459034 97.92653164 100.12255859 101.39111328 C101.26350739 104.20995767 102.42527895 107.01651069 103.63134766 109.80810547 C104.08944824 110.8704541 104.54754883 111.93280273 105.01953125 113.02734375 C105.40858643 113.910271 105.7976416 114.79319824 106.19848633 115.70288086 C107 118 107 118 107 122 C103.535 123.98 103.535 123.98 100 126 C101.27666818 128.69522933 102.67065529 131.05652606 104.46875 133.43359375 C104.95182617 134.07514404 105.43490234 134.71669434 105.93261719 135.37768555 C106.44985352 136.05742432 106.96708984 136.73716309 107.5 137.4375 C108.04043945 138.15268799 108.58087891 138.86787598 109.13769531 139.60473633 C113.12712387 144.8756426 117.15315786 150.11799258 121.19140625 155.3515625 C130.81575909 167.83740062 140.32622575 180.40935112 149.76953125 193.0324707 C153.2115047 197.62924456 156.67527159 202.20669802 160.1875 206.75 C163.93629172 211.61024254 167.66988687 216.48134823 171.375 221.375 C171.87539795 222.02952148 172.3757959 222.68404297 172.89135742 223.35839844 C175.95393456 227.41837057 178.56499601 231.53390264 181 236 C169.14095157 242.86349914 157.20793215 249.55993131 145.13623047 256.04248047 C136.72392804 260.57260149 128.40879755 265.26355823 120.13330078 270.03881836 C119.22563965 270.55839111 118.31797852 271.07796387 117.3828125 271.61328125 C116.58246582 272.07516846 115.78211914 272.53705566 114.95751953 273.01293945 C113 274 113 274 111 274 C110.93941406 272.83082031 110.87882812 271.66164063 110.81640625 270.45703125 C110.73195966 268.90884386 110.64731375 267.36066732 110.5625 265.8125 C110.52318359 265.04357422 110.48386719 264.27464844 110.44335938 263.48242188 C110.22492966 259.56748925 109.91307892 255.82879312 109 252 C104.00432781 250.73066873 101.56154567 251.24583658 97.0625 253.6875 C96.01964844 254.23792969 94.97679687 254.78835938 93.90234375 255.35546875 C91.58264132 256.66986273 89.36006198 258.0514409 87.125 259.5 C84 261 84 261 81.40112305 260.38476562 C76.97190073 258.58140987 72.72585986 256.49575499 68.45703125 254.34375 C67.07241951 253.65110046 67.07241951 253.65110046 65.65983582 252.94445801 C63.70301926 251.96454139 61.74717348 250.98268412 59.79223633 249.99902344 C56.86957666 248.5287137 53.94388708 247.06459316 51.01757812 245.6015625 C41.23297034 240.69976302 31.5007936 235.71392899 21.83088684 230.58966064 C13.78917955 226.33787645 5.65125097 222.28665092 -2.5 218.25 C-11.76139111 213.66271721 -20.97893684 209.05083055 -30 204 C-28.61752256 200.64084184 -27.33436322 199.27606064 -24.16015625 197.546875 C-23.35876221 197.10110107 -22.55736816 196.65532715 -21.73168945 196.19604492 C-20.85085693 195.7188501 -19.97002441 195.24165527 -19.0625 194.75 C-17.13935888 193.68065929 -15.21754711 192.60892531 -13.296875 191.53515625 C-12.27271484 190.9642627 -11.24855469 190.39336914 -10.19335938 189.80517578 C-4.68019807 186.68863796 0.74971881 183.43319161 6.1875 180.1875 C15.12476228 174.86354897 24.1016001 169.61459333 33.125 164.4375 C42.67115025 158.95803418 52.12874133 153.34712474 61.55102539 147.65771484 C73.26837402 140.60028355 85.12863454 133.79424854 97 127 C96.40079219 121.98968583 94.80121465 117.69682297 92.796875 113.109375 C92.47720764 112.36471985 92.15754028 111.6200647 91.82818604 110.85284424 C91.15210314 109.28156495 90.47281873 107.71165977 89.79052734 106.14306641 C88.76054811 103.77425918 87.74075994 101.40127559 86.72265625 99.02734375 C81.74384784 85.10658451 81.74384784 85.10658451 73.1875 73.8125 C67.75212098 72.42701123 63.45917158 73.29252287 58.51953125 75.6875 C57.27564911 76.44502168 56.04048103 77.21696458 54.8125 78 C53.31849777 78.914052 51.8236376 79.82670252 50.328125 80.73828125 C49.07612305 81.50906006 49.07612305 81.50906006 47.79882812 82.29541016 C42.87891228 85.29182087 37.90067807 88.18953964 32.92773438 91.09674072 C31.04608351 92.1971001 29.1655042 93.29927129 27.28515625 94.40185547 C13.15479089 102.68399872 -1.03600914 110.86156107 -15.24504089 119.00790405 C-17.00604552 120.01794311 -18.76642833 121.02905723 -20.52661133 122.04052734 C-22.7205 123.30086307 -24.9155567 124.55916893 -27.11206055 125.81494141 C-30.08624031 127.52450366 -33.0467855 129.25449142 -36 131 C-37.01980957 131.59941406 -38.03961914 132.19882813 -39.09033203 132.81640625 C-40.07243652 133.41324219 -41.05454102 134.01007813 -42.06640625 134.625 C-42.94369385 135.15351563 -43.82098145 135.68203125 -44.72485352 136.2265625 C-48.14788346 138.89475539 -49.73097334 140.9954264 -50.3196106 145.38148499 C-50.62828997 152.67136955 -48.84263368 158.35009491 -46.02734375 164.99609375 C-45.62544327 165.9920607 -45.22354279 166.98802765 -44.8094635 168.01417542 C-43.53662434 171.16289956 -42.23920813 174.30061262 -40.9375 177.4375 C-39.63508204 180.60037766 -38.33838271 183.7652257 -37.05482483 186.93580627 C-36.25855848 188.90047661 -35.45102427 190.86062613 -34.63108826 192.8155365 C-34.27063919 193.70068436 -33.91019012 194.58583221 -33.53881836 195.49780273 C-33.21682968 196.27292709 -32.894841 197.04805145 -32.56309509 197.84666443 C-31.91083651 200.34097069 -32.00306223 201.63168198 -33 204 C-35.5625 205.25 -35.5625 205.25 -38 206 C-43.28974448 196.19846004 -47.1840998 185.80896381 -51.26245117 175.46582031 C-54.64727364 166.89943444 -58.12590066 158.42836736 -62.21875 150.171875 C-62.53544144 149.52870331 -62.85213287 148.88553162 -63.17842102 148.22286987 C-66.07700371 142.51483476 -69.77797857 137.76978868 -74 133 C-74.79535156 132.01257813 -75.59070313 131.02515625 -76.41015625 130.0078125 C-85.51352679 119.43527055 -98.31857572 113.25195019 -110.36328125 106.66015625 C-116.81709845 103.12621588 -123.16298113 99.42573181 -129.5 95.6875 C-148.48015385 84.19180023 -148.48015385 84.19180023 -169 76 C-169.74507813 75.77699219 -170.49015625 75.55398437 -171.2578125 75.32421875 C-188.46760812 71.03635442 -205.14043708 75.30077559 -221.6328125 80.3046875 C-222.30779785 80.50902908 -222.9827832 80.71337067 -223.67822266 80.92390442 C-227.10184968 81.96238333 -230.52057003 83.01365275 -233.93261719 84.08959961 C-235.18977539 84.47897705 -236.44693359 84.86835449 -237.7421875 85.26953125 C-238.8751123 85.62635986 -240.00803711 85.98318848 -241.17529297 86.35083008 C-244 87 -244 87 -247 86 C-231.27236007 76.68456836 -215.51094928 67.42749092 -199.73779297 58.18945312 C-194.25942013 54.98070463 -188.78247753 51.7695165 -183.30545044 48.55847168 C-180.2870278 46.78887734 -177.26850895 45.01944712 -174.25 43.25 C-173.04166621 42.54166745 -171.83333287 41.83333412 -170.625 41.125 C-168.20833333 39.70833333 -165.79166667 38.29166667 -163.375 36.875 C-162.77699585 36.5244455 -162.1789917 36.17389099 -161.56286621 35.81271362 C-160.3533134 35.10366612 -159.14375936 34.39462072 -157.9342041 33.68557739 C-154.93201879 31.92568784 -151.9298541 30.16576314 -148.92773438 28.40576172 C-143.26790933 25.08772355 -137.6078672 21.77005719 -131.94714355 18.45355225 C-129.27482555 16.88786704 -126.60261845 15.32199261 -123.93041992 13.75610352 C-122.65720065 13.01007786 -121.38392711 12.2641448 -120.1105957 11.51831055 C-118.34442604 10.48379611 -116.5784441 9.44896191 -114.8125 8.4140625 C-113.80832031 7.8257666 -112.80414063 7.2374707 -111.76953125 6.63134766 C-110.05139647 5.61930811 -108.35404834 4.56984435 -106.69433594 3.46459961 C-102.97609954 1.44342345 -99.12796021 0.33993405 -95.078125 -0.84765625 C-93.788992 -1.23370277 -93.788992 -1.23370277 -92.47381592 -1.62754822 C-90.65929499 -2.16942632 -88.843778 -2.70797878 -87.02734375 -3.2434082 C-84.2710869 -4.05628107 -81.51817656 -4.87975598 -78.765625 -5.70507812 C-76.9949796 -6.2324023 -75.22415187 -6.7591147 -73.453125 -7.28515625 C-72.2339035 -7.64928368 -72.2339035 -7.64928368 -70.99005127 -8.02076721 C-45.44569096 -15.52805291 -23.20899818 -12.6664022 0 0 Z " fill="#EC5000" transform="translate(290,94)"/>
<path d="M0 0 C5.97863492 3.38854226 7.7279395 9.32578244 10.25 15.375 C10.72018555 16.47739014 11.19037109 17.57978027 11.67480469 18.71557617 C12.64665806 21.00303106 13.61176619 23.2933628 14.5703125 25.58642578 C15.94429096 28.86698706 17.34425035 32.13529625 18.75 35.40234375 C19.58488363 37.37173934 20.41828829 39.34176276 21.25 41.3125 C21.64477539 42.23015137 22.03955078 43.14780273 22.44628906 44.09326172 C22.79916992 44.94549316 23.15205078 45.79772461 23.515625 46.67578125 C23.82790039 47.41739502 24.14017578 48.15900879 24.46191406 48.9230957 C25.11965083 51.46182831 25.10565062 52.61412234 24 55 C21.95996094 56.5612793 21.95996094 56.5612793 19.234375 58.07421875 C18.2141626 58.65034912 17.1939502 59.22647949 16.14282227 59.82006836 C15.02319092 60.4363208 13.90355957 61.05257324 12.75 61.6875 C11.57586913 62.34683751 10.40262609 63.00775827 9.23022461 63.67016602 C7.38492648 64.71258483 5.53915593 65.75404555 3.69078064 66.79100037 C-2.46029564 70.2429823 -8.54918306 73.79725541 -14.62863159 77.37350464 C-16.451567 78.44577435 -18.2755985 79.51615878 -20.09985352 80.58618164 C-29.42856732 86.06097352 -38.72877116 91.5832201 -48.02685547 97.10986328 C-55.8356264 101.74191289 -63.68849015 106.2924058 -71.5625 110.8125 C-79.27095688 115.24408015 -86.95686968 119.70618617 -94.5625 124.3125 C-95.31281494 124.76278564 -96.06312988 125.21307129 -96.83618164 125.67700195 C-100.51493126 127.74145968 -100.51493126 127.74145968 -103 131 C-102.12214844 131.27368408 -101.24429687 131.54736816 -100.33984375 131.8293457 C-97.22529837 132.92103029 -94.47555638 134.19000942 -91.5625 135.73046875 C-90.51771484 136.27864258 -89.47292969 136.82681641 -88.39648438 137.39160156 C-86.71522461 138.28057129 -86.71522461 138.28057129 -85 139.1875 C-82.57474164 140.46053412 -80.1471495 141.72906313 -77.71875 142.99609375 C-76.77678772 143.48784592 -76.77678772 143.48784592 -75.8157959 143.98953247 C-68.75485551 147.66517481 -61.62879085 151.20832573 -54.5 154.75 C-46.45481209 158.75017302 -38.43080357 162.77593666 -30.5 167 C-28.26008628 168.18313786 -26.01852303 169.36306114 -23.77587891 170.54101562 C-22.27263357 171.33111185 -20.76969783 172.12180386 -19.26849365 172.91577148 C-15.2680279 175.03114199 -11.25656175 177.12333683 -7.23193359 179.19238281 C-5.87907561 179.89223722 -4.52985949 180.59918114 -3.18457031 181.31347656 C-1.29242661 182.31664303 0.61128837 183.29351415 2.51953125 184.265625 C3.62401611 184.84086914 4.72850098 185.41611328 5.86645508 186.00878906 C9.73649664 187.2329705 11.36378498 186.66699705 15 185 C18.09446663 183.27554176 21.08592151 181.42300097 24.09765625 179.55859375 C27.56744363 177.6952759 30.3208219 176.52023483 34.1875 177.625 C36.6959556 179.52796632 37.08582996 180.97006524 38 184 C38.2323416 186.94323296 38.18929086 189.86253858 38.125 192.8125 C38.11597656 193.60076172 38.10695313 194.38902344 38.09765625 195.20117188 C38.07422504 197.13424666 38.03835838 199.0671638 38 201 C50.89026646 194.07805189 63.72182252 187.0702006 76.43994141 179.83642578 C86.55527558 174.0934925 96.76998359 168.5354095 107 163 C104.13467159 157.71384521 100.89081081 153.04083938 97.1875 148.3125 C96.02249174 146.80802355 94.85846936 145.30278328 93.6953125 143.796875 C93.08977539 143.01376953 92.48423828 142.23066406 91.86035156 141.42382812 C88.72089023 137.33346433 85.64511235 133.19576605 82.5625 129.0625 C77.14270111 121.80889786 71.63158006 114.63456149 66.05444336 107.50146484 C61.866688 102.13721437 57.75983903 96.71839946 53.68994141 91.2644043 C49.38906619 85.50498997 45.04398395 79.77994592 40.6875 74.0625 C40.02959473 73.19842529 39.37168945 72.33435059 38.69384766 71.4440918 C37.73744385 70.1897937 37.73744385 70.1897937 36.76171875 68.91015625 C36.14345215 68.09562988 35.52518555 67.28110352 34.88818359 66.44189453 C33.59311838 64.76705069 32.27149654 63.11250663 30.92822266 61.47607422 C30.27772949 60.67830566 29.62723633 59.88053711 28.95703125 59.05859375 C28.36510986 58.34888428 27.77318848 57.6391748 27.16333008 56.90795898 C26.77943115 56.27833252 26.39553223 55.64870605 26 55 C27.11932029 51.64203913 27.59417415 51.22778826 30.54296875 49.53515625 C33.04093338 48.37639827 34.34047485 47.83705477 37.03759766 48.50341797 C39.26216305 49.66938591 41.26215309 50.98658088 43.3125 52.4375 C44.08231201 52.94595459 44.85212402 53.45440918 45.64526367 53.97827148 C48.11801906 55.62286236 50.55770898 57.31058846 53 59 C54.64393297 60.09920163 56.28976084 61.19557474 57.9375 62.2890625 C74.0281076 73.04127999 90.13287948 84.60500221 103.59375 98.59375 C105.11076273 100.16971004 105.11076273 100.16971004 107.5 101.9375 C111.81219237 105.49505871 115.36577479 109.86461239 118.7578125 114.296875 C120.4151031 116.39264159 121.95567867 118.27751196 124 120 C127.62563814 120.33380814 127.62563814 120.33380814 131 120 C133.375 121.375 133.375 121.375 135 124 C135.1197829 125.53364261 135.18928285 127.07151355 135.2265625 128.609375 C135.74786334 134.64968892 138.32012466 138.21156351 142 142.875 C143.10930892 144.32681444 144.21368762 145.78241259 145.3125 147.2421875 C145.80363281 147.8697998 146.29476563 148.49741211 146.80078125 149.14404297 C148.10706642 151.1657001 148.73440419 152.60696096 149 155 C147.54435463 157.54348314 146.0920371 159.69566185 144.3125 162 C143.78865723 162.68771484 143.26481445 163.37542969 142.72509766 164.08398438 C116.10351744 197.91541927 80.56838103 219.39290849 40 232 C39.33194336 232.21317871 38.66388672 232.42635742 37.97558594 232.64599609 C26.45174852 236.28070319 14.6237885 238.60339017 3.28515625 233.23828125 C2.15400391 232.62533203 2.15400391 232.62533203 1 232 C0.27683594 231.62230469 -0.44632812 231.24460937 -1.19140625 230.85546875 C-8.75545385 226.37657831 -14.28130315 219.55035141 -20 213 C-20.60328125 212.3090625 -21.2065625 211.618125 -21.828125 210.90625 C-22.33859375 210.3184375 -22.8490625 209.730625 -23.375 209.125 C-32.13762527 199.04169198 -41.44716594 189.45820487 -50.875 180 C-51.65907227 179.21133545 -52.44314453 178.4226709 -53.25097656 177.61010742 C-58.00523271 172.86844733 -62.88274795 168.34665409 -68 164 C-68.55316895 163.5241748 -69.10633789 163.04834961 -69.67626953 162.55810547 C-79.99354976 153.76514639 -91.17446506 146.57537181 -102.68408203 139.44921875 C-105.49679119 137.68912582 -108.25498459 135.86350463 -111 134 C-108.525 132.02 -108.525 132.02 -106 130 C-106.59110263 126.67649348 -107.40353887 123.69299698 -108.67407227 120.56787109 C-109.01434952 119.72284027 -109.35462677 118.87780945 -109.70521545 118.00717163 C-110.07190842 117.10503937 -110.43860138 116.2029071 -110.81640625 115.2734375 C-111.58877195 113.33498634 -112.36022744 111.39617232 -113.13085938 109.45703125 C-114.3423152 106.41896353 -115.55903548 103.38351439 -116.79174805 100.35400391 C-117.98400808 97.41710757 -119.15187323 94.47141925 -120.31640625 91.5234375 C-120.68512344 90.63345062 -121.05384064 89.74346375 -121.43373108 88.82650757 C-123.99148053 82.27181378 -125.89925661 74.70263872 -123.14974976 67.89474487 C-119.8726008 62.30033552 -113.80724392 59.52118174 -108.3125 56.5 C-106.13930568 55.2695617 -103.9661292 54.03909188 -101.79296875 52.80859375 C-100.67067871 52.18065918 -99.54838867 51.55272461 -98.39208984 50.90576172 C-92.94004916 47.84266761 -87.53593097 44.69743377 -82.125 41.5625 C-79.94309528 40.30401639 -77.7608013 39.04620743 -75.578125 37.7890625 C-74.49337891 37.16418945 -73.40863281 36.53931641 -72.29101562 35.89550781 C-70.09700521 34.63183594 -67.90299479 33.36816406 -65.70898438 32.10449219 C-62.4306894 30.21601508 -59.15273634 28.32694652 -55.875 26.4375 C-54.80838135 25.82277832 -53.7417627 25.20805664 -52.64282227 24.57470703 C-44.1336808 19.66566147 -35.64671431 14.7191355 -27.17724609 9.74194336 C-24.45824727 8.14926353 -21.73152369 6.57109167 -19 5 C-18.01676758 4.42926758 -17.03353516 3.85853516 -16.02050781 3.27050781 C-14.56596191 2.44631348 -14.56596191 2.44631348 -13.08203125 1.60546875 C-12.21167236 1.10813232 -11.34131348 0.6107959 -10.44458008 0.09838867 C-6.41276024 -1.71317204 -4.19939406 -1.30326022 0 0 Z " fill="#E23500" transform="translate(363,167)"/>
<path d="M0 0 C1.21623047 0.74056641 1.21623047 0.74056641 2.45703125 1.49609375 C3.83375 2.30626953 3.83375 2.30626953 5.23828125 3.1328125 C6.73875 4.02419922 6.73875 4.02419922 8.26953125 4.93359375 C10.65342261 6.24777333 13.05466163 7.52858067 15.45703125 8.80859375 C16.56433594 9.40414062 17.67164063 9.9996875 18.8125 10.61328125 C20.02873047 11.26683594 20.02873047 11.26683594 21.26953125 11.93359375 C19.79355411 15.78686834 17.89185187 17.0604762 14.3359375 19.04296875 C13.30855469 19.62433594 12.28117188 20.20570312 11.22265625 20.8046875 C10.10375 21.42472656 8.98484375 22.04476562 7.83203125 22.68359375 C6.05604429 23.68417079 4.2824525 24.6889038 2.50900269 25.69396973 C1.27994326 26.39036087 0.05021611 27.08557477 -1.18014526 27.77966309 C-7.58874861 31.40016295 -13.91004142 35.16130098 -20.23046875 38.93359375 C-29.0653799 44.19272743 -37.9376806 49.37880355 -46.85546875 54.49609375 C-56.40671044 59.97857544 -65.86885773 65.59332824 -75.296875 71.28466797 C-85.20310093 77.25006162 -95.21028221 83.03166242 -105.23828125 88.7890625 C-106.18993164 89.3361084 -107.14158203 89.8831543 -108.12207031 90.44677734 C-109.73730237 91.36747776 -111.35807112 92.27862569 -112.98730469 93.17431641 C-116.4601855 94.92609404 -116.4601855 94.92609404 -118.73046875 97.93359375 C-119.72046875 98.26359375 -120.71046875 98.59359375 -121.73046875 98.93359375 C-114.8396749 104.79696847 -107.52442068 109.87458721 -100.0402832 114.93994141 C-94.36348612 118.7909653 -88.79802494 122.75915881 -83.28759766 126.84350586 C-78.70967527 130.23136422 -74.07845945 133.53536974 -69.41796875 136.80859375 C-63.48977693 140.9731992 -57.59656216 145.1819576 -51.73046875 149.43359375 C-45.92485733 153.64052233 -40.0953445 157.80968297 -34.23046875 161.93359375 C-27.60124163 166.59496124 -21.02318338 171.32303806 -14.4609375 176.078125 C-9.40964667 179.73354963 -4.33094523 183.34717337 0.76953125 186.93359375 C7.39875837 191.59496124 13.97681662 196.32303806 20.5390625 201.078125 C25.59035333 204.73354963 30.66905477 208.34717337 35.76953125 211.93359375 C42.3944339 216.59192047 48.96896062 221.31588944 55.52587891 226.06933594 C60.70260309 229.81687559 65.9138559 233.51183019 71.14453125 237.18359375 C77.95690864 241.96790681 84.65133886 246.8838747 91.26953125 251.93359375 C91.06674561 252.44913818 90.86395996 252.96468262 90.6550293 253.49584961 C88.34312015 259.80820341 87.56387239 265.81662623 87.08203125 272.49609375 C86.95924805 274.00913086 86.95924805 274.00913086 86.83398438 275.55273438 C86.63581108 278.01241468 86.44786865 280.47240953 86.26953125 282.93359375 C78.75515645 279.33717348 71.47050554 275.53889401 64.33203125 271.24609375 C47.05660203 260.92445707 28.8834257 252.17603343 10.86157227 243.24780273 C3.68150077 239.68439982 -3.45190516 236.04932566 -10.53515625 232.296875 C-21.34518506 226.57619623 -32.23111786 221.00645661 -43.15193176 215.50051117 C-46.21402483 213.95654692 -49.27297557 212.40693298 -52.32568359 210.84448242 C-55.90854955 209.01085516 -59.50249042 207.20001926 -63.09765625 205.390625 C-64.19342987 204.82624222 -65.28920349 204.26185944 -66.41818237 203.68037415 C-67.43759918 203.17201523 -68.45701599 202.66365631 -69.50732422 202.13989258 C-70.39821747 201.68818192 -71.28911072 201.23647125 -72.20700073 200.77107239 C-75.20187121 199.77714655 -76.74493965 200.00228024 -79.73046875 200.93359375 C-81.86296913 202.04762724 -83.96574716 203.21960077 -86.04296875 204.43359375 C-92.82757891 208.15443288 -96.85359899 209.49636517 -104.60546875 208.37109375 C-118.88049711 204.12490136 -128.5646226 192.39778116 -135.69580078 179.92382812 C-137.86306747 175.7549848 -139.46411874 171.34573879 -141.14379883 166.96411133 C-142.80425737 162.77229778 -144.52598985 159.54234782 -147.54296875 156.12109375 C-159.82783896 141.35028713 -162.68770731 128.48149692 -162.66796875 109.55859375 C-162.67231934 108.63811249 -162.67666992 107.71763123 -162.68115234 106.76925659 C-162.67972961 104.10593144 -162.63506437 101.44763254 -162.5703125 98.78515625 C-162.56430527 97.98268967 -162.55829803 97.18022308 -162.55210876 96.35343933 C-162.31128329 90.56179287 -160.92736073 87.95984697 -156.73046875 83.93359375 C-154.40063477 82.26538086 -154.40063477 82.26538086 -151.984375 80.9609375 C-150.62227905 80.21082397 -150.62227905 80.21082397 -149.23266602 79.44555664 C-148.26256592 78.92598389 -147.29246582 78.40641113 -146.29296875 77.87109375 C-144.20856614 76.72459811 -142.12525837 75.57611008 -140.04296875 74.42578125 C-138.45935547 73.55518066 -138.45935547 73.55518066 -136.84375 72.66699219 C-132.10806684 70.03028026 -127.44887182 67.27057138 -122.79296875 64.49609375 C-120.96243297 63.4085286 -119.13170208 62.3212918 -117.30078125 61.234375 C-116.38586914 60.69119629 -115.47095703 60.14801758 -114.52832031 59.58837891 C-109.75434822 56.76482019 -104.96111043 53.97444681 -100.16796875 51.18359375 C-91.28512714 46.00941816 -82.41058323 40.82130661 -73.54296875 35.62109375 C-72.93993927 35.26750793 -72.33690979 34.91392212 -71.71560669 34.54962158 C-66.11726258 31.26700745 -60.519381 27.98360569 -54.92236328 24.69873047 C-54.29259583 24.32914215 -53.66282837 23.95955383 -53.01397705 23.57876587 C-51.74760169 22.83551858 -50.48128464 22.09217194 -49.21502686 21.34872437 C-46.12869387 19.53712021 -43.04091171 17.72808529 -39.94970703 15.92480469 C-34.59584087 12.79990585 -29.25607517 9.65853901 -23.96875 6.421875 C-23.10459473 5.90028809 -22.24043945 5.37870117 -21.35009766 4.84130859 C-19.79545094 3.90152918 -18.24861801 2.94861888 -16.71240234 1.97900391 C-11.05812221 -1.40928367 -6.4101185 -2.50352268 0 0 Z " fill="#E13400" transform="translate(161.73046875,84.06640625)"/>
<path d="M0 0 C5.97863492 3.38854226 7.7279395 9.32578244 10.25 15.375 C10.72018555 16.47739014 11.19037109 17.57978027 11.67480469 18.71557617 C12.64665806 21.00303106 13.61176619 23.2933628 14.5703125 25.58642578 C15.94429096 28.86698706 17.34425035 32.13529625 18.75 35.40234375 C19.58488363 37.37173934 20.41828829 39.34176276 21.25 41.3125 C21.64477539 42.23015137 22.03955078 43.14780273 22.44628906 44.09326172 C22.79916992 44.94549316 23.15205078 45.79772461 23.515625 46.67578125 C23.82790039 47.41739502 24.14017578 48.15900879 24.46191406 48.9230957 C25.11965083 51.46182831 25.10565062 52.61412234 24 55 C21.95996094 56.5612793 21.95996094 56.5612793 19.234375 58.07421875 C18.2141626 58.65034912 17.1939502 59.22647949 16.14282227 59.82006836 C15.02319092 60.4363208 13.90355957 61.05257324 12.75 61.6875 C11.57586913 62.34683751 10.40262609 63.00775827 9.23022461 63.67016602 C7.38492648 64.71258483 5.53915593 65.75404555 3.69078064 66.79100037 C-2.46029564 70.2429823 -8.54918306 73.79725541 -14.62863159 77.37350464 C-16.451567 78.44577435 -18.2755985 79.51615878 -20.09985352 80.58618164 C-29.42856732 86.06097352 -38.72877116 91.5832201 -48.02685547 97.10986328 C-56.90972317 102.37905151 -65.8514571 107.54138824 -74.81347656 112.67456055 C-82.19269704 116.91493539 -89.48079514 121.28164958 -96.66040039 125.8527832 C-101.68080185 129 -101.68080185 129 -105 129 C-107.94967762 121.83218549 -110.88115554 114.65722168 -113.78413391 107.47036743 C-114.94864537 104.58868545 -116.11971381 101.71013595 -117.30615234 98.83740234 C-118.45097722 96.06506216 -119.572038 93.2842573 -120.6875 90.5 C-121.02587891 89.69667236 -121.36425781 88.89334473 -121.71289062 88.06567383 C-124.24518695 81.63254364 -125.73190626 74.66949873 -123.24951172 67.9765625 C-119.80285393 62.37477105 -113.91504852 59.58045607 -108.3125 56.5 C-106.13930568 55.2695617 -103.9661292 54.03909188 -101.79296875 52.80859375 C-100.67067871 52.18065918 -99.54838867 51.55272461 -98.39208984 50.90576172 C-92.94004916 47.84266761 -87.53593097 44.69743377 -82.125 41.5625 C-79.94309528 40.30401639 -77.7608013 39.04620743 -75.578125 37.7890625 C-74.49337891 37.16418945 -73.40863281 36.53931641 -72.29101562 35.89550781 C-70.09700521 34.63183594 -67.90299479 33.36816406 -65.70898438 32.10449219 C-62.4306894 30.21601508 -59.15273634 28.32694652 -55.875 26.4375 C-54.80838135 25.82277832 -53.7417627 25.20805664 -52.64282227 24.57470703 C-44.1336808 19.66566147 -35.64671431 14.7191355 -27.17724609 9.74194336 C-24.45824727 8.14926353 -21.73152369 6.57109167 -19 5 C-18.01676758 4.42926758 -17.03353516 3.85853516 -16.02050781 3.27050781 C-14.56596191 2.44631348 -14.56596191 2.44631348 -13.08203125 1.60546875 C-12.21167236 1.10813232 -11.34131348 0.6107959 -10.44458008 0.09838867 C-6.41276024 -1.71317204 -4.19939406 -1.30326022 0 0 Z " fill="#3B2F24" transform="translate(363,167)"/>
<path d="M0 0 C2.61402844 1.48844835 5.17888385 3.03788746 7.73706055 4.62036133 C9.67959318 5.79513107 11.62230663 6.96960186 13.56518555 8.14379883 C14.5480957 8.74289063 15.53100586 9.34198242 16.54370117 9.95922852 C21.16616435 12.7642999 25.82749174 15.50254499 30.48706055 18.24536133 C32.30751495 19.32194433 34.1278269 20.39876825 35.94799805 21.47583008 C39.73949769 23.71687478 43.5370898 25.94716356 47.33862305 28.17114258 C73.4161478 43.44484006 84.80422636 55.12648542 95.34838867 83.57568359 C96.37279264 86.33678784 97.40969055 89.09297488 98.44799805 91.84887695 C99.10498372 93.60706577 99.76126041 95.36551971 100.41674805 97.12426758 C100.88067459 98.35700157 100.88067459 98.35700157 101.35397339 99.61463928 C101.77539108 100.75744606 101.77539108 100.75744606 102.20532227 101.92333984 C102.45369843 102.59107925 102.70207458 103.25881866 102.95797729 103.9467926 C103.48706055 105.74536133 103.48706055 105.74536133 103.48706055 108.74536133 C99.85073431 107.37087266 96.51641934 105.74101275 93.12768555 103.83911133 C92.10360596 103.26555908 91.07952637 102.69200684 90.02441406 102.10107422 C88.9395874 101.48868896 87.85476074 100.87630371 86.73706055 100.24536133 C85.61033936 99.61170654 84.48361816 98.97805176 83.32275391 98.32519531 C76.53188312 94.49535569 69.77721309 90.61200532 63.07177734 86.63476562 C56.75981529 82.8923147 50.40764453 79.22132654 44.04956055 75.55786133 C42.94233643 74.91985596 41.8351123 74.28185059 40.69433594 73.62451172 C38.42368987 72.31646656 36.15293697 71.00860685 33.88208008 69.70092773 C27.33657616 65.9306497 20.79443149 62.15454489 14.25244141 58.37817383 C8.76335167 55.21013529 3.27196164 52.04621091 -2.22387695 48.88989258 C-8.66252063 45.19041821 -15.08996388 41.47195701 -21.51293945 37.74536133 C-22.5080957 37.17060059 -23.50325195 36.59583984 -24.52856445 36.00366211 C-27.32138267 34.38649715 -30.1057996 32.75581188 -32.88793945 31.12036133 C-33.7082666 30.64767822 -34.52859375 30.17499512 -35.3737793 29.68798828 C-40.2276619 26.80933026 -44.42893798 24.15137689 -46.2277832 18.49926758 C-46.74848428 13.37447277 -46.57627612 10.13614388 -43.51293945 5.74536133 C-31.25943099 -5.34009687 -14.6265309 -7.30260782 0 0 Z " fill="#24170B" transform="translate(133.512939453125,187.254638671875)"/>
<path d="M0 0 C15.2459822 11.4729866 27.14712991 29.2310537 30.5703125 48.15234375 C30.89757816 51.08285899 31.03274135 53.73609321 31 56.6640625 C30.5145527 65.62861898 30.5145527 65.62861898 34.06640625 73.34765625 C36.38379346 74.59157458 38.43618433 75.43544261 41 76 C38.78538961 81.6761344 33.53808 83.47931457 28.4375 86.25 C27.47263672 86.80429687 26.50777344 87.35859375 25.51367188 87.9296875 C18.24124765 91.9169991 13.22555268 92.89112426 5.13671875 91.51171875 C-9.33883193 86.64036119 -19.19107575 73.35823791 -26.1875 60.375 C-33.43226475 44.97243166 -37.006222 28.03803845 -32.8125 11.17578125 C-30.63780903 5.35220975 -27.58718467 0.49484977 -22.0625 -2.5625 C-14.34417625 -5.72264388 -7.13724221 -3.7940077 0 0 Z " fill="#2F373D" transform="translate(282,333)"/>
<path d="M0 0 C15.38689865 5.14301818 24.85079666 19.86147299 32.3046875 33.36328125 C33.36506501 35.54568612 34.20719043 37.70638349 35 40 C35.36996094 41.04929688 35.73992187 42.09859375 36.12109375 43.1796875 C38.46416505 50.71967474 39.36045407 57.57324393 39.375 65.4375 C39.37661133 66.26548096 39.37822266 67.09346191 39.37988281 67.9465332 C39.28373893 73.25100507 38.46355135 77.90098711 37 83 C38.65 83.66 40.3 84.32 42 85 C35.29298665 91.01318438 27.15276309 96 18 96 C6.84130152 94.38018893 -1.91060783 87.48239554 -9 79 C-22.62113772 60.67255556 -27.92310636 40.81045787 -26 18 C-24.5120604 10.13652174 -20.43831508 5.55698925 -14 1 C-9.72087858 -1.13956071 -4.63468303 -0.55043741 0 0 Z " fill="#2F373D" transform="translate(43,197)"/>
<path d="M0 0 C3.47953386 1.28626411 6.41787465 2.78930725 9.484375 4.87109375 C10.75027466 5.72405029 10.75027466 5.72405029 12.04174805 6.59423828 C12.93547119 7.20251465 13.82919434 7.81079102 14.75 8.4375 C16.64649049 9.71580108 18.5436342 10.99313355 20.44140625 12.26953125 C21.85317139 13.22013428 21.85317139 13.22013428 23.29345703 14.18994141 C27.06397797 16.71155806 30.8708461 19.17399187 34.6875 21.625 C40.3060939 25.24038017 45.88603543 28.90737879 51.4375 32.625 C57.75366945 36.85441552 64.09658013 41.04023387 70.4675293 45.18676758 C72.6981935 46.64603648 74.92107114 48.11727767 77.13598633 49.6003418 C82.42256355 53.12381766 87.65992097 56.41579844 93.33203125 59.28515625 C104.68966491 65.29977696 104.68966491 65.29977696 108 70 C110.37882691 78.48487847 109.32373501 87.40202594 108 96 C103.29336588 94.58061053 99.06560046 92.60702781 94.75 90.2890625 C94.06397705 89.92517426 93.3779541 89.56128601 92.67114258 89.18637085 C90.44494976 88.00383914 88.22243105 86.81458421 86 85.625 C84.44676549 84.79789364 82.89337885 83.97107289 81.33984375 83.14453125 C72.36534802 78.36353419 63.42011298 73.53112509 54.51025391 68.63061523 C48.87430721 65.54022543 43.20777554 62.51184164 37.5234375 59.51171875 C36.7721759 59.1151004 36.02091431 58.71848206 35.24688721 58.30984497 C30.80417266 55.96577841 26.35866036 53.62715822 21.90869141 51.29689026 C20.53523932 50.5695491 19.16725037 49.83178952 17.80517578 49.08335876 C14.66890958 47.36190835 11.69214633 45.88252412 8.3359375 44.60180664 C4.72652422 43.07775529 2.56018494 41.98164688 0 39 C-1.92096332 32.58802705 -1.12237744 25.64995068 -0.75 19.0625 C-0.68976136 17.2156675 -0.63501631 15.36864713 -0.5859375 13.52148438 C-0.45411353 9.00966685 -0.24740516 4.50689731 0 0 Z " fill="#872E02" transform="translate(100,242)"/>
<path d="M0 0 C0.80150584 5.68178587 1.44029026 10.82886181 -1.83984375 15.7734375 C-4.43843549 18.37613444 -7.12984864 20.70079273 -10 23 C-10.8765625 23.74765625 -11.753125 24.4953125 -12.65625 25.265625 C-15.39468824 27.56913481 -18.18695698 29.78839243 -21 32 C-21.96292969 32.77988281 -22.92585938 33.55976563 -23.91796875 34.36328125 C-42.39890478 49.04965247 -63.04252582 60.56449595 -84.875 69.4375 C-85.88449707 69.85080566 -86.89399414 70.26411133 -87.93408203 70.68994141 C-95.18067054 73.54723523 -102.37912484 75.3876924 -110 77 C-110 72.38 -110 67.76 -110 63 C-109.03400879 62.67837891 -108.06801758 62.35675781 -107.07275391 62.02539062 C-81.53482271 53.76781126 -81.53482271 53.76781126 -57 43 C-56.40638672 42.69707031 -55.81277344 42.39414062 -55.20117188 42.08203125 C-40.89518684 34.63852202 -27.6922541 25.07123694 -16 14 C-14.60965386 12.78535694 -13.21404438 11.57670441 -11.8125 10.375 C-8.49392509 7.4948547 -5.39799112 4.44666505 -2.34765625 1.28515625 C-1 0 -1 0 0 0 Z " fill="#25292C" transform="translate(502,343)"/>
<path d="M0 0 C2.08299088 5.67361574 4.16422735 11.3478709 6.24389648 17.02270508 C6.95045504 18.94996177 7.65747845 20.87704812 8.36499023 22.80395508 C9.38650153 25.58629557 10.40629559 28.3692605 11.42578125 31.15234375 C11.73840408 32.00271713 12.05102692 32.85309052 12.37312317 33.72923279 C14.3463078 39.1222068 16.21509965 44.54181754 18 50 C14.34290821 48.62699382 11.04409192 46.97693772 7.66796875 45.015625 C6.63269043 44.4162915 5.59741211 43.81695801 4.53076172 43.19946289 C3.42748535 42.55614014 2.32420898 41.91281738 1.1875 41.25 C0.05070801 40.59056396 -1.08608398 39.93112793 -2.25732422 39.25170898 C-5.23962203 37.52132712 -8.21937604 35.78661831 -11.19818115 34.05023193 C-12.98677918 33.00770606 -14.77579838 31.96590664 -16.56494141 30.92431641 C-23.38042744 26.9560424 -30.19212473 22.98131675 -37 19 C-33.68719955 16.24076578 -30.38048105 13.94231035 -26.62109375 11.8359375 C-25.11579102 10.98902344 -25.11579102 10.98902344 -23.58007812 10.125 C-22.54302734 9.5475 -21.50597656 8.97 -20.4375 8.375 C-19.39658203 7.78976563 -18.35566406 7.20453125 -17.28320312 6.6015625 C-14.52793197 5.0564844 -11.77278804 3.51342001 -9 2 C-8.33492432 1.61021973 -7.66984863 1.22043945 -6.98461914 0.81884766 C-4.55575626 -0.18329358 -2.60213191 -0.14456288 0 0 Z " fill="#61584F" transform="translate(360,166)"/>
<path d="M0 0 C8.06194281 4.71065106 13.50058274 13.10145903 16 22 C17.24019425 29.658244 17.1843286 37.25747998 13 44 C9.17586794 46.54942138 7.54576584 46.59616601 3 46 C-5.77518421 41.62102792 -11.16172603 32.94228825 -14.4375 24 C-16.45359261 17.2391377 -17.18794794 11.26685684 -14.75 4.5625 C-10.6960724 -1.37360828 -6.78877409 -2.24476318 0 0 Z " fill="#C8C9C9" transform="translate(49,222)"/>
<path d="M0 0 C9.62194317 5.28339164 15.44560841 14.64324869 18.58984375 24.9296875 C19.69339514 30.49999454 19.65758171 36.1587712 17.75 41.5 C15.93218694 44.0968758 14.83519296 45.58240352 12 47 C8.44717414 47.61491217 6.09826282 47.61584831 2.91015625 45.828125 C-5.59906137 39.67993797 -10.93695181 31.31524094 -13 21 C-13.73381861 9.5340842 -13.73381861 9.5340842 -11 4 C-7.46402166 0.36580004 -5.05232169 -0.99065131 0 0 Z " fill="#C9C9C9" transform="translate(278,353)"/>
<path d="M0 0 C3.74276522 1.49710609 6.31489207 2.71654767 9.5546875 4.90625 C10.4103833 5.48101074 11.2660791 6.05577148 12.14770508 6.64794922 C13.0477124 7.25912598 13.94771973 7.87030273 14.875 8.5 C16.75128002 9.76305361 18.62758228 11.02607419 20.50390625 12.2890625 C21.42961426 12.91458008 22.35532227 13.54009766 23.30908203 14.18457031 C27.13280307 16.76424638 30.97202747 19.32036196 34.8125 21.875 C36.02743884 22.68475318 37.2422933 23.49463298 38.45703125 24.3046875 C39.29621094 24.86414063 40.13539063 25.42359375 41 26 C40.01 26.495 40.01 26.495 39 27 C36.66162109 26.10375977 36.66162109 26.10375977 33.7734375 24.69140625 C32.7421875 24.19189453 31.7109375 23.69238281 30.6484375 23.17773438 C29.56820312 22.64470703 28.48796875 22.11167969 27.375 21.5625 C26.28703125 21.03333984 25.1990625 20.50417969 24.078125 19.95898438 C21.38189082 18.64634405 18.68947319 17.32642367 16 16 C14.61646513 31.83374701 14.61646513 31.83374701 19.28125 46.2578125 C22.43235255 48.23969016 25.55625508 49.59329169 29 51 C31.50001304 52.55388284 33.8694021 54.27039847 36.25 56 C37.35768489 56.77326005 38.46690881 57.54432326 39.578125 58.3125 C40.37734375 58.869375 41.1765625 59.42625 42 60 C41.01 60.495 41.01 60.495 40 61 C37.60839844 59.95532227 37.60839844 59.95532227 34.609375 58.31640625 C33.5059375 57.71763672 32.4025 57.11886719 31.265625 56.50195312 C30.09370957 55.85554204 28.92183466 55.2090575 27.75 54.5625 C26.63625 53.95728516 25.5225 53.35207031 24.375 52.72851562 C16.18419303 48.2603738 8.10318896 43.63039369 0 39 C0 26.13 0 13.26 0 0 Z " fill="#2A292B" transform="translate(100,242)"/>
<path d="M0 0 C0.05811773 3.74993479 0.09363593 7.49975352 0.125 11.25 C0.14175781 12.31347656 0.15851563 13.37695312 0.17578125 14.47265625 C0.18222656 15.49746094 0.18867188 16.52226562 0.1953125 17.578125 C0.20578613 18.52075195 0.21625977 19.46337891 0.22705078 20.43457031 C-0.01497308 23.16917965 -0.49923083 24.71516818 -2 27 C-4.26000689 28.59546748 -6.41475697 29.96730468 -8.8125 31.3125 C-9.42931641 31.68439453 -10.04613281 32.05628906 -10.68164062 32.43945312 C-14.64542062 34.70146147 -16.64805768 35.13348803 -21 34 C-21.14601614 30.45877173 -21.2343056 26.91832356 -21.3125 23.375 C-21.35439453 22.37597656 -21.39628906 21.37695312 -21.43945312 20.34765625 C-21.57764828 12.00066875 -21.57764828 12.00066875 -18.859375 8.53515625 C-15.99804434 5.99826609 -13.24737965 3.97478192 -9.9375 2.0625 C-8.91527344 1.45535156 -7.89304687 0.84820312 -6.83984375 0.22265625 C-3.73769285 -1.11293279 -3.06370316 -0.96897564 0 0 Z " fill="#FEFAF9" transform="translate(494,292)"/>
<path d="M0 0 C0.14553599 3.89543877 0.23415059 7.79017651 0.3125 11.6875 C0.35439453 12.79029297 0.39628906 13.89308594 0.43945312 15.02929688 C0.56291468 23.20245178 0.56291468 23.20245178 -2.13671875 27.02734375 C-5.09877732 29.06805259 -8.01764854 31.06043135 -11.125 32.875 C-12.67574219 33.79925781 -12.67574219 33.79925781 -14.2578125 34.7421875 C-17 36 -17 36 -20 35 C-20.14553599 31.10456123 -20.23415059 27.20982349 -20.3125 23.3125 C-20.35439453 22.20970703 -20.39628906 21.10691406 -20.43945312 19.97070312 C-20.56291468 11.79754822 -20.56291468 11.79754822 -17.86328125 7.97265625 C-14.90122268 5.93194741 -11.98235146 3.93956865 -8.875 2.125 C-7.84117187 1.50882812 -6.80734375 0.89265625 -5.7421875 0.2578125 C-3 -1 -3 -1 0 0 Z " fill="#FEFCFB" transform="translate(396,349)"/>
<path d="M0 0 C0.66 0.33 1.32 0.66 2 1 C1.51104248 1.69762451 1.02208496 2.39524902 0.51831055 3.11401367 C-1.23388486 6.44456552 -1.34820631 8.43803977 -1.29296875 12.17578125 C-1.28330078 13.33271484 -1.27363281 14.48964844 -1.26367188 15.68164062 C-1.23853516 16.87982422 -1.21339844 18.07800781 -1.1875 19.3125 C-1.17396484 20.53001953 -1.16042969 21.74753906 -1.14648438 23.00195312 C-1.11119261 26.00175345 -1.06188481 29.00064975 -1 32 C-1.50571533 31.61980713 -2.01143066 31.23961426 -2.5324707 30.84790039 C-5.75626879 28.42674217 -8.98089035 26.00758413 -12.23046875 23.62109375 C-13.20628906 22.90050781 -14.18210937 22.17992187 -15.1875 21.4375 C-16.66283203 20.35275391 -16.66283203 20.35275391 -18.16796875 19.24609375 C-20.99988826 17.00008863 -23.4668561 14.57307785 -26 12 C-22.33850369 10.26263025 -18.67233175 8.53560142 -15.00146484 6.81811523 C-13.75273093 6.23209088 -12.50532378 5.64323083 -11.25927734 5.05151367 C-9.47061771 4.20271855 -7.67678122 3.36485953 -5.8828125 2.52734375 C-4.80402832 2.01937256 -3.72524414 1.51140137 -2.61376953 0.98803711 C-1.75122559 0.66198486 -0.88868164 0.33593262 0 0 Z " fill="#8A2E01" transform="translate(374,354)"/>
<path d="M0 0 C2.8125 -0.5 2.8125 -0.5 6 0 C10.14399226 3.37301695 12.63606444 7.27212888 15 12 C15.14640501 13.64142541 15.22096589 15.2898141 15.25 16.9375 C15.27578125 17.81277344 15.3015625 18.68804687 15.328125 19.58984375 C15 22 15 22 13.6328125 23.78515625 C12 25 12 25 9.625 25.5 C4.68082221 24.55825185 2.5095485 20.70235063 -0.3125 16.8125 C-2.66905819 12.47147176 -2.72440811 7.81815629 -2 3 C-1.34 2.01 -0.68 1.02 0 0 Z " fill="#647883" transform="translate(43,232)"/>
<path d="M0 0 C3.81548744 0.2661968 5.68369535 0.74254273 8.6875 3.1875 C13.21209557 8.6903865 14.33300546 12.73781477 14.30078125 19.73046875 C14 22 14 22 12 25 C9.1875 25.5 9.1875 25.5 6 25 C1.53457738 21.36535368 -2.14363406 16.82328841 -3 11 C-3.448 4.728 -3.448 4.728 -1.5 1.5625 C-1.005 1.046875 -0.51 0.53125 0 0 Z " fill="#647882" transform="translate(275,364)"/>
<path d="M0 0 C-0.4844458 0.53915039 -0.9688916 1.07830078 -1.46801758 1.63378906 C-3.36106683 4.55768283 -3.42335462 6.39550128 -3.51171875 9.859375 C-3.54716797 10.97441406 -3.58261719 12.08945312 -3.61914062 13.23828125 C-3.64169922 14.39714844 -3.66425781 15.55601562 -3.6875 16.75 C-3.72166016 17.92433594 -3.75582031 19.09867187 -3.79101562 20.30859375 C-3.87345173 23.20563389 -3.94261811 26.10237298 -4 29 C-8.12581244 25.10046612 -11.47967098 20.90014581 -14.8125 16.3125 C-15.31458984 15.63638672 -15.81667969 14.96027344 -16.33398438 14.26367188 C-20 9.25095663 -20 9.25095663 -20 7 C-17.04738074 5.63311253 -14.08709966 4.28370462 -11.125 2.9375 C-10.28324219 2.54755859 -9.44148438 2.15761719 -8.57421875 1.75585938 C-7.76855469 1.39169922 -6.96289062 1.02753906 -6.1328125 0.65234375 C-5.38918457 0.31195068 -4.64555664 -0.02844238 -3.87939453 -0.37915039 C-2 -1 -2 -1 0 0 Z " fill="#8D2E01" transform="translate(474,298)"/>
<path d="M0 0 C3.3 1.65 6.6 3.3 10 5 C7.71465031 9.57069937 5.28433338 10.95955787 1 13.3125 C0.35804688 13.68439453 -0.28390625 14.05628906 -0.9453125 14.43945312 C-2.59204938 15.36445072 -4.29345188 16.19064446 -6 17 C-6.66 16.67 -7.32 16.34 -8 16 C-7.51080078 15.27296875 -7.51080078 15.27296875 -7.01171875 14.53125 C-3.94075683 9.82062995 -1.80654404 5.32455084 0 0 Z " fill="#24292D" transform="translate(313,404)"/>
<path d="M0 0 C2.4375 0.375 2.4375 0.375 5 1 C5.33 1.66 5.66 2.32 6 3 C4.3811004 4.03048037 2.75467511 5.04914678 1.125 6.0625 C0.22007813 6.63097656 -0.68484375 7.19945312 -1.6171875 7.78515625 C-2.40351562 8.18605469 -3.18984375 8.58695312 -4 9 C-4.66 8.67 -5.32 8.34 -6 8 C-5.38125 7.236875 -4.7625 6.47375 -4.125 5.6875 C-1.94402948 3.00374191 -1.94402948 3.00374191 0 0 Z " fill="#24292E" transform="translate(79,280)"/>
<path d="M0 0 C9.59453303 5.0022779 9.59453303 5.0022779 13 9 C7.52067211 7.45454854 2.88570819 4.84456788 -2 2 C-1.34 1.34 -0.68 0.68 0 0 Z " fill="#3E2A24" transform="translate(129,294)"/>
<path d="M0 0 C3.93673644 1.31224548 6.22719294 2.91910327 9 6 C5.08788267 4.84414715 2.1254959 3.64465038 -1 1 C-0.67 0.67 -0.34 0.34 0 0 Z " fill="#3A2A25" transform="translate(132,263)"/>
</svg>
