<?xml version="1.0" encoding="UTF-8"?>
<svg version="1.1" xmlns="http://www.w3.org/2000/svg" width="512" height="512">
<path d="M0 0 C0.97807617 0.20399414 1.95615234 0.40798828 2.96386719 0.61816406 C41.39365161 8.79446072 76.20536806 24.08386317 106 50 C106.56332031 50.48887695 107.12664062 50.97775391 107.70703125 51.48144531 C138.22017219 78.1895466 159.52107758 115.41975084 164 156 C164.31334688 161.48253287 164.39019838 166.94704703 164.375 172.4375 C164.37418427 173.55209595 164.37418427 173.55209595 164.37335205 174.68920898 C164.27161368 205.06096066 155.73794507 235.03548472 138 260 C137.33613281 260.93585938 136.67226563 261.87171875 135.98828125 262.8359375 C125.22661946 277.55835452 113.38018893 290.74750216 99 302 C98.4534375 302.42829102 97.906875 302.85658203 97.34375 303.29785156 C70.01493325 324.52426775 38.65285813 337.68929578 5 345 C4.10071085 345.19550446 3.2014217 345.39100891 2.27488136 345.59243774 C-21.19984964 350.40912841 -45.12482786 349.59021391 -68.96444726 349.53730202 C-75.03939007 349.52705042 -81.11431079 349.53659842 -87.18925476 349.54284668 C-97.36002017 349.5500765 -107.53066846 349.54064681 -117.70141602 349.52148438 C-129.45180443 349.49960127 -141.20191641 349.50686825 -152.95229846 349.52879 C-163.08366236 349.54693108 -173.21494307 349.54951232 -183.34631795 349.53903532 C-189.38018443 349.5328091 -195.41392065 349.53194342 -201.4477787 349.54518127 C-207.10097094 349.55672452 -212.75380422 349.54874188 -218.40695763 349.52560425 C-220.47981546 349.52031433 -222.5527035 349.52183573 -224.62554932 349.53065491 C-227.45347771 349.54157945 -230.28025365 349.52788545 -233.10810852 349.50793457 C-234.33828004 349.5213189 -234.33828004 349.5213189 -235.5933035 349.53497362 C-240.85905069 349.46285717 -243.79836406 348.44290215 -248 345 C-252.41415841 340.35351746 -252.46758261 336.11206934 -252.53125 330 C-251.19493582 322.45375519 -244.51355748 317.25180983 -239.296875 312.1015625 C-238.45908508 311.26660248 -237.62129517 310.43164246 -236.75811768 309.57138062 C-234.09342084 306.91783717 -231.42183814 304.27135085 -228.75 301.625 C-226.9370405 299.82207652 -225.1245353 298.01869609 -223.3125 296.21484375 C-218.88024898 291.80458888 -214.44233078 287.40010039 -210 283 C-211.40228736 279.29428073 -212.72131466 276.96062562 -215.5 274.125 C-240.11997486 247.1052442 -252.47486333 209.63837943 -252.375 173.5625 C-252.37445618 172.81943604 -252.37391235 172.07637207 -252.37335205 171.31079102 C-252.24334287 132.49940977 -237.65849456 97.06525266 -212 68 C-211.56252441 67.49694336 -211.12504883 66.99388672 -210.67431641 66.47558594 C-179.09166159 30.31525748 -134.59490078 9.07692872 -88 0 C-86.81204834 -0.2477417 -86.81204834 -0.2477417 -85.60009766 -0.50048828 C-58.88085573 -5.91375183 -26.63977086 -5.74141815 0 0 Z " fill="#008000" transform="translate(252,19)"/>
<path d="M0 0 C3.45641033 1.23263056 5.91944865 2.51921097 8.6015625 5.01953125 C9.25092773 5.6225708 9.90029297 6.22561035 10.56933594 6.84692383 C11.24770508 7.49556396 11.92607422 8.1442041 12.625 8.8125 C13.33430664 9.48756592 14.04361328 10.16263184 14.77441406 10.8581543 C42.24754567 37.36343997 63.25313127 74.79999269 65.17700195 113.56665039 C65.46568252 131.3785863 65.63057005 148.64608123 61 166 C60.79632813 166.76586426 60.59265625 167.53172852 60.3828125 168.32080078 C54.16233671 190.70203429 42.86413794 211.06251579 27.91015625 228.73046875 C26.19300341 230.77068511 24.57651171 232.85021131 23 235 C24.42594853 238.25575752 26.15741943 240.39254314 28.68359375 242.87890625 C29.43777588 243.62648193 30.19195801 244.37405762 30.96899414 245.14428711 C31.78360107 245.94229736 32.59820801 246.74030762 33.4375 247.5625 C34.27337646 248.39080322 35.10925293 249.21910645 35.97045898 250.07250977 C38.64223702 252.719847 41.32031462 255.36066843 44 258 C47.52655059 261.47344369 51.04651233 264.95336802 54.5625 268.4375 C55.7844104 269.63451538 55.7844104 269.63451538 57.03100586 270.85571289 C57.78518799 271.60328857 58.53937012 272.35086426 59.31640625 273.12109375 C59.98099854 273.7752124 60.64559082 274.42933105 61.33032227 275.10327148 C65.44134479 279.77333056 65.42993137 284.05290078 65.3125 290.0859375 C64.74665156 295.36247424 62.38161736 297.86787588 58.40730572 301.12450409 C54.08110232 303.50579226 50.95677119 303.56068827 46.10810852 303.50793457 C44.78142183 303.51729451 44.78142183 303.51729451 43.42793339 303.52684355 C40.46901701 303.54277603 37.51092421 303.53016722 34.55200195 303.51757812 C32.42745992 303.52299994 30.30292166 303.53012293 28.1783905 303.53881836 C22.40429625 303.55707071 16.63048765 303.54996998 10.85638833 303.53730202 C4.79114797 303.52715667 -1.27406834 303.53657453 -7.33930969 303.54284668 C-17.54745853 303.55013026 -27.75549177 303.54052887 -37.96362305 303.52148438 C-49.70122781 303.49983674 -61.4385533 303.5066755 -73.17615098 303.52879 C-83.28958545 303.54707083 -93.40293681 303.5494373 -103.51638252 303.53903532 C-109.53949364 303.53285369 -115.56247467 303.53181304 -121.58557701 303.54518127 C-170.55594097 303.63888894 -170.55594097 303.63888894 -192 299 C-193.06378057 298.77155396 -194.12756115 298.54310791 -195.2235775 298.30773926 C-232.14708132 290.23645239 -266.85066127 273.8030996 -294.734375 248.078125 C-296.8017788 246.18181669 -298.91750093 244.36970394 -301.0625 242.5625 C-308.24128822 236.25952395 -314.15850797 228.97610614 -319.8125 221.3125 C-320.49662964 220.38630859 -320.49662964 220.38630859 -321.19458008 219.44140625 C-324.10113331 215.43103761 -326.5531112 211.30589417 -329 207 C-327.92354721 206.98969254 -326.84709442 206.97938507 -325.73802185 206.96876526 C-315.48798895 206.87010649 -305.23800444 206.76730405 -294.98805141 206.66066074 C-289.72113705 206.60598967 -284.45421692 206.55267298 -279.18725586 206.50268555 C-274.08431773 206.45420107 -268.98143133 206.40185369 -263.87855721 206.34705925 C-261.95219307 206.32700846 -260.025815 206.30824497 -258.09942436 206.29092598 C-247.59280661 206.19553806 -237.1025112 205.97438508 -226.60449219 205.52563477 C-225.1816424 205.46515001 -225.1816424 205.46515001 -223.73004818 205.40344334 C-216.36768248 205.06635821 -209.11142396 204.42539263 -201.8125 203.375 C-200.61036865 203.20387695 -199.4082373 203.03275391 -198.16967773 202.85644531 C-150.00123425 195.56418665 -104.54168892 175.28132457 -68 143 C-67.48163574 142.5447998 -66.96327148 142.08959961 -66.42919922 141.62060547 C-26.35505747 106.26845598 -3.62961483 57.69605739 -0.26171875 4.66015625 C-0.17213211 3.10690443 -0.08391824 1.55356838 0 0 Z " fill="#175117" transform="translate(447,193)"/>
<path d="M0 0 C0.81756391 -0.00367669 1.63512783 -0.00735338 2.4774664 -0.01114148 C5.23264926 -0.0222047 7.98779444 -0.02602663 10.74299622 -0.02983093 C12.71220521 -0.03609364 14.68141301 -0.04274027 16.65061951 -0.04974365 C22.01236622 -0.0671724 27.374104 -0.07771073 32.73587203 -0.08594918 C36.08445819 -0.09109583 39.43304156 -0.09717174 42.78162575 -0.10346031 C53.25478519 -0.12251843 63.72793756 -0.13674771 74.20111102 -0.14507228 C86.29736202 -0.15484511 98.39343005 -0.18116332 110.48961657 -0.22157317 C119.83406423 -0.2517206 129.17845941 -0.26653989 138.52295476 -0.26985329 C144.10621804 -0.27220553 149.68928599 -0.2811885 155.27249718 -0.30631447 C160.52642694 -0.32957578 165.78003251 -0.33383613 171.0340004 -0.32355309 C172.96130386 -0.32305713 174.88862318 -0.32939516 176.81587791 -0.34310913 C179.44990617 -0.36080189 182.08276771 -0.35373498 184.71679688 -0.34057617 C185.47712335 -0.35154542 186.23744983 -0.36251466 187.0208165 -0.37381631 C192.48460851 -0.30804773 195.65550055 1.05572224 200.17585754 4.14717102 C204.62755623 9.06746957 205.53213774 12.09923894 205.45710754 18.60810852 C204.90867753 23.55921282 202.17539971 26.24514516 198.61335754 29.45967102 C194.27339302 32.46426184 190.30538623 32.2955597 185.22473145 32.29434204 C183.99604559 32.29985707 183.99604559 32.29985707 182.7425378 32.30548352 C179.98812702 32.31652758 177.23375396 32.3203654 174.47932434 32.32417297 C172.50834534 32.330437 170.53736751 32.33708375 168.56639099 32.34408569 C163.20477063 32.36149918 157.84315919 32.3720481 152.48151755 32.38029122 C149.13310132 32.38543993 145.78468785 32.39151568 142.43627357 32.39780235 C131.96365355 32.41685417 121.49104059 32.43108615 111.01840657 32.43941432 C98.92215567 32.44919209 86.82608751 32.4755258 74.72990102 32.51591522 C65.38459957 32.54605076 56.03935059 32.56088071 46.6940015 32.56419533 C41.11022611 32.56654845 35.52664594 32.5755431 29.94292259 32.60065651 C24.69062418 32.6238978 19.43865009 32.62818629 14.18631363 32.61789513 C12.25858928 32.61739872 10.33084917 32.6237499 8.40317345 32.63745117 C5.77103688 32.65511287 3.14007148 32.64809246 0.50793457 32.63491821 C-0.25462263 32.64588746 -1.01717983 32.6568567 -1.80284482 32.66815835 C-7.78021044 32.59594363 -11.21783738 30.58376321 -15.50382996 26.57685852 C-18.76394487 22.33657834 -19.53744171 18.8451351 -19.24601746 13.51045227 C-18.21568667 7.73869184 -14.41595997 4.4097782 -9.82414246 1.14717102 C-6.71342153 -0.40818944 -3.41479082 -0.00081604 0 0 Z " fill="#F9F9F9" transform="translate(114.82414245605469,143.8528289794922)"/>
<path d="M0 0 C1.14537231 -0.0071553 2.29074463 -0.01431061 3.4708252 -0.02168274 C4.73368851 -0.02437164 5.99655182 -0.02706055 7.29768372 -0.02983093 C8.63635942 -0.03609507 9.97503339 -0.04274182 11.31370544 -0.04974365 C15.71696255 -0.07079715 20.12022005 -0.08114905 24.52351379 -0.09111023 C26.03956432 -0.09515768 27.55561466 -0.0992746 29.07166481 -0.10346031 C36.19597673 -0.12251692 43.32027826 -0.13674545 50.44461077 -0.14507228 C58.66502602 -0.15483889 66.88517158 -0.18114114 75.10549182 -0.22157317 C81.46058065 -0.25175649 87.81559229 -0.26654336 94.17075139 -0.26985329 C97.96553048 -0.27220182 101.76002163 -0.28113562 105.55472374 -0.30631447 C109.1277493 -0.32963847 112.70029825 -0.33381141 116.27338028 -0.32355309 C118.20316912 -0.3228236 120.13293398 -0.3418858 122.06262207 -0.36161804 C128.80136868 -0.32126118 133.17135812 0.02590643 138.60554504 4.14717102 C143.05724373 9.06746957 143.96182524 12.09923894 143.88679504 18.60810852 C143.33836503 23.55921282 140.60508721 26.24514516 137.04304504 29.45967102 C133.31932693 32.03762971 130.50126699 32.27546023 126.08410645 32.29434204 C124.36181824 32.305075 124.36181824 32.305075 122.60473633 32.31602478 C121.34389725 32.31871368 120.08305817 32.32140259 118.78401184 32.32417297 C117.44356612 32.33043905 116.10312214 32.33708598 114.76268005 32.34408569 C110.36005357 32.3651098 105.9574268 32.3754859 101.55476379 32.38545227 C100.03837885 32.38950032 98.52199409 32.39361725 97.00560951 32.39780235 C89.88183702 32.41684969 82.75807487 32.43108218 75.63428181 32.43941432 C67.4138668 32.44918819 59.19372094 32.47551329 50.97340077 32.51591522 C44.61745815 32.54608101 38.26159268 32.56088359 31.90557986 32.56419533 C28.11028873 32.56654514 24.31528531 32.57549622 20.52007103 32.60065651 C16.94867675 32.62395096 13.37775933 32.62816532 9.80630875 32.61789513 C7.8751441 32.61716438 5.9440036 32.63624562 4.01293945 32.65596008 C-3.76257481 32.60928073 -7.39589828 31.88535657 -13.07414246 26.57685852 C-16.33425737 22.33657834 -17.10775421 18.8451351 -16.81632996 13.51045227 C-15.78599917 7.73869184 -11.98627247 4.4097782 -7.39445496 1.14717102 C-4.79881546 -0.15064873 -2.907803 0.01243453 0 0 Z " fill="#F8F9F8" transform="translate(112.39445495605469,207.8528289794922)"/>
</svg>
