<?xml version="1.0" encoding="UTF-8"?>
<svg version="1.1" xmlns="http://www.w3.org/2000/svg" width="512" height="512">
<path d="M0 0 C4.23301528 3.49883376 8.35099806 7.16425636 11.8828125 11.3828125 C11.8828125 12.0428125 11.8828125 12.7028125 11.8828125 13.3828125 C12.45459229 13.53049072 13.02637207 13.67816895 13.61547852 13.83032227 C21.07320349 15.89709919 27.86980829 18.94593962 34.8203125 22.3203125 C36.0060083 22.89515381 37.1917041 23.46999512 38.41333008 24.06225586 C69.54427902 39.33890435 98.55055733 61.93915449 119.8828125 89.3828125 C120.67042969 90.36507812 121.45804687 91.34734375 122.26953125 92.359375 C139.62179465 114.16463127 153.04355932 138.96241284 161.8828125 165.3828125 C162.16205566 166.21619141 162.44129883 167.04957031 162.72900391 167.90820312 C165.7241948 177.01189106 168.21035373 186.18047459 170.1328125 195.5703125 C170.28395508 196.30451416 170.43509766 197.03871582 170.59082031 197.79516602 C173.54459741 213.19581308 174.2563081 228.42569422 174.1953125 244.0703125 C174.19257828 245.5270639 174.19257828 245.5270639 174.18978882 247.01324463 C174.14552678 261.0153328 173.7315302 274.63145525 170.8828125 288.3828125 C170.72184082 289.23182129 170.56086914 290.08083008 170.39501953 290.95556641 C161.95845983 335.19685307 141.58980298 376.4100635 110.8828125 409.3828125 C109.71139796 410.73287414 108.5445183 412.08688764 107.3828125 413.4453125 C100.71208766 421.06462665 93.49854109 427.82874747 85.53466797 434.08154297 C84.37004226 434.99899124 83.21067989 435.92314032 82.05517578 436.85205078 C38.44839225 471.87507978 -15.08424763 489.91255663 -70.8046875 489.6953125 C-71.7758551 489.69348969 -72.74702271 489.69166687 -73.74761963 489.68978882 C-87.7497078 489.64552678 -101.36583025 489.2315302 -115.1171875 486.3828125 C-115.96619629 486.22184082 -116.81520508 486.06086914 -117.68994141 485.89501953 C-152.00226323 479.35185649 -184.71581512 465.74989835 -213.1171875 445.3828125 C-214.03491943 444.72635742 -214.03491943 444.72635742 -214.97119141 444.05664062 C-232.52452623 431.33927683 -248.78760973 416.48713795 -262.1171875 399.3828125 C-262.91769531 398.37605469 -263.71820313 397.36929687 -264.54296875 396.33203125 C-281.87060568 374.39295242 -295.23175693 349.92295478 -304.1171875 323.3828125 C-304.38966309 322.58955566 -304.66213867 321.79629883 -304.94287109 320.97900391 C-311.92999724 300.3962175 -316.20598702 278.35511227 -316.3203125 256.58984375 C-316.32737213 255.68939331 -316.33443176 254.78894287 -316.34170532 253.86120605 C-316.57056628 216.10361955 -316.57056628 216.10361955 -313.1171875 199.3828125 C-312.91851074 198.39974121 -312.71983398 197.41666992 -312.51513672 196.40380859 C-301.00847901 141.07704017 -271.10485192 88.35221551 -226.1171875 53.3828125 C-225.13492188 52.59519531 -224.15265625 51.80757813 -223.140625 50.99609375 C-203.2804225 35.19167206 -170.19636327 10.3828125 -144.1171875 10.3828125 C-143.9109375 9.7228125 -143.7046875 9.0628125 -143.4921875 8.3828125 C-137.62192672 -4.42502921 -125.83068353 -11.79263671 -113.15527344 -16.87402344 C-76.25990026 -30.32748726 -31.00780532 -23.88329653 0 0 Z " fill="#6292E3" transform="translate(327.1171875,22.6171875)"/>
<path d="M0 0 C4.23301528 3.49883376 8.35099806 7.16425636 11.8828125 11.3828125 C11.8828125 12.0428125 11.8828125 12.7028125 11.8828125 13.3828125 C12.45459229 13.53049072 13.02637207 13.67816895 13.61547852 13.83032227 C21.07320349 15.89709919 27.86980829 18.94593962 34.8203125 22.3203125 C36.0060083 22.89515381 37.1917041 23.46999512 38.41333008 24.06225586 C69.54427902 39.33890435 98.55055733 61.93915449 119.8828125 89.3828125 C120.67042969 90.36507812 121.45804687 91.34734375 122.26953125 92.359375 C139.62179465 114.16463127 153.04355932 138.96241284 161.8828125 165.3828125 C162.16205566 166.21619141 162.44129883 167.04957031 162.72900391 167.90820312 C165.7241948 177.01189106 168.21035373 186.18047459 170.1328125 195.5703125 C170.28395508 196.30451416 170.43509766 197.03871582 170.59082031 197.79516602 C173.54459741 213.19581308 174.2563081 228.42569422 174.1953125 244.0703125 C174.19257828 245.5270639 174.19257828 245.5270639 174.18978882 247.01324463 C174.14552678 261.0153328 173.7315302 274.63145525 170.8828125 288.3828125 C170.72184082 289.23182129 170.56086914 290.08083008 170.39501953 290.95556641 C165.58039545 316.20343659 156.59273854 339.58617778 144.8828125 362.3828125 C142.97800164 359.94415862 141.38860088 357.61435964 140.0859375 354.80859375 C139.77060059 354.14529053 139.45526367 353.4819873 139.13037109 352.79858398 C138.80117676 352.10450439 138.47198242 351.4104248 138.1328125 350.6953125 C135.00839115 344.28252073 131.5764134 338.78722315 126.8828125 333.3828125 C126.4496875 332.79628906 126.0165625 332.20976562 125.5703125 331.60546875 C114.90305721 317.60469618 96.5274072 311.23220032 79.8828125 308.3828125 C79.01333984 308.29193359 78.14386719 308.20105469 77.24804688 308.10742188 C68.55696333 307.03748598 62.15174302 303.72936215 54.6328125 299.3828125 C52.18823798 298.00639602 49.73373586 296.64887145 47.2734375 295.30078125 C46.65927979 294.96410934 46.04512207 294.62743744 45.41235352 294.28056335 C38.30616572 290.4444864 30.87965906 287.42230986 23.34667969 284.52929688 C21.95690918 283.98692383 21.95690918 283.98692383 20.5390625 283.43359375 C19.73275391 283.13106689 18.92644531 282.82854004 18.09570312 282.5168457 C15.48707863 281.18001199 13.89296979 279.50064315 11.8828125 277.3828125 C10.7402399 276.49871883 9.57222595 275.64632964 8.37890625 274.83203125 C7.72559326 274.38480713 7.07228027 273.93758301 6.39916992 273.47680664 C5.71314697 273.01266357 5.02712402 272.54852051 4.3203125 272.0703125 C3.61302002 271.58103271 2.90572754 271.09175293 2.17700195 270.58764648 C-1.91729829 267.77719552 -6.06186368 265.31608318 -10.4296875 262.9453125 C-14.53659586 260.35925326 -15.96084409 258.38345048 -17.2421875 253.6953125 C-17.57484145 251.59723525 -17.86613039 249.49220984 -18.1171875 247.3828125 C-18.33503906 246.36316406 -18.55289062 245.34351563 -18.77734375 244.29296875 C-19.53412562 239.93726866 -19.94692337 236.80906118 -17.671875 232.8984375 C-16.30320199 231.25602989 -14.89122691 229.6490521 -13.4453125 228.07421875 C0.79460973 211.61229523 6.97104903 188.58341334 8.8828125 167.3828125 C9.98109375 167.40859375 11.079375 167.434375 12.2109375 167.4609375 C16.23163228 167.3753908 17.75235714 166.81761112 20.8828125 164.3828125 C24.33645877 160.73880777 25.12984951 156.48956304 26.3203125 151.7578125 C27.89666533 145.76791168 29.59835515 140.01694038 32.0859375 134.328125 C33.93198611 129.82159458 34.57220202 125.22717132 33.8828125 120.3828125 C31.86778361 116.63068974 30.42815108 114.74637155 26.8828125 112.3828125 C22.27919369 112.16005675 18.38725522 112.40187985 13.8828125 113.3828125 C13.57988281 112.58359375 13.27695312 111.784375 12.96484375 110.9609375 C12.54589844 109.86265625 12.12695312 108.764375 11.6953125 107.6328125 C11.0491221 105.93425489 10.40338665 104.23551961 9.76196289 102.53515625 C9.10203775 100.9195217 8.37290931 99.33187745 7.61108398 97.76171875 C3.8184775 89.65567344 3.231821 82.75990673 3.3203125 73.8828125 C3.40197456 61.90989841 2.49641298 50.65536749 -5.41796875 41.06640625 C-13.24905786 33.30732716 -22.34260133 31.97350244 -32.9296875 31.9453125 C-33.94434082 31.94144531 -34.95899414 31.93757813 -36.00439453 31.93359375 C-42.54963449 32.03228121 -48.27031675 32.88628331 -54.4921875 34.8828125 C-66.78761172 38.82745709 -77.83711 38.71493282 -90.13671875 34.40625 C-103.23576701 29.90828061 -118.03193516 29.61523867 -130.6953125 35.6015625 C-139.30930939 40.73573283 -142.58918611 49.0223749 -145.1171875 58.3828125 C-145.98039913 62.06672071 -146.21725288 65.43471041 -146.1875 69.21484375 C-146.25107243 81.67504058 -146.50586511 92.02542178 -152.42578125 103.1484375 C-154.22266492 106.58451065 -155.17217635 109.64075829 -156.1171875 113.3828125 C-156.7771875 113.2178125 -157.4371875 113.0528125 -158.1171875 112.8828125 C-165.33528861 111.67760826 -165.33528861 111.67760826 -171.9921875 114.1328125 C-175.58196422 117.93375256 -176.67450714 121.2190641 -176.5703125 126.515625 C-175.87242861 130.9315455 -174.19682932 134.94493913 -172.53759766 139.07055664 C-170.16668293 145.00755463 -168.58870584 150.94847235 -167.171875 157.17578125 C-165.81063035 161.31497333 -163.82396257 164.18806995 -160.2421875 166.6953125 C-157.4893657 167.58593132 -154.99434129 167.42593061 -152.1171875 167.3828125 C-152.02219971 167.97070557 -151.92721191 168.55859863 -151.8293457 169.16430664 C-147.97849898 192.60076547 -141.52040167 216.97959833 -124.1171875 234.3828125 C-123.30087288 242.46746692 -123.85529159 251.91754052 -127.1171875 259.3828125 C-130.109375 261.359375 -130.109375 261.359375 -131.99731445 262.28979492 C-136.32353748 264.52041804 -140.20725673 267.52162148 -144.1796875 270.3203125 C-145.05173828 270.92810547 -145.92378906 271.53589844 -146.82226562 272.16210938 C-150.42578108 274.69084429 -153.9621234 277.18119851 -157.24609375 280.1171875 C-160.65943869 282.81071139 -163.95349202 284.18557639 -167.9921875 285.6953125 C-173.87204295 288.0074931 -179.60031775 290.47401388 -185.2421875 293.3203125 C-185.90081787 293.6503125 -186.55944824 293.9803125 -187.23803711 294.3203125 C-190.50220407 295.97789415 -193.7016256 297.70320041 -196.85546875 299.5625 C-205.52471634 304.60831767 -213.15438026 306.65816419 -223.04150391 308.05859375 C-242.07932744 311.03227402 -258.60751603 319.99443171 -271.140625 334.66796875 C-277.30080352 343.12908351 -282.14943242 352.72219144 -286.1171875 362.3828125 C-310.91542567 332.88008542 -316.57751566 281.70259979 -316.4296875 244.7578125 C-316.42753235 243.78725922 -316.4253772 242.81670593 -316.42315674 241.81674194 C-316.3721209 227.48850352 -316.02477188 213.46095468 -313.1171875 199.3828125 C-312.91851074 198.39974121 -312.71983398 197.41666992 -312.51513672 196.40380859 C-301.00847901 141.07704017 -271.10485192 88.35221551 -226.1171875 53.3828125 C-225.13492188 52.59519531 -224.15265625 51.80757813 -223.140625 50.99609375 C-203.2804225 35.19167206 -170.19636327 10.3828125 -144.1171875 10.3828125 C-143.9109375 9.7228125 -143.7046875 9.0628125 -143.4921875 8.3828125 C-137.62192672 -4.42502921 -125.83068353 -11.79263671 -113.15527344 -16.87402344 C-76.25990026 -30.32748726 -31.00780532 -23.88329653 0 0 Z " fill="#105010" transform="translate(327.1171875,22.6171875)"/>
<path d="M0 0 C10.292093 3.139676 20.75428071 2.05559702 30.8125 -1.1875 C43.25238353 -5.14132549 59.88930867 -6.65359548 72.03515625 -1.00390625 C81.07720497 4.5263486 85.97879915 11.81312856 88.79882812 22.04541016 C89.93165472 28.65309094 89.50745352 35.60654199 89.49023438 42.29101562 C89.63155328 51.04822927 91.35487878 57.4796797 95.1875 65.3125 C95.96986765 67.16182932 96.74250522 69.01534419 97.5 70.875 C97.82613281 71.66003906 98.15226563 72.44507813 98.48828125 73.25390625 C99.1875 75.3125 99.1875 75.3125 99.1875 78.3125 C99.8475 77.9825 100.5075 77.6525 101.1875 77.3125 C104.92973639 76.06508787 108.31515476 75.56228047 112.1875 76.3125 C115.26585815 78.0106712 117.43708325 80.32331428 119.5625 83.125 C121.53539978 90.03014924 119.66790375 95.55660857 117.33203125 102.09375 C116.1663101 105.37209206 115.13258318 108.66991812 114.125 112 C113.79242188 113.07636719 113.45984375 114.15273437 113.1171875 115.26171875 C112.54043627 117.15433518 111.97993532 119.05208574 111.4453125 120.95703125 C109.98607588 125.90040024 108.54756173 129.21201166 104.1875 132.3125 C100.7599728 133.24847858 97.47921742 133.95835871 94.1875 132.3125 C94.22230469 132.87195313 94.25710938 133.43140625 94.29296875 134.0078125 C94.96367497 153.8734921 85.91856643 177.23103382 73.0078125 192.37255859 C69.19448136 196.86049386 66.46187184 200.16764948 66.9375 206.375 C67.49850441 209.3703576 68.13954647 212.17717438 69.15823364 215.05192566 C70.15747944 218.39440302 70.52216367 220.82420996 70.1875 224.3125 C67.05321287 229.48534505 62.85177002 233.4042476 58.4921875 237.55078125 C57.26310791 238.76642586 56.03675429 239.9848322 54.8130188 241.20585632 C52.24917734 243.74977844 49.66415642 246.2690609 47.05957031 248.77124023 C43.71758847 251.98261448 40.41878729 255.23432052 37.13297844 258.5030489 C34.6044546 261.01470213 32.0622981 263.51213609 29.51489639 266.00462914 C28.29322462 267.20030138 27.07402208 268.39850186 25.85732651 269.59923744 C24.15809162 271.26889234 22.44323665 272.9205253 20.72216797 274.56762695 C20.21911636 275.06666031 19.71606476 275.56569366 19.19776917 276.07984924 C17.76998901 277.42549133 17.76998901 277.42549133 15.1875 279.3125 C11.96937532 279.21710954 11.26850817 278.39148362 8.92114258 276.1027832 C8.03126448 275.09070002 7.14795115 274.07282522 6.26953125 273.05078125 C0.77286834 266.87747105 -5.04797624 261.10061303 -10.98828125 255.35546875 C-12.82282374 253.56632731 -14.65680057 251.77660568 -16.49023438 249.98632812 C-19.32590388 247.21891054 -22.1657046 244.45671487 -25.0300293 241.71899414 C-27.82868703 239.03508019 -30.59786919 236.32357025 -33.36328125 233.60546875 C-34.65979362 232.38333931 -34.65979362 232.38333931 -35.98249817 231.13652039 C-41.64709792 225.50021829 -41.64709792 225.50021829 -42.12680054 222.05557251 C-41.87573242 219.9074707 -41.87573242 219.9074707 -40.8125 216.3125 C-40.41485737 214.32428687 -40.08821139 212.32125442 -39.8125 210.3125 C-39.6990625 209.49910156 -39.585625 208.68570313 -39.46875 207.84765625 C-39.01865674 202.11700453 -39.56897029 198.94681514 -43.3125 194.5 C-44.04210937 193.68402344 -44.77171875 192.86804688 -45.5234375 192.02734375 C-59.28952207 175.70067348 -64.61829181 153.92029481 -67.8125 133.3125 C-68.864375 133.23 -69.91625 133.1475 -71 133.0625 C-75.21214409 132.23388149 -76.84775894 131.35959497 -79.8125 128.3125 C-82.31940659 123.92219948 -83.61365496 119.58558459 -84.6875 114.6875 C-85.8875381 109.48434081 -87.34294426 104.75927661 -89.5625 99.875 C-91.73529922 94.9172507 -92.9774545 90.6990786 -91.8125 85.3125 C-89.82647267 81.48230443 -87.72185305 78.26717653 -83.8125 76.3125 C-78.8377466 75.9176783 -75.34544613 76.04602693 -70.8125 78.3125 C-70.7196875 77.29671875 -70.626875 76.2809375 -70.53125 75.234375 C-69.76104903 71.03175664 -68.34101761 68.30361855 -66.3125 64.5625 C-62.11340767 56.0180783 -62.03848314 47.54441313 -62.07617188 38.15722656 C-62.08347423 25.71036312 -59.82494755 12.57529332 -50.8125 3.3125 C-36.34199683 -8.45356447 -16.37090879 -5.83682656 0 0 Z " fill="#FBD1AD" transform="translate(241.8125,57.6875)"/>
<path d="M0 0 C1.299375 0.01804687 2.59875 0.03609375 3.9375 0.0546875 C40.30549137 1.54087945 75.10871751 20.35349071 101 45 C100.60167969 45.49628906 100.20335937 45.99257813 99.79296875 46.50390625 C94.16748612 53.71711633 91.08109638 59.7467894 92 69 C92.82183155 72.11107046 94.02864694 74.99105724 95.3125 77.9375 C95.65990234 78.77144287 96.00730469 79.60538574 96.36523438 80.46459961 C97.55906315 83.31759086 98.77781379 86.1590453 100 89 C101.50161243 92.51197335 103.00102273 96.02485493 104.49682617 99.53930664 C105.48881044 101.86435537 106.48753829 104.18653997 107.4934082 106.50561523 C108.17729614 108.09805054 108.17729614 108.09805054 108.875 109.72265625 C109.28492188 110.66890869 109.69484375 111.61516113 110.1171875 112.59008789 C111 115 111 115 111 118 C96.99077226 125.33420697 82.96475775 131.86379077 68 137 C67.19949219 137.27682617 66.39898437 137.55365234 65.57421875 137.83886719 C44.98618191 144.82228885 22.93987918 149.08934949 1.171875 149.203125 C0.26855438 149.21013931 -0.63476624 149.21715363 -1.56546021 149.22438049 C-4.46035819 149.24177133 -7.35505171 149.24823161 -10.25 149.25 C-11.73297577 149.25101212 -11.73297577 149.25101212 -13.24591064 149.25204468 C-27.38768499 149.23668535 -41.10976142 148.87748822 -55 146 C-55.84900879 145.83902832 -56.69801758 145.67805664 -57.57275391 145.51220703 C-79.33919939 141.36147068 -100.0810713 134.26449973 -120 124.625 C-120.63495392 124.3184549 -121.26990784 124.01190979 -121.92410278 123.69607544 C-132.7200674 118.44699389 -132.7200674 118.44699389 -136 115 C-133.77657717 109.7162673 -131.55285327 104.43266145 -129.32885742 99.14916992 C-128.57324195 97.35395688 -127.81770695 95.55870996 -127.06225586 93.76342773 C-125.97270826 91.17422595 -124.88286574 88.58514847 -123.79296875 85.99609375 C-123.45847214 85.20101913 -123.12397552 84.40594452 -122.77934265 83.58677673 C-122.45923721 82.82651688 -122.13913177 82.06625702 -121.80932617 81.28295898 C-121.50509735 80.55959854 -121.20086853 79.8362381 -120.88742065 79.09095764 C-120.03647608 77.08594565 -119.16513856 75.09073725 -118.29223633 73.09521484 C-116.04408053 67.71034441 -115.93671189 62.74485856 -118.0546875 57.27734375 C-119.29021783 54.79531684 -120.61120421 52.39882909 -122 50 C-122.67212799 48.66941134 -123.3396532 47.33647459 -124 46 C-90.83886342 11.3866922 -46.61439484 -0.97804029 0 0 Z " fill="#6292E3" transform="translate(267,363)"/>
<path d="M0 0 C-0.30744141 1.051875 -0.30744141 1.051875 -0.62109375 2.125 C-1.02521484 3.548125 -1.02521484 3.548125 -1.4375 5 C-1.72367188 6.00675781 -2.00984375 7.01351562 -2.3046875 8.05078125 C-2.90419135 10.59362063 -3.07280422 12.60629404 -3.0625 15.1875 C-4.34676038 20.41015886 -7.1267301 21.68041355 -11.3828125 24.71875 C-14.36389886 27.31718945 -15.71865575 29.73845057 -17.5 33.25 C-20.41457967 38.72255195 -22.6694878 40.37823149 -28.51171875 42.16015625 C-36.21172333 44.75905889 -42.27677249 51.43622288 -46.34506226 58.25415039 C-51.22912836 68.31617054 -50.72744453 78.38574266 -50.6640625 89.3125 C-50.66743787 91.37410772 -50.67229646 93.43571348 -50.67855835 95.49731445 C-50.68589566 99.80081278 -50.67532587 104.1037893 -50.65185547 108.40722656 C-50.62336996 113.89455208 -50.63979085 119.38065442 -50.66971779 124.86793518 C-50.68787595 129.11992433 -50.68199381 133.37162848 -50.66907883 137.62362671 C-50.66576832 139.64562122 -50.66974794 141.6676425 -50.68147659 143.68960571 C-50.73193406 154.83026545 -50.65665352 164.09645336 -45 174 C-44.41661362 175.04595337 -44.41661362 175.04595337 -43.82144165 176.11303711 C-39.5141759 183.36820227 -30.79217727 188.40260758 -23 191 C-19.37 191.66 -15.74 192.32 -12 193 C-12 202.9 -12 212.8 -12 223 C-15.465 223.103125 -18.93 223.20625 -22.5 223.3125 C-54.25796584 224.58863962 -80.47130286 236.50289991 -103 259 C-119.5601383 277.13866102 -129.89468284 301.1447693 -131.38671875 325.67578125 C-131.79990457 330.85759049 -133.26662663 334.46924074 -135.9375 338.875 C-138.22492833 342.83605657 -140.43288324 346.6842753 -142 351 C-166.79823817 321.49727292 -172.46032816 270.31978729 -172.3125 233.375 C-172.31034485 232.40444672 -172.3081897 231.43389343 -172.30596924 230.43392944 C-172.2549334 216.10569102 -171.90758438 202.07814218 -169 188 C-168.80132324 187.01692871 -168.60264648 186.03385742 -168.39794922 185.02099609 C-156.89129151 129.69422767 -126.98766442 76.96940301 -82 42 C-80.52660156 40.81857422 -80.52660156 40.81857422 -79.0234375 39.61328125 C-59.31092299 23.92638723 -37.18016858 11.53795974 -13.625 2.625 C-12.60269287 2.23747559 -11.58038574 1.84995117 -10.52709961 1.45068359 C-3.39495996 -1.13165332 -3.39495996 -1.13165332 0 0 Z " fill="#007F00" transform="translate(183,34)"/>
<path d="M0 0 C41.33978947 14.20333549 80.10982012 41.40614696 107 76 C107.78761719 76.98226562 108.57523437 77.96453125 109.38671875 78.9765625 C126.73898215 100.78181877 140.16074682 125.57960034 149 152 C149.27924316 152.83337891 149.55848633 153.66675781 149.84619141 154.52539062 C152.8413823 163.62907856 155.32754123 172.79766209 157.25 182.1875 C157.40114258 182.92170166 157.55228516 183.65590332 157.70800781 184.41235352 C160.66178491 199.81300058 161.3734956 215.04288172 161.3125 230.6875 C161.31067719 231.6586676 161.30885437 232.62983521 161.30697632 233.63043213 C161.26271428 247.6325203 160.8487177 261.24864275 158 275 C157.83902832 275.84900879 157.67805664 276.69801758 157.51220703 277.57275391 C152.69758295 302.82062409 143.70992604 326.20336528 132 349 C124.89505847 339.74051865 120.57321905 330.17295505 119.64282227 318.57177734 C118.39933757 303.55102804 113.48693745 289.98685255 106 277 C105.65453125 276.39317383 105.3090625 275.78634766 104.953125 275.16113281 C90.17236408 249.61192573 66.1801049 232.94913978 38.0871582 224.55078125 C29.55553561 222.29936698 21.10364142 221.63426771 12.3125 221.375 C8.579375 221.25125 4.84625 221.1275 1 221 C1 211.1 1 201.2 1 191 C5.29 190.01 9.58 189.02 14 188 C23.62854434 183.73280421 29.90573083 179.35469377 35 170 C35.33139984 169.43273193 35.66279968 168.86546387 36.00424194 168.28100586 C40.54367711 159.09533145 39.59731239 148.86993103 39.56640625 138.8828125 C39.57164931 136.81834637 39.57792827 134.75388263 39.58518982 132.68942261 C39.59556535 128.37405075 39.59107423 124.05900921 39.57641602 119.74365234 C39.55924441 114.24061048 39.58271905 108.7386144 39.61790562 103.23568916 C39.6399726 98.9751405 39.63841548 94.7148384 39.6301403 90.45425034 C39.62932565 88.4266635 39.63609507 86.39905767 39.65091133 84.37152481 C39.74596392 69.01000135 38.51943603 57.83509543 27.546875 46.14453125 C24.84498788 43.86947599 22.35978061 42.69455574 19.125 41.3125 C15.36132878 39.47248296 14.2480645 38.69196939 12.8125 34.6875 C12.34572455 32.05658385 11.93684147 29.46475261 11.58984375 26.8203125 C10.2801606 18.33772889 5.67817234 11.1457373 1.13671875 3.99609375 C0 2 0 2 0 0 Z " fill="#007F00" transform="translate(340,36)"/>
<path d="M0 0 C1.37491299 1.50787161 2.67364462 3.08539761 3.9375 4.6875 C4.74058594 5.69167969 5.54367188 6.69585937 6.37109375 7.73046875 C6.79890137 8.26591309 7.22670898 8.80135742 7.66748047 9.35302734 C9.8973275 12.10908233 12.20011332 14.80237342 14.5 17.5 C17.83674555 21.42345137 21.13272678 25.37263343 24.375 29.375 C28.09371671 33.93948982 31.90136412 38.42010924 35.75 42.875 C36.56476807 43.82125244 36.56476807 43.82125244 37.39599609 44.78662109 C43.36172328 52.55661404 43.36172328 52.55661404 51.796875 56.26171875 C55.58236199 55.95241676 57.1685054 54.9974779 60.25 52.8125 C61.78140625 51.73935547 61.78140625 51.73935547 63.34375 50.64453125 C64.56328238 49.76410354 65.78194699 48.88247325 67 48 C68.59353095 46.85776726 70.18729548 45.71586034 71.78125 44.57421875 C76.20037559 41.40041212 80.60445619 38.20636863 85 35 C85 39.14210541 82.75725518 41.12380781 80.25 44.1875 C76.47816148 48.92048923 73.4117586 53.40910507 71 59 C71.66 59.33 72.32 59.66 73 60 C72.02804688 60.07476562 71.05609375 60.14953125 70.0546875 60.2265625 C33.39828399 63.52238368 1.56449094 80.17449379 -25 105 C-23.96459601 107.11919135 -22.89310591 109.18463525 -21.7109375 111.2265625 C-21.27007812 112.01804687 -20.82921875 112.80953125 -20.375 113.625 C-19.92898437 114.40101563 -19.48296875 115.17703125 -19.0234375 115.9765625 C-16.12088719 124.55127219 -18.61550503 131.87405643 -22.15625 139.8203125 C-22.78883728 141.29732132 -22.78883728 141.29732132 -23.4342041 142.8041687 C-24.7726806 145.91868628 -26.13579206 149.02167992 -27.5 152.125 C-28.41701977 154.24668121 -29.33240135 156.36907125 -30.24609375 158.4921875 C-32.4785175 163.66980613 -34.73121594 168.83821869 -37 174 C-41.00777797 173.13151316 -44.03981336 171.28794022 -47.4375 169.0625 C-48.05439697 168.66063477 -48.67129395 168.25876953 -49.30688477 167.84472656 C-69.85503448 154.27365897 -88.85915647 137.42851603 -104 118 C-104.80050781 116.99324219 -105.60101563 115.98648438 -106.42578125 114.94921875 C-112.31087449 107.48948406 -117.80106418 99.77394469 -122.88964844 91.74707031 C-123.64094334 90.56495371 -124.41597995 89.39765031 -125.21191406 88.24511719 C-127.1931051 85.19778394 -128 83.23518195 -128 79.578125 C-126.80347262 75.29680046 -125.12028222 71.64286116 -123 67.75 C-122.59773193 67.00492187 -122.19546387 66.25984375 -121.78100586 65.4921875 C-111.63840251 47.22562553 -96.05196306 34.03066558 -76 28 C-71.74391884 27.03987729 -67.45179071 26.33629218 -63.140625 25.67578125 C-61.76035305 25.45091099 -60.38014512 25.2256474 -59 25 C-58.31276855 24.90332031 -57.62553711 24.80664062 -56.91748047 24.70703125 C-49.72294253 23.45778749 -43.91322298 19.94813935 -37.625 16.375 C-8.09207997 0 -8.09207997 0 0 0 Z " fill="#6392E3" transform="translate(169,304)"/>
<path d="M0 0 C-1.8125 1.20833333 -3.625 2.41666667 -5.4375 3.625 C-13.13601 10.76020439 -14.67097912 22.21546752 -15.15820312 32.26220703 C-15.30465481 37.1503648 -15.43447628 42.03424536 -15.44604492 46.92480469 C-15.55475514 54.52921671 -16.77681045 60.14261016 -20 67 C-25.66137014 83.24475237 -22.73534453 100.45015362 -20.99224854 117.16059875 C-20.88780426 118.16198128 -20.88780426 118.16198128 -20.78125 119.18359375 C-20.71178162 119.84912766 -20.64231323 120.51466156 -20.57073975 121.20036316 C-20.04325056 126.34860223 -19.66980749 131.49787433 -19.32910156 136.66113281 C-17.28199741 166.38821939 -7.23569149 196.3415459 14 218 C19.9328202 222.99513666 25.67768559 227.30155682 33.6953125 226.7421875 C38.13319779 226.12915844 41.77771713 224.6473966 45.75 222.625 C46.78217651 222.10631348 46.78217651 222.10631348 47.83520508 221.57714844 C53.89320046 218.36662857 58.59793873 214.31887254 63.44921875 209.515625 C65.85006071 207.14787274 68.33203168 205.05746025 71 203 C71.70174756 206.24709194 72.38388069 209.49800252 73.0625 212.75 C73.36124023 214.13058594 73.36124023 214.13058594 73.66601562 215.5390625 C73.84970703 216.42851562 74.03339844 217.31796875 74.22265625 218.234375 C74.48187866 219.45979004 74.48187866 219.45979004 74.74633789 220.70996094 C75.03478496 223.31403549 74.92726546 224.54302649 74 227 C72.38049703 228.91751116 70.76661434 230.66380725 68.99291992 232.42700195 C68.47250626 232.95588516 67.95209259 233.48476837 67.41590881 234.02967834 C65.69519689 235.77377097 63.96352211 237.50645718 62.23046875 239.23828125 C61.03049055 240.4453585 59.83081299 241.65273468 58.63142395 242.86039734 C56.11712179 245.38814544 53.59695807 247.90987537 51.07299805 250.42797852 C47.83434045 253.66072894 44.61433268 256.91138185 41.3988905 260.16720295 C38.92742175 262.66447285 36.4446236 265.15023134 33.95839882 267.63280296 C32.76589246 268.82700655 31.57738354 270.02521544 30.3929348 271.22741127 C28.7386622 272.90373125 27.06939263 274.56351396 25.39526367 276.2199707 C24.66178207 276.97334717 24.66178207 276.97334717 23.91348267 277.74194336 C22.52433777 279.09712219 22.52433777 279.09712219 20 281 C16.78649601 280.90758451 16.07672923 280.07481162 13.73364258 277.7902832 C12.84376448 276.77820002 11.96045115 275.76032522 11.08203125 274.73828125 C5.58536834 268.56497105 -0.23547624 262.78811303 -6.17578125 257.04296875 C-8.01032374 255.25382731 -9.84430057 253.46410568 -11.67773438 251.67382812 C-14.51340388 248.90641054 -17.3532046 246.14421487 -20.2175293 243.40649414 C-23.01618703 240.72258019 -25.78536919 238.01107025 -28.55078125 235.29296875 C-29.84729362 234.07083931 -29.84729362 234.07083931 -31.16999817 232.82402039 C-36.83459792 227.18771829 -36.83459792 227.18771829 -37.31430054 223.74307251 C-37.06323242 221.5949707 -37.06323242 221.5949707 -36 218 C-35.60235737 216.01178687 -35.27571139 214.00875442 -35 212 C-34.8865625 211.18660156 -34.773125 210.37320313 -34.65625 209.53515625 C-34.20615674 203.80450453 -34.75647029 200.63431514 -38.5 196.1875 C-39.22960937 195.37152344 -39.95921875 194.55554688 -40.7109375 193.71484375 C-54.47702207 177.38817348 -59.80579181 155.60779481 -63 135 C-64.051875 134.9175 -65.10375 134.835 -66.1875 134.75 C-70.39964409 133.92138149 -72.03525894 133.04709497 -75 130 C-77.50690659 125.60969948 -78.80115496 121.27308459 -79.875 116.375 C-81.0750381 111.17184081 -82.53044426 106.44677661 -84.75 101.5625 C-86.92279922 96.6047507 -88.1649545 92.3865786 -87 87 C-85.01397267 83.16980443 -82.90935305 79.95467653 -79 78 C-74.0252466 77.6051783 -70.53294613 77.73352693 -66 80 C-65.9071875 78.98421875 -65.814375 77.9684375 -65.71875 76.921875 C-64.94854903 72.71925664 -63.52851761 69.99111855 -61.5 66.25 C-57.30090767 57.7055783 -57.22598314 49.23191313 -57.26367188 39.84472656 C-57.27097423 27.39786312 -55.01244755 14.26279332 -46 5 C-32.61161542 -5.88618649 -15.60291949 -3.87764863 0 0 Z " fill="#F8BC90" transform="translate(237,56)"/>
<path d="M0 0 C12.51368575 5.33370212 18.6724575 12.55677789 24 25 C25.30909015 28.92727044 25.17233031 32.68371615 25.19287109 36.77905273 C25.20513733 38.12605003 25.20513733 38.12605003 25.21765137 39.5002594 C25.24249919 42.47803079 25.25902549 45.4557543 25.2734375 48.43359375 C25.27876118 49.45292559 25.28408485 50.47225742 25.28956985 51.5224781 C25.31630679 56.92440158 25.33567452 62.32630197 25.35009766 67.72827148 C25.36340261 72.18518758 25.391191 76.64164212 25.43212891 81.09838867 C25.48165127 86.49005211 25.50624363 91.88129887 25.51332474 97.27318001 C25.52000744 99.32033904 25.53515098 101.36748987 25.55921555 103.41451836 C25.71855284 117.79628352 24.6992096 129.46078744 15.07421875 140.96484375 C6.93574398 148.95005158 -2.70665292 153 -14 153 C-14 162.9 -14 172.8 -14 183 C-10.349375 182.938125 -6.69875 182.87625 -2.9375 182.8125 C27.51199093 182.68974454 53.99358432 195.36534634 75.61279297 216.59423828 C93.18180674 234.39824766 106.14268637 260.86148395 106.25 286.1875 C106.1675 287.445625 106.085 288.70375 106 290 C105.42121094 289.27296875 104.84242188 288.5459375 104.24609375 287.796875 C90.18199367 270.28401299 74.25803009 260.81035171 52 257 C51.13052734 256.90912109 50.26105469 256.81824219 49.36523438 256.72460938 C40.67415083 255.65467348 34.26893052 252.34654965 26.75 248 C24.30542548 246.62358352 21.85092336 245.26605895 19.390625 243.91796875 C18.77646729 243.58129684 18.16230957 243.24462494 17.52954102 242.89775085 C10.42335322 239.0616739 2.99684656 236.03949736 -4.53613281 233.14648438 C-5.46264648 232.78490234 -6.38916016 232.42332031 -7.34375 232.05078125 C-8.55321289 231.59699097 -8.55321289 231.59699097 -9.78710938 231.1340332 C-12.39573387 229.79719949 -13.98984271 228.11783065 -16 226 C-17.1425726 225.11590633 -18.31058655 224.26351714 -19.50390625 223.44921875 C-20.15721924 223.00199463 -20.81053223 222.55477051 -21.48364258 222.09399414 C-22.512677 221.39777954 -22.512677 221.39777954 -23.5625 220.6875 C-24.26979248 220.19822021 -24.97708496 219.70894043 -25.70581055 219.20483398 C-29.80011079 216.39438302 -33.94467618 213.93327068 -38.3125 211.5625 C-42.41940836 208.97644076 -43.84365659 207.00063798 -45.125 202.3125 C-45.45765395 200.21442275 -45.74894289 198.10939734 -46 196 C-46.21785156 194.98035156 -46.43570312 193.96070313 -46.66015625 192.91015625 C-47.41693812 188.55445616 -47.82973587 185.42624868 -45.5546875 181.515625 C-44.18601449 179.87321739 -42.77403941 178.2662396 -41.328125 176.69140625 C-27.08820277 160.22948273 -20.91176347 137.20060084 -19 116 C-17.90171875 116.02578125 -16.8034375 116.0515625 -15.671875 116.078125 C-11.65118022 115.9925783 -10.13045536 115.43479862 -7 113 C-3.54635373 109.35599527 -2.75296299 105.10675054 -1.5625 100.375 C0.01385283 94.38509918 1.71554265 88.63412788 4.203125 82.9453125 C6.053348 78.42859165 6.66425159 73.85558557 6 69 C3.52183123 63.94834828 0.98724152 62.32965666 -4 60 C-4.44536662 49.08027029 -3.49062874 38.59118379 -2.14404297 27.75878906 C-1.00878866 18.51167589 -0.34871307 9.30703148 0 0 Z " fill="#105010" transform="translate(355,74)"/>
<path d="M0 0 C1.299375 0.01804687 2.59875 0.03609375 3.9375 0.0546875 C40.30549137 1.54087945 75.10871751 20.35349071 101 45 C100.60167969 45.49628906 100.20335937 45.99257813 99.79296875 46.50390625 C94.16748612 53.71711633 91.08109638 59.7467894 92 69 C92.82183155 72.11107046 94.02864694 74.99105724 95.3125 77.9375 C95.65990234 78.77144287 96.00730469 79.60538574 96.36523438 80.46459961 C97.55906315 83.31759086 98.77781379 86.1590453 100 89 C101.50161243 92.51197335 103.00102273 96.02485493 104.49682617 99.53930664 C105.48881044 101.86435537 106.48753829 104.18653997 107.4934082 106.50561523 C108.17729614 108.09805054 108.17729614 108.09805054 108.875 109.72265625 C109.28492188 110.66890869 109.69484375 111.61516113 110.1171875 112.59008789 C111 115 111 115 111 118 C108.42362412 119.36907416 105.84031896 120.72028455 103.25 122.0625 C102.52039063 122.45244141 101.79078125 122.84238281 101.0390625 123.24414062 C100.33007812 123.60830078 99.62109375 123.97246094 98.890625 124.34765625 C98.24125977 124.68804932 97.59189453 125.02844238 96.92285156 125.37915039 C94.54390825 126.14726274 93.32475727 125.84299383 91 125 C86.34702585 121.92803642 82.69488582 118.38375497 81 113 C80.63935806 107.87616258 80.36453062 102.90640814 82 98 C83.05441481 90.63415939 81.13566997 85.08628075 77 79 C60.10569992 58.52883488 30.88547302 44.22383546 4.76171875 41.21875 C-33.07492781 39.0184881 -64.89631315 48.33100878 -93.671875 73.3203125 C-99.21069555 78.51521936 -103.42888332 83.70877194 -104.265625 91.4609375 C-104.33395482 94.97992316 -104.11995662 97.64013013 -103 101 C-102.28187599 107.92476723 -102.26620415 113.57731804 -106.5078125 119.3046875 C-108.89416599 122.01588492 -110.93679052 124.02167721 -114 126 C-119.0798119 125.77711977 -123.45314351 122.82363561 -127.8125 120.4375 C-128.99489258 119.80038086 -128.99489258 119.80038086 -130.20117188 119.15039062 C-132.1373378 118.10603446 -134.07005367 117.0557923 -136 116 C-133.35169644 108.85568531 -130.53391266 101.82807659 -127.44921875 94.86328125 C-126.82731767 93.44733426 -126.20557443 92.03131793 -125.58398438 90.61523438 C-124.63385 88.45239288 -123.67853354 86.29263182 -122.70678711 84.1394043 C-116.65136318 71.00033957 -116.65136318 71.00033957 -118.0234375 56.9765625 C-118.46945313 56.20054687 -118.91546875 55.42453125 -119.375 54.625 C-119.81585938 53.83351563 -120.25671875 53.04203125 -120.7109375 52.2265625 C-121.34902344 51.12441406 -121.34902344 51.12441406 -122 50 C-122.67212799 48.66941134 -123.3396532 47.33647459 -124 46 C-90.83886342 11.3866922 -46.61439484 -0.97804029 0 0 Z " fill="#494970" transform="translate(267,363)"/>
<path d="M0 0 C16.47210607 12.81636124 27.4394856 29.67905815 30.59375 50.63671875 C31.86470201 64.42301767 30.31272087 77.78419093 28.609375 91.46875 C27.70197046 98.8634198 27.20099336 106.24585847 26.875 113.6875 C23.575 114.3475 20.275 115.0075 16.875 115.6875 C16.57207031 114.88828125 16.26914062 114.0890625 15.95703125 113.265625 C15.53808594 112.16734375 15.11914062 111.0690625 14.6875 109.9375 C14.0413096 108.23894239 13.39557415 106.54020711 12.75415039 104.83984375 C12.09422525 103.2242092 11.36509681 101.63656495 10.60327148 100.06640625 C6.810665 91.96036094 6.2240085 85.06459423 6.3125 76.1875 C6.39416206 64.21458591 5.48860048 52.96005499 -2.42578125 43.37109375 C-10.25687036 35.61201466 -19.35041383 34.27818994 -29.9375 34.25 C-30.95215332 34.24613281 -31.96680664 34.24226563 -33.01220703 34.23828125 C-39.55744699 34.33696871 -45.27812925 35.19097081 -51.5 37.1875 C-63.79542422 41.13214459 -74.8449225 41.01962032 -87.14453125 36.7109375 C-100.24357951 32.21296811 -115.03974766 31.91992617 -127.703125 37.90625 C-136.31712189 43.04042033 -139.59699861 51.3270624 -142.125 60.6875 C-142.98821163 64.37140821 -143.22506538 67.73939791 -143.1953125 71.51953125 C-143.25888493 83.97972808 -143.51367761 94.33010928 -149.43359375 105.453125 C-151.23047742 108.88919815 -152.17998885 111.94544579 -153.125 115.6875 C-155.88776177 115.16481534 -158.4510876 114.57880413 -161.125 113.6875 C-167.53092713 93.30500459 -168.419441 66.47136576 -159.83984375 46.73046875 C-157.32071613 42.05008402 -154.91475801 39.40439591 -150.4375 36.5625 C-146.58002449 33.85323626 -145.5046772 31.58324819 -144.63623047 26.94970703 C-144.31442052 24.8251789 -144.01209878 22.69894622 -143.71875 20.5703125 C-141.97400126 9.16057403 -135.09159121 0.49746999 -126.07421875 -6.36328125 C-89.91504606 -30.26186029 -34.19101337 -24.8035563 0 0 Z " fill="#49496F" transform="translate(324.125,20.3125)"/>
<path d="M0 0 C2.3966217 1.90887451 2.3966217 1.90887451 4.91040039 4.44042969 C5.37287674 4.90071564 5.83535309 5.36100159 6.31184387 5.8352356 C7.83358951 7.35467565 9.34058048 8.88789454 10.84765625 10.421875 C11.90629493 11.48544084 12.96575099 12.54819366 14.02598572 13.61016846 C16.24519268 15.83701056 18.45778554 18.0701443 20.6652832 20.30859375 C23.48675982 23.16957205 26.31883343 26.01974348 29.15526676 28.86588669 C31.86875656 31.58938424 34.5772981 34.31777974 37.28515625 37.046875 C37.79842028 37.56353477 38.3116843 38.08019455 38.84050179 38.61251068 C40.30269536 40.08636793 41.76138949 41.56359806 43.21899414 43.04199219 C44.04774551 43.88058777 44.87649689 44.71918335 45.73036194 45.58319092 C47.9635217 47.96115633 49.99962481 50.42469794 52 53 C56.30790581 52.51618644 58.3048493 50.0197113 61.23999023 47.00537109 C61.74948212 46.48667953 62.258974 45.96798798 62.78390503 45.43357849 C63.8876946 44.30835308 64.98809626 43.1797965 66.08547783 42.04832077 C67.82231574 40.25930326 69.56959547 38.48113536 71.32032776 36.70571899 C76.29554056 31.65713746 81.25369533 26.59204939 86.19848633 21.51367188 C89.22485501 18.40705192 92.26559745 15.31512171 95.31572151 12.2318306 C96.47566451 11.05323873 97.6298802 9.86898208 98.77822685 8.67908859 C100.38227774 7.01751649 102.00385775 5.37514289 103.63061523 3.73583984 C104.54898666 2.79509613 105.46735809 1.85435242 106.41355896 0.88510132 C109 -1 109 -1 111.7124939 -0.86499023 C114.05723613 0.02164309 115.83089985 1.00314808 117.85546875 2.4765625 C118.55615479 2.97961914 119.25684082 3.48267578 119.97875977 4.00097656 C120.70764404 4.5369043 121.43652832 5.07283203 122.1875 5.625 C123.70042967 6.71627223 125.21345021 7.80741849 126.7265625 8.8984375 C127.45649414 9.42920898 128.18642578 9.95998047 128.93847656 10.50683594 C131.62520575 12.45283733 134.34000197 14.35439249 137.0625 16.25 C138.22458984 17.06210937 138.22458984 17.06210937 139.41015625 17.890625 C139.93480469 18.25671875 140.45945312 18.6228125 141 19 C140.52879861 23.6951853 138.73535286 25.77980492 135.5 29.125 C134.57976017 30.0968128 133.66184134 31.07082796 132.74609375 32.046875 C132.28315918 32.53865234 131.82022461 33.03042969 131.34326172 33.53710938 C128.52737295 36.60377704 125.9624246 39.87985526 123.34765625 43.1171875 C120.77184732 46.28016086 118.14293611 49.39316615 115.5 52.5 C112.00296184 56.61513067 108.54148526 60.75485941 105.125 64.9375 C104.40183594 65.82179688 103.67867187 66.70609375 102.93359375 67.6171875 C101.76962153 69.05157751 100.61340721 70.49238673 99.47265625 71.9453125 C96.31493412 75.9188595 94.25364535 77.64146551 89.25 78.4375 C84.69309903 77.82407102 81.71199104 75.58020725 78 73 C77.36835938 74.14597656 76.73671875 75.29195313 76.0859375 76.47265625 C73.55988016 79.41972315 72.21385929 79.96645511 68.31738281 80.57763672 C63.74872873 80.77941421 59.19200015 80.61014694 54.625 80.4375 C53.01439033 80.40236001 51.40370732 80.37042568 49.79296875 80.34179688 C45.86016083 80.26493275 41.93088755 80.14430804 38 80 C38.54378838 76.28565566 39.41824743 74.00099649 41.72265625 71.046875 C42.26083984 70.345625 42.79902344 69.644375 43.35351562 68.921875 C44.19946289 67.84679687 44.19946289 67.84679687 45.0625 66.75 C46.18024438 65.30873143 47.2962322 63.86609826 48.41015625 62.421875 C48.90652588 61.78862305 49.40289551 61.15537109 49.91430664 60.50292969 C51.09759618 59.17390673 51.09759618 59.17390673 51 58 C50.54786133 58.32162109 50.09572266 58.64324219 49.62988281 58.97460938 C45.16714231 62.14580156 40.69301259 65.30025193 36.21044922 68.44335938 C34.26884311 69.81067554 32.3383802 71.1920586 30.41015625 72.578125 C29.38792969 73.29484375 28.36570313 74.0115625 27.3125 74.75 C25.97638672 75.70132813 25.97638672 75.70132813 24.61328125 76.671875 C21.37804045 78.31609304 19.58957264 78.53451916 16 78 C11.25898883 75.47430085 8.02272519 72.06467312 4.6875 67.9375 C4.2116748 67.36241699 3.73584961 66.78733398 3.24560547 66.19482422 C1.82173972 64.47009483 0.40909131 62.73681063 -1 61 C-2.45819192 59.20821824 -3.91651638 57.41654433 -5.375 55.625 C-6.09429687 54.74070312 -6.81359375 53.85640625 -7.5546875 52.9453125 C-10.48419789 49.41679679 -13.48742194 45.95756871 -16.5 42.5 C-18.66890667 40.00193505 -20.83493717 37.50139649 -23 35 C-23.71446289 34.17773926 -23.71446289 34.17773926 -24.44335938 33.33886719 C-25.7223686 31.85960905 -26.9866649 30.36766663 -28.25 28.875 C-28.95640625 28.04742187 -29.6628125 27.21984375 -30.390625 26.3671875 C-32.12037421 23.82294472 -32.49164496 21.99357729 -33 19 C-28.55623075 15.78011947 -24.1085569 12.56592375 -19.65234375 9.36328125 C-16.99613142 7.45198062 -14.35607995 5.52715811 -11.75390625 3.54296875 C-10.90699219 2.91003906 -10.06007812 2.27710938 -9.1875 1.625 C-8.47980469 1.08101563 -7.77210938 0.53703125 -7.04296875 -0.0234375 C-4.22621954 -1.36987593 -2.96329366 -0.92747539 0 0 Z " fill="#9FCAF8" transform="translate(202,283)"/>
<path d="M0 0 C4.45995079 2.78286186 8.29212474 6.79244917 9.58203125 11.9375 C9.73478516 13.04738281 9.73478516 13.04738281 9.890625 14.1796875 C10.674375 13.8496875 11.458125 13.5196875 12.265625 13.1796875 C20.251004 10.97682433 26.20460931 11.77651262 33.56640625 15.5 C40.1989661 20.29327855 42.89319923 26.94239546 46.078125 34.2421875 C46.73458008 35.71268555 46.73458008 35.71268555 47.40429688 37.21289062 C52.91122474 49.59717268 52.91122474 49.59717268 52.8203125 52.16796875 C48.79996765 60.86745446 37.22584545 68.45419124 29.890625 74.1796875 C29.26381836 74.67758789 28.63701172 75.17548828 27.99121094 75.68847656 C18.3678491 83.32745066 8.59836261 90.14781784 -2.109375 96.1796875 C-4.11063499 94.17842751 -4.78157642 92.93358603 -5.86523438 90.37597656 C-6.19898071 89.5946637 -6.53272705 88.81335083 -6.87658691 88.00836182 C-7.40947327 86.7396524 -7.40947327 86.7396524 -7.953125 85.4453125 C-8.32288452 84.57453064 -8.69264404 83.70374878 -9.0736084 82.80657959 C-9.8558997 80.96154593 -10.63582531 79.11550772 -11.41357422 77.26855469 C-12.59967008 74.45272727 -13.79332171 71.64020066 -14.98828125 68.828125 C-15.74784683 67.03404504 -16.50697555 65.23978005 -17.265625 63.4453125 C-17.62088257 62.60760315 -17.97614014 61.7698938 -18.34216309 60.90679932 C-25.16367971 44.67965866 -25.16367971 44.67965866 -22.12890625 36.5546875 C-19.90797299 31.96248087 -17.37162715 28.11111958 -14.109375 24.1796875 C-20.2092177 18.50593675 -26.28871467 12.98737358 -33.109375 8.1796875 C-32.109375 5.1796875 -32.109375 5.1796875 -28.86328125 3.35546875 C-27.47407014 2.71684733 -26.07628459 2.09665298 -24.671875 1.4921875 C-23.94484375 1.17910645 -23.2178125 0.86602539 -22.46875 0.54345703 C-14.78208792 -2.59844903 -7.80281147 -3.33046831 0 0 Z " fill="#F6BC90" transform="translate(381.109375,383.8203125)"/>
<path d="M0 0 C1.68356216 0.97128586 3.35777873 1.96034281 5 3 C3.8343937 6.49681891 2.91071455 7.06005065 0 9.1875 C-4.90718999 12.87380003 -9.4632756 16.87083004 -14 21 C-12.96459601 23.11919135 -11.89310591 25.18463525 -10.7109375 27.2265625 C-10.04964844 28.41378906 -10.04964844 28.41378906 -9.375 29.625 C-8.92898437 30.40101563 -8.48296875 31.17703125 -8.0234375 31.9765625 C-5.12088719 40.55127219 -7.61550503 47.87405643 -11.15625 55.8203125 C-11.78883728 57.29732132 -11.78883728 57.29732132 -12.4342041 58.8041687 C-13.7726806 61.91868628 -15.13579206 65.02167992 -16.5 68.125 C-17.41701977 70.24668121 -18.33240135 72.36907125 -19.24609375 74.4921875 C-21.4785175 79.66980613 -23.73121594 84.83821869 -26 90 C-30.00777797 89.13151316 -33.03981336 87.28794022 -36.4375 85.0625 C-37.05439697 84.66063477 -37.67129395 84.25876953 -38.30688477 83.84472656 C-50.33595506 75.90010243 -61.29771819 66.63055261 -72 57 C-72.54479004 56.51402344 -73.08958008 56.02804687 -73.65087891 55.52734375 C-75.11863775 54.20465677 -76.56027121 52.85314371 -78 51.5 C-78.804375 50.7471875 -79.60875 49.994375 -80.4375 49.21875 C-82 47 -82 47 -81.71801758 44.66577148 C-80.49156348 40.11233651 -78.55419081 35.88426257 -76.6875 31.5625 C-76.29626953 30.63373047 -75.90503906 29.70496094 -75.50195312 28.74804688 C-72.63098612 22.05864615 -70.02377552 16.03819021 -63.9375 11.6875 C-63.26589844 11.19636719 -62.59429687 10.70523437 -61.90234375 10.19921875 C-57.02688448 7.12577728 -51.557042 7.65961139 -46 8 C-42.3125 9 -42.3125 9 -40 10 C-39.773125 9.13375 -39.54625 8.2675 -39.3125 7.375 C-37.10440248 1.69703495 -33.54435568 -2.5166997 -28.0546875 -5.296875 C-18.16649667 -8.68066654 -8.86363672 -4.20664514 0 0 Z " fill="#F7BC92" transform="translate(158,388)"/>
<path d="M0 0 C3.88582195 2.7776431 7.30422094 6.00224055 10.546875 9.5078125 C11.371875 10.3946875 12.196875 11.2815625 13.046875 12.1953125 C18.64422363 19.11279053 23.546875 29.46076312 23.546875 38.5078125 C20.75588543 38.99121919 17.96417844 39.46960312 15.171875 39.9453125 C14.39714844 40.08001953 13.62242187 40.21472656 12.82421875 40.35351562 C3.79774197 41.88279475 -5.12742028 42.66331667 -14.28125 42.7109375 C-15.18529572 42.71777054 -16.08934143 42.72460358 -17.02078247 42.73164368 C-19.91493523 42.7485848 -22.80892565 42.75496157 -25.703125 42.7578125 C-26.68645813 42.75981659 -27.66979126 42.76182068 -28.68292236 42.7638855 C-42.85931893 42.77098137 -56.50473657 42.23807514 -70.453125 39.5078125 C-72.4524047 39.1701858 -74.45210442 38.83496348 -76.453125 38.5078125 C-75.31105805 27.08714299 -70.35983085 14.19417215 -61.453125 6.5078125 C-43.39917838 -7.74917113 -20.69790442 -12.59012658 0 0 Z " fill="#494971" transform="translate(282.453125,469.4921875)"/>
<path d="M0 0 C-2.16122979 2.24177251 -4.45204204 4.17343464 -6.875 6.125 C-12.9924243 11.43127411 -16.61025805 17.9844684 -17.23828125 26.06640625 C-17.48224337 37.55830609 -15.19790896 46.0026138 -8 55 C-9.19882813 54.89171875 -9.19882813 54.89171875 -10.421875 54.78125 C-32.30429161 52.84414382 -32.30429161 52.84414382 -52.09765625 61.20703125 C-59.03478012 67.74530611 -62.77741442 79.40489318 -63.09423828 88.79223633 C-63.08239502 90.29693481 -63.08239502 90.29693481 -63.0703125 91.83203125 C-63.13388493 104.29222808 -63.38867761 114.64260928 -69.30859375 125.765625 C-71.10547742 129.20169815 -72.05498885 132.25794579 -73 136 C-75.76276177 135.47731534 -78.3260876 134.89130413 -81 134 C-87.40592713 113.61750459 -88.294441 86.78386576 -79.71484375 67.04296875 C-77.19571613 62.36258402 -74.78975801 59.71689591 -70.3125 56.875 C-66.45502449 54.16573626 -65.3796772 51.89574819 -64.51123047 47.26220703 C-64.18942052 45.1376789 -63.88709878 43.01144622 -63.59375 40.8828125 C-61.84900126 29.47307403 -54.96659121 20.80996999 -45.94921875 13.94921875 C-32.84556348 5.28865719 -15.78036922 -0.47819301 0 0 Z " fill="#3A3A5F" transform="translate(244,0)"/>
<path d="M0 0 C-0.99 0 -1.98 0 -3 0 C-3.26554687 0.56074219 -3.53109375 1.12148438 -3.8046875 1.69921875 C-5.09897231 4.19050552 -6.57769428 6.46995111 -8.125 8.8125 C-24.38288923 34.26403968 -33.11665688 62.62485325 -35.12304688 92.72070312 C-35.19458984 93.60564453 -35.26613281 94.49058594 -35.33984375 95.40234375 C-35.39519287 96.19116943 -35.45054199 96.97999512 -35.50756836 97.79272461 C-36.10057432 100.4508143 -37.25001389 101.9454138 -39 104 C-50.23487719 91.40884033 -60.35473496 78.08420263 -69.375 63.8125 C-69.76260498 63.2254126 -70.15020996 62.6383252 -70.54956055 62.03344727 C-72.36627799 59.0509493 -73.00068138 57.09914009 -72.9765625 53.58984375 C-71.80693329 49.29028678 -70.12468908 45.65095221 -68 41.75 C-67.3965979 40.63238281 -67.3965979 40.63238281 -66.78100586 39.4921875 C-56.62752606 21.20603732 -41.05390626 8.06330713 -21 2 C-17.99445518 1.28031501 -14.97804658 0.67685222 -11.9375 0.125 C-10.84779907 -0.07355591 -10.84779907 -0.07355591 -9.73608398 -0.27612305 C-6.2524752 -0.84631654 -3.35305024 -1.27154633 0 0 Z " fill="#5C80D2" transform="translate(114,330)"/>
<path d="M0 0 C1.58874634 2.32506917 3.05722459 4.64848232 4.5 7.0625 C8.46024958 13.56281719 12.56424661 19.93160611 16.86328125 26.21313477 C18.61763298 28.80158676 20.00528403 31.01585208 21 34 C20.09378906 34.68964844 19.18757813 35.37929688 18.25390625 36.08984375 C2.93378294 47.06417305 2.93378294 47.06417305 -6 63 C-6.46409626 67.29971536 -6.37055408 70.88833777 -5 75 C-4.28187599 81.92476723 -4.26620415 87.57731804 -8.5078125 93.3046875 C-10.89416599 96.01588492 -12.93679052 98.02167721 -16 100 C-21.0798119 99.77711977 -25.45314351 96.82363561 -29.8125 94.4375 C-30.99489258 93.80038086 -30.99489258 93.80038086 -32.20117188 93.15039062 C-34.1373378 92.10603446 -36.07005367 91.0557923 -38 90 C-35.35169644 82.85568531 -32.53391266 75.82807659 -29.44921875 68.86328125 C-28.82731767 67.44733426 -28.20557443 66.03131793 -27.58398438 64.61523438 C-26.63385 62.45239288 -25.67853354 60.29263182 -24.70678711 58.1394043 C-18.65136318 45.00033957 -18.65136318 45.00033957 -20.0234375 30.9765625 C-20.46945313 30.20054687 -20.91546875 29.42453125 -21.375 28.625 C-21.81585938 27.83351563 -22.25671875 27.04203125 -22.7109375 26.2265625 C-23.13632813 25.49179687 -23.56171875 24.75703125 -24 24 C-24.67212799 22.66941134 -25.3396532 21.33647459 -26 20 C-21.08983338 14.82484337 -15.87533637 10.359209 -10.1875 6.0625 C-9.42501953 5.47404297 -8.66253906 4.88558594 -7.87695312 4.27929688 C-2.25571646 0 -2.25571646 0 0 0 Z " fill="#115112" transform="translate(169,389)"/>
<path d="M0 0 C5.22307249 1.58429792 8.92795348 4.89799366 13.0625 8.3125 C13.76955078 8.88162109 14.47660156 9.45074219 15.20507812 10.03710938 C18.93654452 13.08885326 22.1561442 16.06292171 25 20 C24.60167969 20.42410156 24.20335937 20.84820312 23.79296875 21.28515625 C18.42747048 27.22506309 15.63717596 32.47775402 15.75878906 40.57324219 C16.16728097 44.6829685 17.67413654 48.17745586 19.3125 51.9375 C19.65990234 52.77144287 20.00730469 53.60538574 20.36523438 54.46459961 C21.55906315 57.31759086 22.77781379 60.1590453 24 63 C25.50161243 66.51197335 27.00102273 70.02485493 28.49682617 73.53930664 C29.48881044 75.86435537 30.48753829 78.18653997 31.4934082 80.50561523 C31.9493335 81.56723877 32.40525879 82.6288623 32.875 83.72265625 C33.28492188 84.66890869 33.69484375 85.61516113 34.1171875 86.59008789 C35 89 35 89 35 92 C32.42362412 93.36907416 29.84031896 94.72028455 27.25 96.0625 C26.15558594 96.64741211 26.15558594 96.64741211 25.0390625 97.24414062 C24.33007812 97.60830078 23.62109375 97.97246094 22.890625 98.34765625 C22.24125977 98.68804932 21.59189453 99.02844238 20.92285156 99.37915039 C18.54390825 100.14726274 17.32475727 99.84299383 15 99 C10.34702585 95.92803642 6.69488582 92.38375497 5 87 C4.63935806 81.87616258 4.36453062 76.90640814 6 72 C7.0535687 64.64007011 5.14219923 59.07771896 1 53 C-5.34226267 45.46349043 -13.02218003 39.6749441 -21 34 C-16.58473165 25.20819372 -11.21591931 17.17148332 -5.70703125 9.0390625 C-3.70548334 6.0794212 -1.79270344 3.09256744 0 0 Z " fill="#018002" transform="translate(343,389)"/>
<path d="M0 0 C0.98484375 0.00902344 1.9696875 0.01804687 2.984375 0.02734375 C4.10585937 0.04474609 4.10585937 0.04474609 5.25 0.0625 C5.25 0.7225 5.25 1.3825 5.25 2.0625 C5.85328125 2.2996875 6.4565625 2.536875 7.078125 2.78125 C9.77327067 4.37119205 10.57947175 5.79159305 12 8.5625 C12.42796875 9.3565625 12.8559375 10.150625 13.296875 10.96875 C15.97665867 19.66706421 13.67625982 26.84282638 10.09375 34.8828125 C9.67202515 35.86748505 9.25030029 36.85215759 8.8157959 37.8666687 C7.4773194 40.98118628 6.11420794 44.08417992 4.75 47.1875 C3.83298023 49.30918121 2.91759865 51.43157125 2.00390625 53.5546875 C-0.2285175 58.73230613 -2.48121594 63.90071869 -4.75 69.0625 C-8.75792725 68.19398082 -11.78939571 66.35001633 -15.1875 64.125 C-15.7949707 63.73038574 -16.40244141 63.33577148 -17.02832031 62.92919922 C-21.46960384 60.00162447 -25.77143701 56.91391454 -30 53.6875 C-30.54841553 53.27121338 -31.09683105 52.85492676 -31.66186523 52.42602539 C-34.22584454 50.43064596 -35.926801 48.7972985 -37.75 46.0625 C-37.09 46.0625 -36.43 46.0625 -35.75 46.0625 C-35.36328125 44.83660156 -34.9765625 43.61070312 -34.578125 42.34765625 C-32.54321621 36.25841807 -30.04935393 30.38879688 -27.5 24.5 C-27.04753906 23.41525391 -26.59507813 22.33050781 -26.12890625 21.21289062 C-22.57501951 13.01505946 -18.22951314 4.95849252 -9.75 1.0625 C-6.45360849 0.02381208 -3.44503822 -0.04101236 0 0 Z " fill="#F9D0AC" transform="translate(136.75,408.9375)"/>
<path d="M0 0 C8.31576421 4.20598983 11.32929217 11.81080203 14.875 19.9375 C15.53145508 21.40799805 15.53145508 21.40799805 16.20117188 22.90820312 C21.70809974 35.29248518 21.70809974 35.29248518 21.6171875 37.86328125 C17.58044066 46.59825865 6.01432671 54.11168615 -1.3125 59.875 C-2.16070312 60.61878906 -3.00890625 61.36257813 -3.8828125 62.12890625 C-6.3125 63.875 -6.3125 63.875 -10.3125 63.875 C-12.57426438 58.51874971 -14.83456477 53.16188496 -17.09350586 47.80444336 C-17.8623083 45.98168206 -18.63151176 44.15908985 -19.40112305 42.33666992 C-20.50675028 39.71837925 -21.61093779 37.09948552 -22.71484375 34.48046875 C-23.05966293 33.66474899 -23.40448212 32.84902924 -23.75975037 32.0085907 C-24.08000687 31.24802872 -24.40026337 30.48746674 -24.73022461 29.70385742 C-25.01224228 29.03545334 -25.29425995 28.36704926 -25.58482361 27.6783905 C-28.32886618 20.87786714 -28.14760345 14.36595697 -25.625 7.5 C-23.87086761 3.5376513 -22.12704802 1.12460524 -18.3125 -1.125 C-11.95532292 -3.24405903 -6.06586705 -2.83315946 0 0 Z " fill="#FAD1AE" transform="translate(412.3125,398.125)"/>
<path d="M0 0 C3.80002922 1.5241433 6.25280263 4.17322737 9.04418945 7.06665039 C9.93251717 7.96346779 9.93251717 7.96346779 10.83879089 8.87840271 C12.72286289 10.78481431 14.59252974 12.70467605 16.4621582 14.62524414 C17.73922674 15.92238067 19.01721159 17.21861576 20.29614258 18.51391602 C23.42469872 21.68650751 26.5404101 24.87123242 29.6496582 28.06274414 C26.02773036 29.27005342 23.27401208 28.98097039 19.4621582 28.81274414 C12.9183237 28.68602872 8.48197625 29.48161094 3.6496582 34.06274414 C-0.70895596 38.45505893 -3.42769698 42.60610287 -3.9753418 48.81274414 C-4.05010742 49.61196289 -4.12487305 50.41118164 -4.2019043 51.23461914 C-4.25088867 51.83790039 -4.29987305 52.44118164 -4.3503418 53.06274414 C-9.32913018 49.36056816 -12.97656769 45.03235147 -16.82299805 40.17993164 C-18.61656926 37.93022118 -20.48345172 35.77087905 -22.40893555 33.63305664 C-23.17330933 32.77260742 -23.17330933 32.77260742 -23.953125 31.89477539 C-24.95174254 30.77491431 -25.9617298 29.66506792 -26.98388672 28.56665039 C-30.3677296 24.72894335 -30.3677296 24.72894335 -30.28662109 21.62133789 C-29.03127193 18.19081396 -27.38000046 17.20196963 -24.36206055 15.17993164 C-23.34563477 14.48770508 -22.32920898 13.79547852 -21.28198242 13.08227539 C-20.21141602 12.37458008 -19.14084961 11.66688477 -18.0378418 10.93774414 C-15.93741961 9.51871272 -13.83715306 8.0994509 -11.73706055 6.67993164 C-10.80079834 6.05715332 -9.86453613 5.434375 -8.89990234 4.79272461 C-6.36262515 3.14999169 -6.36262515 3.14999169 -4.32617188 1.27416992 C-2.3503418 0.06274414 -2.3503418 0.06274414 0 0 Z " fill="#82B3F1" transform="translate(199.350341796875,281.937255859375)"/>
<path d="M0 0 C1.14984375 -0.00128906 2.2996875 -0.00257813 3.484375 -0.00390625 C5.28648437 0.00189453 5.28648437 0.00189453 7.125 0.0078125 C8.32640625 0.00394531 9.5278125 0.00007813 10.765625 -0.00390625 C11.91546875 -0.00261719 13.0653125 -0.00132812 14.25 0 C15.83167969 0.00169189 15.83167969 0.00169189 17.4453125 0.00341797 C20.125 0.1328125 20.125 0.1328125 23.125 1.1328125 C23.1743651 6.08071427 23.21070269 11.02847333 23.23486328 15.9765625 C23.24493317 17.66050716 23.25858988 19.34443429 23.27587891 21.02832031 C23.30008426 23.44600751 23.31147296 25.86346393 23.3203125 28.28125 C23.33063507 29.0365097 23.34095764 29.79176941 23.35159302 30.56991577 C23.35199318 32.4257523 23.24722716 34.2810053 23.125 36.1328125 C19.81119546 39.44661704 15.60058574 38.4294711 11.09375 38.45507812 C9.7840625 38.45185547 8.474375 38.44863281 7.125 38.4453125 C5.8153125 38.46142578 4.505625 38.47753906 3.15625 38.49414062 C1.9084375 38.49478516 0.660625 38.49542969 -0.625 38.49609375 C-1.77484375 38.49907471 -2.9246875 38.50205566 -4.109375 38.50512695 C-5.02203125 38.38226318 -5.9346875 38.25939941 -6.875 38.1328125 C-9.33605545 34.44122932 -9.13075793 31.66657696 -9.0703125 27.40234375 C-9.0674826 26.65192307 -9.06465271 25.90150238 -9.06173706 25.12834167 C-9.05055062 22.73383575 -9.02544928 20.33970519 -9 17.9453125 C-8.98996819 16.32096895 -8.98084269 14.69661953 -8.97265625 13.07226562 C-8.95061637 9.0923035 -8.9160974 5.11262162 -8.875 1.1328125 C-5.67587999 0.06643916 -3.3612254 0.00359544 0 0 Z " fill="#81B2F0" transform="translate(247.875,402.8671875)"/>
<path d="M0 0 C0.33 0.99 0.66 1.98 1 3 C1.66 2.67 2.32 2.34 3 2 C6.74223639 0.75258787 10.12765476 0.24978047 14 1 C17.07835815 2.6981712 19.24958325 5.01081428 21.375 7.8125 C23.34789978 14.71764924 21.48040375 20.24410857 19.14453125 26.78125 C17.9788101 30.05959206 16.94508318 33.35741812 15.9375 36.6875 C15.60492188 37.76386719 15.27234375 38.84023437 14.9296875 39.94921875 C14.35293627 41.84183518 13.79243532 43.73958574 13.2578125 45.64453125 C11.79857588 50.58790024 10.36006173 53.89951166 6 57 C3.22184611 57.74574263 0.91534444 57.90282185 -2 58 C-3.64580293 56.35419707 -3.15136802 54.479879 -3.15625 52.21484375 C-3.09939323 45.9189715 -2.33321926 39.79496129 -1.5 33.5625 C-0.08412187 22.30833322 0.3452185 11.32828099 0 0 Z " fill="#F6BC90" transform="translate(340,133)"/>
<path d="M0 0 C0.7321875 0.73605469 1.464375 1.47210938 2.21875 2.23046875 C11.47857175 11.4512744 21.22200404 20.19338144 34 24 C33.4340092 35.06660956 32.40116964 46.00830029 31 57 C24.36578878 51.40916757 18.08505343 45.51295748 11.88134766 39.45117188 C10.62149873 38.22827154 9.35280242 37.01442385 8.07568359 35.80957031 C6.21598717 34.05316391 4.38736205 32.26904898 2.5625 30.4765625 C1.98870605 29.94608307 1.41491211 29.41560364 0.82373047 28.86904907 C-1.26878034 26.76624656 -2.93183645 25.01523677 -3.13648987 21.96710205 C-2.88110352 19.86279297 -2.88110352 19.86279297 -2 16 C-1.90195068 15.21560547 -1.80390137 14.43121094 -1.70288086 13.62304688 C-1.13525391 9.08203125 -0.56762695 4.54101562 0 0 Z " fill="#E3A776" transform="translate(203,258)"/>
<path d="M0 0 C-0.2165625 0.54527344 -0.433125 1.09054687 -0.65625 1.65234375 C-3.56733043 9.53651991 -4.29862378 16.37303648 -0.89453125 24.22265625 C2.44864302 30.86520775 7.45316069 33.06391749 14 36 C12.30443987 39.39112025 8.48773872 40.40618392 5.1875 42 C4.09985352 42.53367187 4.09985352 42.53367187 2.99023438 43.078125 C1.63049335 43.74493304 0.26953441 44.40926735 -1.09301758 45.0703125 C-3.06883044 46.03355605 -5.03543943 47.01403872 -7 48 C-7.56509277 47.13721436 -8.13018555 46.27442871 -8.71240234 45.38549805 C-10.81074956 42.18180429 -12.90925693 38.97821548 -15.0078125 35.7746582 C-15.91573377 34.3886191 -16.82361172 33.00255161 -17.73144531 31.61645508 C-19.03699512 29.62313477 -20.34270116 27.62991688 -21.6484375 25.63671875 C-22.05371674 25.01786301 -22.45899597 24.39900726 -22.8765564 23.76139832 C-24.57553964 21.16819561 -26.28030525 18.57954212 -28 16 C-27.86621094 13.96923828 -27.86621094 13.96923828 -27 12 C-25.31347656 10.65966797 -25.31347656 10.65966797 -23.140625 9.4921875 C-22.35429687 9.06292969 -21.56796875 8.63367188 -20.7578125 8.19140625 C-19.93023437 7.75699219 -19.10265625 7.32257813 -18.25 6.875 C-17.43789062 6.43285156 -16.62578125 5.99070312 -15.7890625 5.53515625 C-5.52143127 0 -5.52143127 0 0 0 Z " fill="#3A3A60" transform="translate(197,375)"/>
<path d="M0 0 C1.68356216 0.97128586 3.35777873 1.96034281 5 3 C3.8343937 6.49681891 2.91071455 7.06005065 0 9.1875 C-5.64524252 13.43272238 -11.00306728 18.00306728 -16 23 C-16 22.34 -16 21.68 -16 21 C-16.62261719 20.75507813 -17.24523437 20.51015625 -17.88671875 20.2578125 C-22.2146722 18.50925414 -26.51210093 16.69008268 -30.8125 14.875 C-31.69615234 14.50246094 -32.57980469 14.12992187 -33.49023438 13.74609375 C-35.66032795 12.83113538 -37.83024401 11.91575858 -40 11 C-39.17863273 4.21894462 -36.52756824 0.99975254 -31.43359375 -3.33203125 C-21.37010051 -10.19460616 -9.75099679 -4.62778254 0 0 Z " fill="#E2A776" transform="translate(158,388)"/>
<path d="M0 0 C5.84961868 3.64541454 8.97940838 8.68537071 10.88671875 15.17578125 C10.30180664 15.40765137 9.71689453 15.63952148 9.11425781 15.87841797 C6.45434914 16.93404614 3.79552715 17.99238507 1.13671875 19.05078125 C0.21632813 19.41558594 -0.7040625 19.78039062 -1.65234375 20.15625 C-2.54179687 20.51074219 -3.43125 20.86523438 -4.34765625 21.23046875 C-5.16459961 21.55515137 -5.98154297 21.87983398 -6.82324219 22.21435547 C-8.97262577 23.11672994 -11.04239177 24.10706921 -13.11328125 25.17578125 C-14.00015625 24.22703125 -14.88703125 23.27828125 -15.80078125 22.30078125 C-21.07440988 16.99446483 -27.13410727 12.64442707 -33.11328125 8.17578125 C-32.11328125 5.17578125 -32.11328125 5.17578125 -28.8671875 3.3515625 C-27.47797639 2.71294108 -26.08019084 2.09274673 -24.67578125 1.48828125 C-23.94875 1.1752002 -23.22171875 0.86211914 -22.47265625 0.53955078 C-14.78673518 -2.60205239 -7.80036929 -3.33849477 0 0 Z " fill="#E2A776" transform="translate(381.11328125,383.82421875)"/>
<path d="M0 0 C4.87048118 2.32138609 9.22255632 5.36522357 13.6875 8.375 C14.56728516 8.9525 15.44707031 9.53 16.35351562 10.125 C17.18947266 10.68960937 18.02542969 11.25421875 18.88671875 11.8359375 C19.65201904 12.34688965 20.41731934 12.8578418 21.20581055 13.38427734 C23 15 23 15 24.06958008 16.82275391 C23.97335831 19.83365111 22.63286646 21.58499271 20.63809204 23.76495361 C17.72541961 25.96097525 14.54839293 25.73580087 11.07421875 25.5859375 C9.95283257 25.57320297 9.95283257 25.57320297 8.80879211 25.56021118 C6.43352812 25.52676529 4.06172781 25.45151814 1.6875 25.375 C0.07231486 25.3448883 -1.54292381 25.31751458 -3.15820312 25.29296875 C-7.10679239 25.22700501 -11.05281015 25.12355759 -15 25 C-14.45817802 21.33706177 -13.62790715 19.06243959 -11.34765625 16.15234375 C-10.81849609 15.46462891 -10.28933594 14.77691406 -9.74414062 14.06835938 C-8.91172852 13.01358398 -8.91172852 13.01358398 -8.0625 11.9375 C-6.96719073 10.53217337 -5.87464261 9.12468941 -4.78515625 7.71484375 C-4.29926025 7.09730225 -3.81336426 6.47976074 -3.31274414 5.84350586 C-1.97790725 3.96897483 -0.97272632 2.08203112 0 0 Z " fill="#81B3F1" transform="translate(255,338)"/>
<path d="M0 0 C0.99 0.33 1.98 0.66 3 1 C4.64371491 1.09329934 6.29114677 1.12995144 7.9375 1.125 C8.79214844 1.12757813 9.64679688 1.13015625 10.52734375 1.1328125 C12.82680852 1.00930254 14.79640348 0.64420687 17 0 C13.47347348 17.27997994 13.47347348 17.27997994 8.72265625 21.93359375 C5.51313339 23.92044123 2.74211338 24 -1 24 C-2.65044674 22.34955326 -2.17125815 20.45811046 -2.1875 18.1875 C-2.14683822 11.99064526 -1.18632005 6.06929812 0 0 Z " fill="#E3A775" transform="translate(339,167)"/>
<path d="M0 0 C0.72960937 0.16242188 1.45921875 0.32484375 2.2109375 0.4921875 C4.75774212 0.95589142 7.04357654 1.13387087 9.625 1.125 C10.38039062 1.12757813 11.13578125 1.13015625 11.9140625 1.1328125 C14.19549769 1.07667173 14.19549769 1.07667173 17 0 C19.39473684 16.42105263 19.39473684 16.42105263 19 23 C18.67 23.33 18.34 23.66 18 24 C12.72855196 23.695878 9.70519543 22.80811752 6 19 C2.25587734 13.38381602 1.36184821 6.50982762 0 0 Z " fill="#E1A674" transform="translate(156,167)"/>
<path d="M0 0 C0 4.14210541 -2.24274482 6.12380781 -4.75 9.1875 C-8.52183852 13.92048923 -11.5882414 18.40910507 -14 24 C-13.34 24.33 -12.68 24.66 -12 25 C-13.65 25 -15.3 25 -17 25 C-17 24.01 -17 23.02 -17 22 C-17.7734375 21.0409375 -17.7734375 21.0409375 -18.5625 20.0625 C-20 18 -20 18 -19.80810547 16.05517578 C-18.80704823 13.5092846 -17.71048485 12.65408366 -15.5078125 11.0546875 C-14.80269531 10.53519531 -14.09757813 10.01570313 -13.37109375 9.48046875 C-12.62988281 8.95066406 -11.88867188 8.42085938 -11.125 7.875 C-10.39152344 7.33746094 -9.65804687 6.79992187 -8.90234375 6.24609375 C-5.96953244 4.10391281 -3.02230848 2.01487232 0 0 Z " fill="#5F82D3" transform="translate(254,339)"/>
<path d="M0 0 C0.33 0 0.66 0 1 0 C1 3.63 1 7.26 1 11 C-1.64 11 -4.28 11 -7 11 C-4.79088969 7.24451247 -2.49357996 3.57413127 0 0 Z " fill="#0B7A09" transform="translate(317,246)"/>
<path d="M0 0 C3.28788824 3.11016455 5.83735988 6.01618925 8 10 C5.36 10 2.72 10 0 10 C0 6.7 0 3.4 0 0 Z " fill="#097906" transform="translate(194,247)"/>
</svg>
