<?xml version="1.0" encoding="UTF-8"?>
<svg version="1.1" xmlns="http://www.w3.org/2000/svg" width="512" height="512">
<path d="M0 0 C1.94802876 -0.00807831 1.94802876 -0.00807831 3.93541163 -0.01631981 C7.49254504 -0.0306119 11.04944358 -0.02658143 14.60658896 -0.019153 C18.46153269 -0.01438278 22.31642837 -0.02696494 26.1713562 -0.03717041 C33.7052237 -0.05428925 41.23900753 -0.05521282 48.77288941 -0.04995751 C54.90224824 -0.04590141 61.0315825 -0.04737638 67.16094017 -0.05270576 C68.47394344 -0.0538284 68.47394344 -0.0538284 69.81347203 -0.05497371 C71.59223186 -0.05650533 73.37099169 -0.05804368 75.14975151 -0.05958868 C91.79776024 -0.07328885 108.44572188 -0.06789366 125.09372952 -0.05640347 C140.28993282 -0.04647501 155.48601429 -0.05940949 170.6821988 -0.08333766 C186.32440488 -0.10778061 201.96655435 -0.11732371 217.60877913 -0.11068493 C226.37516587 -0.10720406 235.141459 -0.10934946 243.90783119 -0.12693596 C251.37076278 -0.14172318 258.83353485 -0.14220891 266.29646353 -0.12486505 C270.09627256 -0.1164057 273.89579744 -0.11407961 277.69559097 -0.1295166 C309.51685102 -0.24939896 337.6055783 5.01734631 362.24479675 26.38768005 C363.05303894 27.05154724 363.86128113 27.71541443 364.6940155 28.3993988 C385.05734696 45.69384515 397.72052857 71.04904315 401.24479675 97.38768005 C401.5112407 101.82150093 401.51953737 106.24117756 401.50549316 110.68205261 C401.50931871 111.97943745 401.51314426 113.27682229 401.51708573 114.61352181 C401.52730379 118.18544119 401.52519985 121.75725949 401.52090514 125.32918692 C401.51842654 129.19299475 401.52746615 133.05677896 401.53494263 136.920578 C401.54766082 144.4793732 401.54948688 152.03813282 401.54714236 159.59693691 C401.54535562 165.74500531 401.54711648 171.89306295 401.55136681 178.04113007 C401.551962 178.91787371 401.55255718 179.79461735 401.55317041 180.69792898 C401.55438223 182.47935214 401.55559636 184.26077529 401.55681279 186.04219845 C401.56767748 202.73110171 401.56553106 219.41998474 401.55942794 236.10888913 C401.55426119 251.35261777 401.56550976 266.59628246 401.58452616 281.83999845 C401.60393223 297.5170872 401.61215561 313.19414574 401.60840291 328.87124658 C401.60649488 337.66273367 401.60893939 346.45416636 401.62311745 355.24564362 C401.63506766 362.73105733 401.6363956 370.21638317 401.62432728 377.70179817 C401.61846369 381.51534181 401.61726864 385.32872501 401.62932968 389.14225769 C401.64229468 393.29008814 401.63166419 397.43754145 401.61901855 401.58537292 C401.62639284 402.77149854 401.63376712 403.95762416 401.64136487 405.17969298 C401.44780446 435.55187884 387.50879159 462.33152338 366.24479675 483.38768005 C340.83640486 507.48854691 310.1939768 513.02900827 276.3657217 512.91057873 C272.48832935 512.90142511 268.61100547 512.91554836 264.73362732 512.92649841 C257.16204242 512.94417962 249.59061714 512.94049044 242.01902628 512.92884785 C235.85922352 512.91977251 229.69946514 512.91860714 223.53965759 512.92294312 C222.65917783 512.92355605 221.77869806 512.92416898 220.87153709 512.92480049 C219.08222785 512.92607953 217.29291863 512.92737639 215.50360942 512.92869085 C198.76972861 512.94006618 182.0359358 512.92703096 165.30206943 512.90548939 C150.97889805 512.88762118 136.65585641 512.89072615 122.33268738 512.90916443 C105.65405967 512.93062519 88.97550887 512.93896783 72.29686928 512.92671537 C70.51455817 512.92544133 68.73224705 512.92418384 66.94993591 512.92294312 C66.07326322 512.92232601 65.19659054 512.92170891 64.29335201 512.92107311 C58.14903517 512.91763579 52.00476758 512.92341343 45.86045837 512.93286133 C38.36099382 512.94414078 30.86169648 512.94091744 23.3622508 512.91973835 C19.54419994 512.90930719 15.7264267 512.90496833 11.9083786 512.91833496 C-18.96534898 513.01728159 -46.58659358 508.06575926 -70.75520325 487.38768005 C-71.55313293 486.7225238 -72.35106262 486.05736755 -73.173172 485.37205505 C-93.8030121 467.58881304 -107.47578238 442.47554596 -110.75520325 415.38768005 C-111.4181811 405.79591147 -111.3120121 396.1713415 -111.27810192 386.56162536 C-111.26893857 382.70947233 -111.28307617 378.85738779 -111.29402161 375.00524902 C-111.31169222 367.48526989 -111.3080186 359.96545156 -111.29637104 352.44546645 C-111.28729213 346.32764024 -111.28613185 340.2098587 -111.29046631 334.09202766 C-111.29138571 332.77983733 -111.29138571 332.77983733 -111.29232368 331.44113811 C-111.29360274 329.66334441 -111.29489959 327.88555072 -111.29621404 326.10775704 C-111.30758609 309.48641831 -111.29455901 292.86516822 -111.27301258 276.24384404 C-111.25514153 262.01790066 -111.25825233 247.79208788 -111.27668762 233.56614685 C-111.2981488 216.99774819 -111.30649106 200.42942695 -111.29423857 183.86101633 C-111.29296453 182.09051646 -111.29170704 180.32001657 -111.29046631 178.54951668 C-111.28984921 177.6786672 -111.2892321 176.80781772 -111.2885963 175.91057886 C-111.28515934 169.80782834 -111.29093576 163.7051274 -111.30038452 157.60238457 C-111.31166431 150.15418075 -111.30843981 142.7061453 -111.28726155 135.25796049 C-111.27683131 131.46623049 -111.27248993 127.67478003 -111.28585815 123.88305283 C-111.38848304 92.08588651 -106.10837793 64.00711472 -84.75520325 39.38768005 C-84.09133606 38.57943787 -83.42746887 37.77119568 -82.7434845 36.9384613 C-70.85376486 22.93892081 -55.39868545 13.04579721 -38.31770325 6.57518005 C-37.22872742 6.1580072 -37.22872742 6.1580072 -36.11775208 5.73240662 C-24.31551855 1.49603817 -12.4750293 -0.0634659 0 0 Z " fill="#008000" transform="translate(110.75520324707031,-0.3876800537109375)"/>
<path d="M0 0 C1.50945071 -0.00913666 1.50945071 -0.00913666 3.04939538 -0.01845789 C6.40774622 -0.03505291 9.76571645 -0.03031692 13.12409973 -0.0255127 C15.5376576 -0.03285515 17.95121195 -0.0414419 20.36476135 -0.05117798 C26.23285181 -0.07108172 32.10085013 -0.07677538 37.9689646 -0.07499009 C42.74270195 -0.07367984 47.51640858 -0.07750002 52.29014015 -0.08491516 C53.66792704 -0.08701449 55.04571394 -0.08911209 56.42350084 -0.09120798 C57.45233521 -0.09277327 57.45233521 -0.09277327 58.50195412 -0.09437019 C71.46196695 -0.11325514 84.42192314 -0.1122281 97.38194404 -0.10540086 C109.21618544 -0.09983016 121.05021004 -0.12063364 132.88440081 -0.15376133 C145.05609903 -0.18756734 157.22769362 -0.20265785 169.39943963 -0.1980443 C176.2247085 -0.19580612 183.04977716 -0.20094635 189.87500572 -0.22593689 C196.29783075 -0.2492549 202.7203201 -0.24628346 209.14315796 -0.22600937 C211.49365401 -0.22260801 213.84418063 -0.22765042 216.19463539 -0.24199295 C233.02023965 -0.33753621 246.83785355 0.61105758 259.42414856 13.05065918 C268.38717215 22.83659064 270.08978159 34.10437808 269.94367981 46.99597168 C269.93943497 48.43968643 269.93943497 48.43968643 269.93510437 49.91256714 C269.92402308 52.94831453 269.89894191 55.98375288 269.87336731 59.01940918 C269.8633219 61.09362363 269.8541988 63.16784276 269.84602356 65.24206543 C269.8241234 70.29296344 269.78967854 75.34363415 269.74836731 80.39440918 C268.32136002 80.39987762 268.32136002 80.39987762 266.86552429 80.40545654 C257.890342 80.44243335 248.91550196 80.50023526 239.94058037 80.57831192 C235.32669041 80.61778391 230.71299121 80.64997371 226.09895325 80.66540527 C221.64426454 80.68057377 217.19010032 80.7150225 212.73564529 80.7627182 C211.03808786 80.77753005 209.34045555 80.78545008 207.64283371 80.78629303 C205.26061656 80.78866512 202.87984601 80.81576175 200.49787903 80.84851074 C199.45022621 80.84096519 199.45022621 80.84096519 198.38140869 80.83326721 C193.38161009 80.93928343 190.54531039 82.18063466 186.74836731 85.39440918 C182.5438539 90.2470116 182.16871083 94.00358253 182.23078918 100.13439941 C182.22377991 100.9920993 182.21677063 101.84979919 182.20954895 102.73348999 C182.19200391 105.55699441 182.20358023 108.37948905 182.21711731 111.20300293 C182.21442114 113.17306205 182.21053768 115.14311986 182.20552063 117.11317444 C182.1996301 121.23805435 182.20817335 125.36258726 182.22688293 129.48742676 C182.24965711 134.76452778 182.23655616 140.04081433 182.21259308 145.3178854 C182.19811033 149.38521922 182.20275272 153.45236128 182.21310425 157.519701 C182.21576546 159.46488607 182.21252314 161.41008875 182.20318604 163.35525322 C182.19298131 166.0789764 182.2085766 168.80139772 182.23078918 171.52502441 C182.22269226 172.32264694 182.21459534 173.12026947 182.20625305 173.94206238 C182.29053402 179.54479023 183.34872121 182.87738587 186.74836731 187.39440918 C191.23560188 191.16507662 195.73536192 191.98275448 201.51960754 191.94030762 C202.63304787 191.95581413 202.63304787 191.95581413 203.76898193 191.97163391 C206.19853399 192.00090051 208.62724714 192.00255758 211.05696106 192.00378418 C212.75091119 192.01877683 214.44484675 192.03550625 216.13876343 192.05389404 C220.5790934 192.09745833 225.0192262 192.11754229 229.45973206 192.13262939 C233.99811915 192.15224002 238.53629455 192.19420552 243.07453918 192.23425293 C251.96574975 192.30943657 260.85691266 192.35979962 269.74836731 192.39440918 C269.85068238 198.72564723 269.92021213 205.05666826 269.96809387 211.3885498 C269.98807715 213.53771939 270.01527324 215.68683554 270.05012512 217.83581543 C270.31252212 234.44400162 270.0092067 248.66523272 257.86555481 261.36315918 C248.72637048 269.82138468 238.9991917 272.70554359 226.76211548 272.65510559 C225.77229807 272.65893114 224.78248066 272.66275669 223.76266879 272.66669816 C220.45421766 272.6769962 217.14594111 272.673042 213.83747864 272.66906738 C211.46185648 272.67341571 209.08623573 272.67859926 206.71061707 272.68455505 C200.93163458 272.69655521 195.15270619 272.69909762 189.37371276 272.69675479 C184.67289032 272.6949691 179.97208197 272.69672665 175.27126122 272.70097923 C174.60126154 272.70157442 173.93126186 272.70216961 173.24095916 272.70278284 C171.87964768 272.70399465 170.51833619 272.70520878 169.1570247 272.70642521 C156.39734952 272.71729532 143.63770079 272.71514121 130.87802412 272.70904037 C119.22416205 272.70387588 107.57038368 272.71511519 95.91653816 272.73413859 C83.9335992 272.75354823 71.95069977 272.76176725 59.96774501 272.75801533 C53.24705903 272.75610748 46.52645474 272.75881675 39.80578041 272.77272987 C33.48151598 272.78533215 27.15741854 272.78334123 20.83315659 272.77031898 C18.5177206 272.76795863 16.20227277 272.7706684 13.88685036 272.77894211 C-18.0650612 272.88484233 -18.0650612 272.88484233 -30.93913269 261.33190918 C-38.90049459 252.87064782 -42.56925613 241.37314918 -42.5123291 229.9646759 C-42.51615465 229.14228414 -42.5199802 228.31989238 -42.52392167 227.47257966 C-42.53419878 224.73071793 -42.53026956 221.98906768 -42.52629089 219.24719238 C-42.5306404 217.27550565 -42.53582435 215.3038206 -42.54177856 213.33213806 C-42.55515691 207.98479087 -42.55574831 202.63751441 -42.55321527 197.29015374 C-42.55214435 192.81982233 -42.55703224 188.34950515 -42.56182069 183.8791768 C-42.57291276 173.32670759 -42.57335555 162.77427397 -42.56730652 152.22180176 C-42.56127197 141.35358753 -42.57356529 130.48550293 -42.59487659 119.61731082 C-42.6125233 110.27267742 -42.61848894 100.92808516 -42.61523885 91.58343571 C-42.61343008 86.00851778 -42.61602119 80.43369223 -42.62995338 74.85878944 C-42.64257635 69.6113714 -42.64054543 64.36415441 -42.6275425 59.11673927 C-42.62518654 57.19799225 -42.62787596 55.27923089 -42.63616562 53.36050034 C-42.69759288 38.02875788 -41.99364925 23.47609367 -31.00163269 11.64440918 C-22.27145191 3.46341548 -11.75229048 -0.06740848 0 0 Z " fill="#C0C0C0" transform="translate(122.25163269042969,159.6055908203125)"/>
<path d="M0 0 C0.8859787 -0.0071553 1.7719574 -0.01431061 2.68478394 -0.02168274 C3.6593454 -0.02437164 4.63390686 -0.02706055 5.63800049 -0.02983093 C6.66253326 -0.03640213 7.68706604 -0.04297333 8.74264526 -0.04974365 C12.14428779 -0.06950716 15.54588611 -0.08114625 18.9475708 -0.09111023 C20.10769936 -0.09518576 21.26782791 -0.09926128 22.46311188 -0.10346031 C28.60376305 -0.12433438 34.74439179 -0.13863015 40.8850708 -0.147995 C47.23169884 -0.15906033 53.57797634 -0.19345825 59.92448044 -0.23316669 C64.80066586 -0.25929868 69.67676737 -0.26768383 74.55301666 -0.27127647 C76.89259457 -0.27615149 79.2321685 -0.28779136 81.57167816 -0.30631447 C84.846673 -0.33063171 88.12075572 -0.32975401 91.39581299 -0.32279968 C92.8455098 -0.34201477 92.8455098 -0.34201477 94.32449341 -0.36161804 C99.99159316 -0.31776075 103.30182151 0.32059219 107.7756958 4.14717102 C112.39661834 9.39254255 112.93010374 12.59303926 112.95269775 19.43305969 C112.95926895 20.29017548 112.96584015 21.14729126 112.97261047 22.03038025 C112.99236764 24.87530093 113.00401283 27.72016872 113.01397705 30.56513977 C113.01805258 31.53646662 113.02212811 32.50779346 113.02632713 33.50855446 C113.04720043 38.65184442 113.06149542 43.79510761 113.07086182 48.93843079 C113.0819153 54.246943 113.11629944 59.55503478 113.15603352 64.86339855 C113.18220563 68.94784311 113.1905543 73.03218772 113.1941433 77.11670876 C113.19900947 79.07308599 113.21062435 81.02945874 113.22918129 82.98575401 C113.2535802 85.72894211 113.2526061 88.47104586 113.2456665 91.21430969 C113.26488159 92.42016975 113.26488159 92.42016975 113.28448486 93.65039062 C113.23286809 99.26707457 112.00858598 102.52649112 108.7756958 107.14717102 C104.45380987 110.49883766 101.01262767 112.26313044 95.55175781 112.29434204 C94.69109207 112.30149734 93.83042633 112.30865265 92.94367981 112.31602478 C92.00233688 112.31871368 91.06099396 112.32140259 90.09112549 112.32417297 C89.09731369 112.33074417 88.10350189 112.33731537 87.07957458 112.34408569 C83.78557257 112.36382137 80.49161616 112.37548195 77.1975708 112.38545227 C76.07270515 112.3895278 74.94783951 112.39360332 73.78888702 112.39780235 C67.8351103 112.41866426 61.88135664 112.43296547 55.92755127 112.44233704 C49.77946292 112.4534015 43.6317365 112.48780188 37.48377609 112.52750874 C32.75509978 112.55365944 28.0265099 112.56202753 23.29776764 112.56561852 C21.03158372 112.57048846 18.76540376 112.58211398 16.49929047 112.60065651 C13.32518367 112.62501421 10.15201597 112.62408872 6.97784424 112.61714172 C6.04459824 112.62995178 5.11135223 112.64276184 4.14982605 112.65596008 C-1.83583617 112.60829269 -5.31370042 111.6224667 -10.2243042 108.14717102 C-15.09442026 102.89257211 -15.37841035 98.64603454 -15.40130615 91.73188782 C-15.41116295 90.44358566 -15.41116295 90.44358566 -15.42121887 89.1292572 C-15.44094105 86.28496717 -15.45261161 83.4407299 -15.46258545 80.59638977 C-15.46666098 79.62473185 -15.4707365 78.65307392 -15.47493553 77.65197182 C-15.49579092 72.50983009 -15.51009537 67.36771502 -15.51947021 62.22554016 C-15.53053802 56.91583784 -15.56494381 51.6065542 -15.60464191 46.29699993 C-15.63079057 42.21259788 -15.63916046 38.12829591 -15.64275169 34.04381752 C-15.64762159 32.08661379 -15.65924702 30.12941465 -15.67778969 28.17229271 C-15.7021455 25.43140359 -15.70122275 22.69160209 -15.6942749 19.95063782 C-15.70708496 19.14470688 -15.71989502 18.33877594 -15.73309326 17.50842285 C-15.68466705 12.25858633 -14.66580861 9.32967426 -11.2243042 5.14717102 C-7.39906993 1.77732178 -5.07863536 0.02811168 0 0 Z " fill="#7BB31D" transform="translate(319.22430419921875,239.8528289794922)"/>
<path d="M0 0 C6.29352296 3.20613434 9.71475436 8.24895017 13.14453125 14.26171875 C13.73145752 15.28531494 14.31838379 16.30891113 14.9230957 17.36352539 C15.85835083 19.00889282 15.85835083 19.00889282 16.8125 20.6875 C17.81307476 22.43478337 18.8136558 24.18206318 19.81462097 25.92912292 C20.85298531 27.74269256 21.88953985 29.55728697 22.92578125 31.37207031 C26.20490302 37.11168587 29.50930695 42.83671148 32.8125 48.5625 C33.74231689 50.17741333 33.74231689 50.17741333 34.69091797 51.82495117 C37.48913258 56.67914147 40.30021521 61.52403452 43.1640625 66.33984375 C43.63739014 67.13640381 44.11071777 67.93296387 44.59838867 68.75366211 C45.4642552 70.2061394 46.33395536 71.65634118 47.20825195 73.10375977 C50 77.78197057 50 77.78197057 50 80 C-15.01 80 -80.02 80 -147 80 C-141.3831238 75.50649904 -141.3831238 75.50649904 -138.41796875 73.9140625 C-137.74652832 73.54845215 -137.07508789 73.1828418 -136.38330078 72.80615234 C-135.65868652 72.41637207 -134.93407227 72.0265918 -134.1875 71.625 C-126.92981001 67.6571435 -119.75895827 63.56105623 -112.625 59.375 C-103.78275222 54.19158884 -94.9057812 49.0731201 -86 44 C-76.2902522 38.46714245 -66.61345628 32.88118918 -56.96826172 27.23632812 C-48.30242125 22.16689111 -39.60706716 17.14963486 -30.90185547 12.14819336 C-25.24059225 8.89056741 -19.6180599 5.58586541 -14.05419922 2.1640625 C-9.51856678 -0.40616515 -5.08588986 -0.62702752 0 0 Z " fill="#005400" transform="translate(292,80)"/>
</svg>
