<?xml version="1.0" encoding="UTF-8"?>
<svg version="1.1" xmlns="http://www.w3.org/2000/svg" width="512" height="512">
<path d="M0 0 C1.01790619 0.00215515 2.03581238 0.0043103 3.08456421 0.00653076 C17.69363523 0.05620146 32.02575853 0.30709809 46.375 3.3125 C47.34985352 3.51117676 48.32470703 3.70985352 49.32910156 3.91455078 C97.7109774 14.03517194 141.69928269 35.9516877 177.375 70.3125 C178.3640332 71.26068604 178.3640332 71.26068604 179.37304688 72.22802734 C188.86130305 81.37247479 197.6012044 90.66984009 205.375 101.3125 C206.23306152 102.46355017 207.09113451 103.61459177 207.94921875 104.765625 C213.98736829 112.95680614 219.34595521 121.47054105 224.375 130.3125 C224.73948242 130.94430176 225.10396484 131.57610352 225.47949219 132.22705078 C247.08534998 169.97532572 256.85198095 212.74189997 256.6875 255.9375 C256.68534485 256.95540619 256.6831897 257.97331238 256.68096924 259.02206421 C256.63129854 273.63113523 256.38040191 287.96325853 253.375 302.3125 C253.07698486 303.77478027 253.07698486 303.77478027 252.77294922 305.26660156 C242.65232806 353.6484774 220.7358123 397.63678269 186.375 433.3125 C185.74287598 433.97185547 185.11075195 434.63121094 184.45947266 435.31054688 C175.31502521 444.79880305 166.01765991 453.5387044 155.375 461.3125 C154.22394983 462.17056152 153.07290823 463.02863451 151.921875 463.88671875 C143.73224019 469.92427396 135.22961724 475.30707302 126.375 480.3125 C125.66778809 480.7146875 124.96057617 481.116875 124.23193359 481.53125 C101.09654164 494.5566741 75.92537591 503.30551461 49.9375 508.625 C49.21860596 508.77235596 48.49971191 508.91971191 47.7590332 509.0715332 C33.08339502 511.86090125 18.55831162 512.66142619 3.64770508 512.62817383 C0.70811513 512.6250221 -2.2304558 512.64854926 -5.16992188 512.67382812 C-18.54306192 512.71848737 -31.43916711 511.51301542 -44.625 509.3125 C-46.33055054 509.03031616 -46.33055054 509.03031616 -48.07055664 508.74243164 C-91.33802759 500.97044532 -132.38793216 480.98345309 -165.625 452.3125 C-166.37007813 451.67828125 -167.11515625 451.0440625 -167.8828125 450.390625 C-181.38779833 438.57948485 -194.05918743 425.82889772 -204.625 411.3125 C-205.48149066 410.16255169 -206.33826433 409.01281411 -207.1953125 407.86328125 C-213.23534209 399.67315742 -218.61867614 391.16870382 -223.625 382.3125 C-224.0271875 381.60528809 -224.429375 380.89807617 -224.84375 380.16943359 C-237.8691741 357.03404164 -246.61801461 331.86287591 -251.9375 305.875 C-252.08485596 305.15610596 -252.23221191 304.43721191 -252.3840332 303.6965332 C-255.35789088 288.05024391 -255.99800362 272.57681954 -255.9375 256.6875 C-255.93534485 255.66959381 -255.9331897 254.65168762 -255.93096924 253.60293579 C-255.88129854 238.99386477 -255.63040191 224.66174147 -252.625 210.3125 C-252.42632324 209.33764648 -252.22764648 208.36279297 -252.02294922 207.35839844 C-241.90232806 158.9765226 -219.9858123 114.98821731 -185.625 79.3125 C-184.99287598 78.65314453 -184.36075195 77.99378906 -183.70947266 77.31445312 C-174.56502521 67.82619695 -165.26765991 59.0862956 -154.625 51.3125 C-153.47394983 50.45443848 -152.32290823 49.59636549 -151.171875 48.73828125 C-142.98224019 42.70072604 -134.47961724 37.31792698 -125.625 32.3125 C-124.91778809 31.9103125 -124.21057617 31.508125 -123.48193359 31.09375 C-100.34654164 18.0683259 -75.17537591 9.31948539 -49.1875 4 C-48.46860596 3.85264404 -47.74971191 3.70528809 -47.0090332 3.5534668 C-31.36274391 0.57960912 -15.88931954 -0.06050362 0 0 Z M-85.06933594 106.55419922 C-92.83995185 115.33699517 -105.99936503 133.14055679 -105.5 145.375 C-104.45826473 148.87225413 -103.38586106 149.95746261 -100.625 152.3125 C-97.56474534 153.95260484 -97.56474534 153.95260484 -94.09375 155.37109375 C-93.14610779 155.77763939 -93.14610779 155.77763939 -92.17932129 156.19239807 C-90.16493992 157.05400685 -88.14519558 157.90212711 -86.125 158.75 C-84.79910694 159.31488231 -83.47358243 159.88063051 -82.1484375 160.44726562 C-79.54968228 161.55753969 -76.94504931 162.6521087 -74.3359375 163.73779297 C-71.93290057 164.74292134 -69.58766906 165.79912148 -67.2265625 166.90673828 C-62.73942274 168.9705708 -59.65662954 170.35633406 -54.671875 170.14453125 C-50.37026106 167.55804799 -48.98645358 164.44297288 -46.875 160 C-40.08233394 146.82746006 -31.49929897 134.53065703 -16.9375 129.4375 C-3.05815808 126.16831791 14.17915518 126.42571439 26.72265625 133.66796875 C28.7711515 135.09617198 30.56327507 136.59634771 32.375 138.3125 C33.18710937 139.06466797 33.18710937 139.06466797 34.015625 139.83203125 C41.33354951 147.42714987 44.12820393 157.4043475 44.50390625 167.73046875 C43.59918531 192.87074454 24.5942649 210.95739896 7.375 227.3125 C6.11093511 228.40372336 4.84018032 229.48725051 3.5625 230.5625 C-19.72633629 250.74306531 -29.111941 274.71308315 -31.46386719 305.02880859 C-32.54057344 315.24684697 -32.54057344 315.24684697 -28.625 324.3125 C-25.58014265 326.22138587 -23.22293729 326.5681667 -19.66040039 326.5871582 C-18.67580338 326.59669022 -17.69120636 326.60622223 -16.67677307 326.61604309 C-15.61941452 326.61513168 -14.56205597 326.61422028 -13.47265625 326.61328125 C-12.38037216 326.61756638 -11.28808807 326.6218515 -10.16270447 326.62626648 C-7.85367526 326.63200713 -5.54462797 326.632512 -3.2355957 326.62817383 C0.29572425 326.62501501 3.82620556 326.64847328 7.35742188 326.67382812 C9.60156144 326.67610125 11.84570326 326.67680455 14.08984375 326.67578125 C15.14517807 326.684991 16.20051239 326.69420074 17.28782654 326.70368958 C23.83955197 326.6623741 27.60902998 326.07847002 32.375 321.3125 C32.78954882 319.12251645 32.78954882 319.12251645 32.90234375 316.578125 C32.97050293 315.617854 33.03866211 314.65758301 33.10888672 313.66821289 C33.1760791 312.64332764 33.24327148 311.61844238 33.3125 310.5625 C35.37725968 283.72270139 45.13906533 270.09570843 63.93652344 251.79199219 C88.23858901 228.0696369 106.24429979 200.98087397 106.6875 166 C106.57438545 141.67485387 97.80425893 118.28286195 81.375 100.3125 C80.61574219 99.46042969 79.85648438 98.60835937 79.07421875 97.73046875 C72.61831317 90.85191796 65.45845141 86.03488799 57.375 81.3125 C56.12783203 80.57193359 56.12783203 80.57193359 54.85546875 79.81640625 C8.48295953 54.45767463 -50.71304804 69.37671994 -85.06933594 106.55419922 Z M-33.76953125 377.8515625 C-40.95790212 387.38561228 -42.43874154 397.57887192 -41.625 409.3125 C-39.99361332 419.7237132 -33.95088526 429.24598136 -25.7890625 435.81640625 C-16.7316598 442.07811245 -6.68076589 445.47244921 4.375 444.3125 C16.36195437 442.0888331 25.70761767 436.88231554 33.375 427.3125 C40.30112261 416.06495046 43.02888954 405.41580557 40.3125 392.4375 C37.45515158 381.99156576 31.24891316 373.49479969 22.375 367.3125 C2.0021935 356.22770297 -18.68288574 359.9894139 -33.76953125 377.8515625 Z " fill="#006100" transform="translate(255.625,-0.3125)"/>
</svg>
