<?xml version="1.0" encoding="UTF-8"?>
<svg version="1.1" xmlns="http://www.w3.org/2000/svg" width="512" height="512">
<path d="M0 0 C1.01790619 0.00215515 2.03581238 0.0043103 3.08456421 0.00653076 C17.69363523 0.05620146 32.02575853 0.30709809 46.375 3.3125 C47.34985352 3.51117676 48.32470703 3.70985352 49.32910156 3.91455078 C97.7109774 14.03517194 141.69928269 35.9516877 177.375 70.3125 C178.3640332 71.26068604 178.3640332 71.26068604 179.37304688 72.22802734 C188.86130305 81.37247479 197.6012044 90.66984009 205.375 101.3125 C206.23306152 102.46355017 207.09113451 103.61459177 207.94921875 104.765625 C213.98736829 112.95680614 219.34595521 121.47054105 224.375 130.3125 C224.73948242 130.94430176 225.10396484 131.57610352 225.47949219 132.22705078 C247.08534998 169.97532572 256.85198095 212.74189997 256.6875 255.9375 C256.68534485 256.95540619 256.6831897 257.97331238 256.68096924 259.02206421 C256.63129854 273.63113523 256.38040191 287.96325853 253.375 302.3125 C253.07698486 303.77478027 253.07698486 303.77478027 252.77294922 305.26660156 C242.65232806 353.6484774 220.7358123 397.63678269 186.375 433.3125 C185.74287598 433.97185547 185.11075195 434.63121094 184.45947266 435.31054688 C175.31502521 444.79880305 166.01765991 453.5387044 155.375 461.3125 C154.22394983 462.17056152 153.07290823 463.02863451 151.921875 463.88671875 C143.73224019 469.92427396 135.22961724 475.30707302 126.375 480.3125 C125.66778809 480.7146875 124.96057617 481.116875 124.23193359 481.53125 C101.09654164 494.5566741 75.92537591 503.30551461 49.9375 508.625 C49.21860596 508.77235596 48.49971191 508.91971191 47.7590332 509.0715332 C33.08339502 511.86090125 18.55831162 512.66142619 3.64770508 512.62817383 C0.70811513 512.6250221 -2.2304558 512.64854926 -5.16992188 512.67382812 C-18.54306192 512.71848737 -31.43916711 511.51301542 -44.625 509.3125 C-46.33055054 509.03031616 -46.33055054 509.03031616 -48.07055664 508.74243164 C-91.33802759 500.97044532 -132.38793216 480.98345309 -165.625 452.3125 C-166.37007813 451.67828125 -167.11515625 451.0440625 -167.8828125 450.390625 C-181.38779833 438.57948485 -194.05918743 425.82889772 -204.625 411.3125 C-205.48149066 410.16255169 -206.33826433 409.01281411 -207.1953125 407.86328125 C-213.23534209 399.67315742 -218.61867614 391.16870382 -223.625 382.3125 C-224.0271875 381.60528809 -224.429375 380.89807617 -224.84375 380.16943359 C-237.8691741 357.03404164 -246.61801461 331.86287591 -251.9375 305.875 C-252.08485596 305.15610596 -252.23221191 304.43721191 -252.3840332 303.6965332 C-255.35789088 288.05024391 -255.99800362 272.57681954 -255.9375 256.6875 C-255.93534485 255.66959381 -255.9331897 254.65168762 -255.93096924 253.60293579 C-255.88129854 238.99386477 -255.63040191 224.66174147 -252.625 210.3125 C-252.42632324 209.33764648 -252.22764648 208.36279297 -252.02294922 207.35839844 C-241.90232806 158.9765226 -219.9858123 114.98821731 -185.625 79.3125 C-184.99287598 78.65314453 -184.36075195 77.99378906 -183.70947266 77.31445312 C-174.56502521 67.82619695 -165.26765991 59.0862956 -154.625 51.3125 C-153.47394983 50.45443848 -152.32290823 49.59636549 -151.171875 48.73828125 C-142.98224019 42.70072604 -134.47961724 37.31792698 -125.625 32.3125 C-124.91778809 31.9103125 -124.21057617 31.508125 -123.48193359 31.09375 C-100.34654164 18.0683259 -75.17537591 9.31948539 -49.1875 4 C-48.46860596 3.85264404 -47.74971191 3.70528809 -47.0090332 3.5534668 C-31.36274391 0.57960912 -15.88931954 -0.06050362 0 0 Z " fill="#007F00" transform="translate(255.625,-0.3125)"/>
<path d="M0 0 C6.60527225 6.39219895 12.6620542 13.29230245 18.4375 20.4375 C22.29825137 25.211403 26.37437075 29.73388428 30.53125 34.25 C33.72881296 37.81184229 36.71388343 41.52565833 39.71875 45.25 C42.06718968 48.08099578 44.50909902 50.79383598 47 53.5 C51.09351091 57.94727112 54.92442499 62.54717463 58.71875 67.25 C61.06718968 70.08099578 63.50909902 72.79383598 66 75.5 C70.09351091 79.94727112 73.92442499 84.54717463 77.71875 89.25 C80.06718968 92.08099578 82.50909902 94.79383598 85 97.5 C89.09351091 101.94727112 92.92442499 106.54717463 96.71875 111.25 C99.06718968 114.08099578 101.50909902 116.79383598 104 119.5 C108.09351091 123.94727112 111.92442499 128.54717463 115.71875 133.25 C118.06718968 136.08099578 120.50909902 138.79383598 123 141.5 C126.29331699 145.07792463 129.44651321 148.71539666 132.5 152.5 C137.11078368 158.21052891 142.03736978 163.59588374 147 169 C148.36071114 170.49406578 149.71566292 171.99341537 151.0625 173.5 C151.61035156 174.1084375 152.15820312 174.716875 152.72265625 175.34375 C154 177 154 177 155 180 C154.59790039 182.30224609 154.59790039 182.30224609 153.84765625 185.0234375 C153.57010498 186.03374023 153.29255371 187.04404297 153.0065918 188.08496094 C152.6950415 189.17067383 152.38349121 190.25638672 152.0625 191.375 C151.7425708 192.49680664 151.4226416 193.61861328 151.09301758 194.77441406 C140.81435249 230.00843209 123.85493118 262.08374541 100 290 C99.36320312 290.74894531 98.72640625 291.49789063 98.0703125 292.26953125 C86.25297532 305.76520621 73.51448412 318.43558025 59 329 C57.85005169 329.85649066 56.70031411 330.71326433 55.55078125 331.5703125 C47.36065742 337.61034209 38.85620382 342.99367614 30 348 C29.29278809 348.4021875 28.58557617 348.804375 27.85693359 349.21875 C7.67027036 360.58401454 -13.67154476 368.02608589 -36 374 C-37.02081665 374.27602051 -37.02081665 374.27602051 -38.06225586 374.55761719 C-42.06252669 375.4708704 -46.03920257 376.05947204 -49.73144531 374.06445312 C-51.4625369 372.71004874 -53.04123434 371.27400092 -54.625 369.75 C-55.84588293 368.64010642 -57.06725082 367.5307461 -58.2890625 366.421875 C-58.90426758 365.85146484 -59.51947266 365.28105469 -60.15332031 364.69335938 C-63.03560895 362.05037233 -66.01848565 359.52971895 -69 357 C-70.16721868 356.00064438 -71.33388426 355.00064239 -72.5 354 C-73.36625 353.2575 -73.36625 353.2575 -74.25 352.5 C-76 351 -77.75 349.5 -79.5 348 C-80.07741943 347.50508057 -80.65483887 347.01016113 -81.24975586 346.50024414 C-82.41728228 345.49948394 -83.5847627 344.49867008 -84.75219727 343.49780273 C-87.65533629 341.00899324 -90.55924949 338.52109909 -93.46484375 336.03515625 C-100.12768834 330.33272169 -106.76871705 324.60614311 -113.39208984 318.85791016 C-119.32888478 313.70838251 -125.29453455 308.59299766 -131.26611328 303.48388672 C-134.75918215 300.49446506 -138.2491367 297.50140706 -141.73925781 294.50854492 C-144.71596128 291.95630969 -147.69435485 289.40609223 -150.67578125 286.859375 C-157.17583023 281.30374796 -163.64207653 275.71876715 -170 270 C-166.24394337 268.74798112 -165.18500026 269.4926219 -161.55601501 270.90515137 C-155.24858563 273.10340953 -149.73995133 273.56972206 -143.10375977 273.51757812 C-141.9817215 273.5245874 -140.85968323 273.53159668 -139.7036438 273.53881836 C-136.03263841 273.55627474 -132.36241807 273.54481815 -128.69140625 273.53125 C-126.11652988 273.53394863 -123.54165452 273.53783414 -120.96678162 273.54284668 C-115.58476044 273.54872522 -110.20302844 273.5406206 -104.82104492 273.52148438 C-98.63267543 273.49973256 -92.44483362 273.50676705 -86.25647694 273.52879 C-80.26139064 273.54925687 -74.26655867 273.54692818 -68.27143669 273.53526306 C-65.73950055 273.53261013 -63.20755078 273.53581458 -60.67563057 273.54518127 C-42.41061556 273.85477862 -42.41061556 273.85477862 -25 269 C-23.81921875 268.48179687 -22.6384375 267.96359375 -21.421875 267.4296875 C-9.22398934 260.33208736 -0.32066524 249.75532621 3.56604546 235.99616987 C4.82966707 230.60071782 5.28740241 225.55685961 5.26069641 220.02604675 C5.26452196 219.16927772 5.26834751 218.31250869 5.27228898 217.42977697 C5.28253664 214.58357314 5.27864258 211.73757416 5.2746582 208.89135742 C5.27900927 206.84055903 5.28419373 204.78976226 5.29014587 202.7389679 C5.30350543 197.18513483 5.30411787 191.63136994 5.30158257 186.07752395 C5.30051068 181.43311942 5.30540188 176.78872857 5.310188 172.14432698 C5.32127292 161.18238917 5.32172646 150.22048563 5.31567383 139.25854492 C5.30963581 127.96880727 5.32194308 116.67919429 5.3432439 105.38947791 C5.36088691 95.67962705 5.36685695 85.96981579 5.36360615 76.25994951 C5.36179728 70.46820421 5.36438987 64.67654784 5.37832069 58.88481712 C5.39093815 53.43546422 5.38891789 47.98630497 5.37590981 42.53695488 C5.37355291 40.54402856 5.37624669 38.55108844 5.38453293 36.55817795 C5.69538184 20.25883771 5.69538184 20.25883771 0.89989185 4.87694073 C0 3 0 3 0 0 Z " fill="#004E00" transform="translate(352,132)"/>
<path d="M0 0 C0.9711676 -0.0071553 1.94233521 -0.01431061 2.94293213 -0.02168274 C4.00216385 -0.02437164 5.06139557 -0.02706055 6.15272522 -0.02983093 C7.27359528 -0.03640213 8.39446533 -0.04297333 9.54930115 -0.04974365 C13.26354542 -0.06947252 16.97774917 -0.081141 20.69203186 -0.09111023 C21.96294741 -0.09518576 23.23386295 -0.09926128 24.54329109 -0.10346031 C30.58158724 -0.12217283 36.61985896 -0.13673539 42.65817636 -0.14507228 C49.59940313 -0.15481661 56.54030862 -0.18106348 63.48142236 -0.22157317 C69.51487967 -0.25556053 75.5481831 -0.26723297 81.58174324 -0.27127647 C84.1360294 -0.27612909 86.69031247 -0.28770494 89.24453545 -0.30631447 C114.94253347 -0.48184376 114.94253347 -0.48184376 125.16468811 4.14717102 C125.81476334 4.43277893 126.46483856 4.71838684 127.13461304 5.01264954 C140.04632472 11.24578443 148.56108708 21.68599064 153.53968811 35.02217102 C155.69473281 41.29990994 156.31235158 47.02075726 156.30513 53.64683533 C156.30810113 54.50089222 156.31107225 55.35494912 156.31413341 56.23488653 C156.32280268 59.09579469 156.32432717 61.95666092 156.32582092 64.81758118 C156.33045041 66.8694111 156.33547524 68.92124017 156.34086609 70.97306824 C156.35398088 76.5477128 156.36043344 82.12234531 156.36487675 87.69700289 C156.3678094 91.18182188 156.37191461 94.66663759 156.37638092 98.15145493 C156.3900544 109.06030627 156.39972138 119.96915012 156.40358281 130.87800944 C156.40806113 143.45976944 156.42559923 156.04142067 156.45458341 168.62314761 C156.47622199 178.35497688 156.48628828 188.0867756 156.48762393 197.81862867 C156.48867054 203.62773596 156.49454756 209.43674099 156.51244354 215.24582291 C156.52896145 220.71398624 156.53106162 226.18197085 156.52230453 231.6501503 C156.52153611 233.65156026 156.52585105 235.65297998 156.53576279 237.65436554 C156.62620199 257.06202199 156.62620199 257.06202199 153.16468811 266.14717102 C152.54400452 267.78685852 152.54400452 267.78685852 151.91078186 269.45967102 C146.03166145 281.53380488 137.60933514 290.754948 125.16468811 296.14717102 C124.41883453 296.4792305 123.67298096 296.81128998 122.90452576 297.15341187 C110.94320474 301.65273227 98.31268077 300.72499479 85.72328186 300.67842102 C83.14743911 300.68111996 80.57159735 300.68500571 77.99575806 300.6900177 C72.61551693 300.6958927 67.23556534 300.68780231 61.85536194 300.6686554 C55.66638385 300.64688231 49.47793295 300.65395548 43.28896755 300.67596102 C37.29334176 300.69641228 31.29797046 300.69410593 25.30230904 300.68243408 C22.76954638 300.67977959 20.23677011 300.6829912 17.70402336 300.69235229 C14.15597021 300.70259159 10.6089083 300.68691307 7.06092834 300.66474915 C6.03045883 300.67284607 4.99998932 300.68094299 3.93829346 300.68928528 C-9.4857386 300.53512212 -22.78066187 295.0815495 -32.64781189 285.89717102 C-43.67057223 273.93114269 -48.13336027 260.41654912 -48.17124939 244.45185852 C-48.17790619 243.4601767 -48.18456299 242.46849487 -48.19142151 241.44676208 C-48.20148591 239.36433248 -48.20624047 237.28187102 -48.20591736 235.19941711 C-48.21030948 232.02391163 -48.24674743 228.84977683 -48.28453064 225.67451477 C-48.29039643 223.6419674 -48.29436741 221.60941349 -48.29624939 219.57685852 C-48.31062042 218.63502716 -48.32499146 217.6931958 -48.33979797 216.7228241 C-48.29792618 210.65717048 -47.3693332 207.11585115 -43.83531189 202.14717102 C-40.17834819 198.75779003 -37.58981003 197.31587276 -32.58531189 196.83467102 C-26.80395069 197.31645112 -23.36769158 199.49381398 -19.46031189 203.70967102 C-17.2374 207.04403885 -16.71118937 209.57652323 -16.69346619 213.49165344 C-16.68643173 214.36653915 -16.67939728 215.24142487 -16.67214966 216.14282227 C-16.66798538 217.08656204 -16.66382111 218.03030182 -16.65953064 219.00263977 C-16.63632409 221.00720747 -16.61220642 223.01176478 -16.58726501 225.01631165 C-16.5522238 228.17173629 -16.52284555 231.326781 -16.50938416 234.4823761 C-16.49383714 237.53126494 -16.45357654 240.57904632 -16.40953064 243.62763977 C-16.41143906 244.56125839 -16.41334747 245.49487701 -16.41531372 246.45678711 C-16.30309983 252.51726208 -15.54107692 257.23938745 -11.83531189 262.14717102 C-5.50124821 267.88940462 0.09049686 269.01785248 8.43251038 268.89179993 C10.06843643 268.90275192 10.06843643 268.90275192 11.7374115 268.91392517 C15.31928559 268.93005215 18.89932591 268.90299186 22.48109436 268.87373352 C24.98255411 268.87269535 27.4840155 268.87373449 29.98547363 268.87675476 C35.88684341 268.87655282 41.7875478 268.84688263 47.68875784 268.8054527 C53.71728166 268.76604426 59.74522258 268.77442678 65.77383518 268.7865696 C70.9358213 268.79326153 76.09760282 268.77996626 81.25955009 268.76031113 C83.72862107 268.75262993 86.19771485 268.75030123 88.66679573 268.75348282 C92.12038959 268.754227 95.57283899 268.72890687 99.02626038 268.69648743 C100.03999222 268.70144226 101.05372406 268.70639709 102.09817505 268.71150208 C109.5686762 268.5999346 115.22618819 267.16299989 120.53968811 261.70967102 C123.90830952 256.39761418 124.45649205 251.91587655 124.43211365 245.70324707 C124.43891032 244.43123734 124.43891032 244.43123734 124.44584429 243.13353044 C124.45850017 240.29321389 124.45686715 237.45308881 124.45521545 234.61274719 C124.46119997 232.57575229 124.46800534 230.53875966 124.47557068 228.50177002 C124.49324601 222.96863544 124.49792672 217.43556272 124.49920225 211.90240264 C124.50110145 207.28267396 124.50845927 202.66295969 124.51554644 198.04323655 C124.53183396 187.14289674 124.53671508 176.24258996 124.53529358 165.34223938 C124.53409215 154.10018919 124.55519344 142.85833098 124.58678091 131.61632937 C124.61293832 121.96267106 124.62366109 112.30907546 124.62238276 102.65538198 C124.62187296 96.89049839 124.62756648 91.12578539 124.64873886 85.36093712 C124.668112 79.93787279 124.66825185 74.51514194 124.6537056 69.09206581 C124.65161524 67.10390867 124.65633186 65.11573071 124.66842651 63.12760925 C124.68389297 60.40869745 124.6745617 57.69093348 124.65916443 54.9720459 C124.66945156 54.18944198 124.67973868 53.40683807 124.69033754 52.60051888 C124.61195869 46.31671361 122.83666748 40.85362754 118.34828186 36.30732727 C117.77207092 35.94510071 117.19585999 35.58287415 116.60218811 35.20967102 C115.73400452 34.63926086 115.73400452 34.63926086 114.84828186 34.05732727 C111.70089053 32.3558373 109.07924226 32.01595023 105.5745697 31.98654175 C104.16169426 31.97147331 104.16169426 31.97147331 102.72027588 31.95610046 C101.68856766 31.95026947 100.65685944 31.94443848 99.59388733 31.93843079 C98.50575241 31.928647 97.41761749 31.91886322 96.29650879 31.90878296 C92.68747686 31.87881576 89.07848207 31.85743815 85.46937561 31.83857727 C84.23668064 31.83200544 83.00398567 31.82543362 81.73393631 31.81866264 C75.88039858 31.7894234 70.02687637 31.76550745 64.17329109 31.74823052 C57.43163623 31.72790287 50.69065402 31.68408057 43.94927013 31.62072903 C38.09895604 31.56763182 32.24886623 31.54766687 26.3983345 31.53896904 C23.91606638 31.53041601 21.43381114 31.51160193 18.95170212 31.48222542 C15.47118163 31.44325504 11.99254349 31.44228475 8.51185608 31.45014954 C7.49229324 31.43014893 6.47273041 31.41014832 5.42227173 31.38954163 C-1.7244933 31.46179031 -6.51681392 33.2884894 -11.83531189 38.14717102 C-15.80702498 43.5256743 -16.40697842 48.67293764 -16.33921814 55.21357727 C-16.34863937 56.05130173 -16.35806061 56.88902618 -16.36776733 57.75213623 C-16.39621394 60.40490177 -16.39950302 63.05676602 -16.39781189 65.70967102 C-16.40143319 68.36601391 -16.41109516 71.02170879 -16.43856812 73.67791748 C-16.45520835 75.32290536 -16.45835011 76.96810637 -16.44555664 78.61312866 C-16.49339269 83.85623275 -17.36994644 87.49331113 -19.83531189 92.14717102 C-24.92914468 96.86828434 -28.27914512 97.51440022 -35.07359314 97.41670227 C-39.0506358 97.02856091 -40.98188053 95.93100649 -43.83531189 93.14717102 C-47.54136691 87.55146234 -48.42429904 82.61081233 -48.33140564 76.00263977 C-48.33286087 75.15220596 -48.3343161 74.30177216 -48.33581543 73.42556763 C-48.33416496 71.63636329 -48.32269985 69.84714348 -48.30186462 68.05805969 C-48.2729979 65.35210788 -48.28125689 62.6481317 -48.29429626 59.9420929 C-48.27360002 42.33516825 -44.77004048 27.44636746 -32.17906189 14.33076477 C-23.68789516 6.41982777 -11.80520819 0.05989997 0 0 Z " fill="#FBFCFB" transform="translate(201.83531188964844,105.85282897949219)"/>
<path d="M0 0 C0.94198746 -0.0071553 1.88397491 -0.01431061 2.85450745 -0.02168274 C3.89138199 -0.02437164 4.92825653 -0.02706055 5.99655151 -0.02983093 C7.0861467 -0.03640213 8.17574188 -0.04297333 9.2983551 -0.04974365 C12.91764388 -0.06951328 16.53689104 -0.08114873 20.15621948 -0.09111023 C21.39107967 -0.09518576 22.62593987 -0.09926128 23.89822006 -0.10346031 C29.761912 -0.12218408 35.62558754 -0.13674441 41.48930371 -0.14507228 C48.24779241 -0.1548301 55.00595233 -0.18110865 61.76432526 -0.22157317 C67.6247901 -0.25545098 73.48514537 -0.26722401 79.34569931 -0.27127647 C81.83434144 -0.276146 84.32297997 -0.28777032 86.81155777 -0.30631447 C90.29926859 -0.33068383 93.78612521 -0.32974409 97.27389526 -0.32279968 C98.29862442 -0.33560974 99.32335358 -0.3484198 100.37913513 -0.36161804 C107.61381262 -0.30922891 113.31994871 0.98018475 118.58200073 6.18232727 C119.03703979 6.85135071 119.49207886 7.52037415 119.96090698 8.20967102 C120.43399292 8.88127258 120.90707886 9.55287415 121.39450073 10.24482727 C123.9063015 14.47751576 123.6716813 18.59224747 123.670578 23.35058594 C123.67425469 24.19688358 123.67793138 25.04318122 123.68171948 25.91512424 C123.69276556 28.7616036 123.69660174 31.60804647 123.70040894 34.45454407 C123.7066729 36.49124264 123.71331964 38.52794006 123.72032166 40.56463623 C123.73773783 46.10613734 123.74828519 51.64762982 123.75652719 57.18915153 C123.76167623 60.65081987 123.76775202 64.11248554 123.77403831 67.57415199 C123.79309246 78.40344545 123.80732291 89.23273208 123.81565028 100.06203908 C123.82542332 112.565211 123.85174377 125.06820592 123.89215118 137.57131547 C123.92230609 147.23341831 123.93711859 156.8954704 123.9404313 166.55761939 C123.94278255 172.3292509 123.9517529 178.10069335 123.97689247 183.8722744 C124.00016702 189.30350498 124.00440877 194.73442195 123.99413109 200.16568947 C123.99363547 202.15707568 123.99996365 204.1484773 124.01368713 206.13981628 C124.03140254 208.86319836 124.02430166 211.58545454 124.01115417 214.30883789 C124.02212342 215.09280605 124.03309267 215.8767742 124.04439431 216.68449897 C123.96929149 223.14918687 122.08989412 228.55112741 117.48825073 233.20576477 C116.48471558 233.88832336 116.48471558 233.88832336 115.46090698 234.58467102 C114.78930542 235.05775696 114.11770386 235.5308429 113.42575073 236.01826477 C103.2506379 242.05647341 81.82725544 240.40912446 70.52340698 238.14717102 C63.71281393 235.28777752 59.54611393 230.12680402 55.22409058 224.31904602 C52.48310433 220.81864211 49.20679956 217.97346053 45.89840698 215.02217102 C44.68086876 213.8909496 43.46601132 212.75683587 42.25387573 211.61982727 C39.61737926 209.16195713 36.97260411 206.71328425 34.32418823 204.26826477 C33.63598999 203.6309845 32.94779175 202.99370422 32.23873901 202.33711243 C30.91785169 201.1141864 29.59471741 199.89368145 28.26901245 198.67597961 C27.67620483 198.12635559 27.08339722 197.57673157 26.47262573 197.01045227 C25.95015259 196.52874573 25.42767944 196.04703918 24.88937378 195.55073547 C23.52340698 194.14717102 23.52340698 194.14717102 21.52340698 191.14717102 C22.39352417 191.10849915 22.39352417 191.10849915 23.28121948 191.06904602 C24.06239136 191.01232727 24.84356323 190.95560852 25.64840698 190.89717102 C26.41411011 190.85076477 27.17981323 190.80435852 27.96871948 190.75654602 C33.79704195 189.36630397 38.06580111 184.90298867 42.18991089 180.77119446 C42.72080826 180.24701431 43.25170563 179.72283417 43.7986908 179.18276978 C45.53773385 177.46259637 47.26925889 175.73510003 48.99996948 174.00654602 C50.2147808 172.7981693 51.42973887 171.58994009 52.64483643 170.3818512 C55.18507381 167.8535583 57.72117451 165.32119675 60.25485229 162.78633118 C63.49044161 159.55053862 66.73957389 156.32872787 69.99242592 153.11030197 C72.50441741 150.6206235 75.00718929 148.1218304 77.50751877 145.62044525 C78.7011179 144.42919469 79.89793495 143.24115882 81.09810257 142.05652618 C91.1803981 132.42104309 91.1803981 132.42104309 96.08590698 119.64717102 C94.42553207 109.31594934 84.74041837 101.96120666 77.63668823 94.93232727 C76.37008728 93.66878818 75.10407997 92.40465374 73.83863831 91.13995361 C71.19798298 88.50388013 68.55252017 85.87276855 65.90304565 83.24555969 C62.50316678 79.87410687 59.11215997 76.49390248 55.7242403 73.11043644 C53.11600679 70.50635134 50.50495453 67.90510938 47.89284325 65.30491447 C46.64082593 64.05859953 45.38927922 62.81181163 44.13820839 61.56454659 C42.39591929 59.82910797 40.6502922 58.0971039 38.90353394 56.36616516 C38.12661446 55.59092247 38.12661446 55.59092247 37.33399963 54.80001831 C33.50047055 51.01256081 31.5811594 49.96111089 26.21090698 49.77217102 C22.01892211 49.79964143 20.87820534 49.88462023 17.39840698 52.45967102 C14.42462489 56.72209202 14.08898878 60.02103624 14.52340698 65.14717102 C17.63663496 70.7256225 22.03962967 74.90541039 26.57028198 79.35420227 C27.34148376 80.12020248 28.11268555 80.8862027 28.90725708 81.67541504 C31.35791133 84.10832779 33.81518435 86.53440753 36.27340698 88.95967102 C38.74499632 91.40368101 41.21512089 93.84912759 43.68240356 96.29748535 C45.21544939 97.81822826 46.75115932 99.33629086 48.28970337 100.85147095 C48.97751892 101.53275558 49.66533447 102.21404022 50.37399292 102.91596985 C50.98369934 103.51742325 51.59340576 104.11887665 52.22158813 104.73855591 C53.52340698 106.14717102 53.52340698 106.14717102 53.52340698 107.14717102 C6.97365857 113.11933606 6.97365857 113.11933606 -7.8302002 101.92662048 C-16.38266635 94.5807672 -23.64277925 85.94371202 -30.40188599 76.94941711 C-32.98579879 73.57479298 -35.84740842 70.92008271 -39.16534424 68.2752533 C-39.59805634 67.90298615 -40.03076843 67.53071899 -40.47659302 67.14717102 C-40.47659302 66.81717102 -40.47659302 66.48717102 -40.47659302 66.14717102 C-39.67995239 66.12138977 -38.88331177 66.09560852 -38.06253052 66.06904602 C-29.50150251 65.69530303 -29.50150251 65.69530303 -22.47659302 61.14717102 C-19.59533434 55.68214913 -19.05793879 51.32904566 -19.10549927 45.21357727 C-19.08811944 43.49547629 -19.07053503 41.77737738 -19.05276489 40.0592804 C-19.04270421 37.38240257 -19.03909558 34.70565876 -19.040802 32.02876282 C-19.03721091 29.42330582 -19.00979878 26.81885371 -18.98049927 24.21357727 C-18.98868179 23.42374954 -18.99686432 22.63392181 -19.0052948 21.82015991 C-18.91834823 15.25632628 -17.13243452 9.78797946 -12.40628052 5.08857727 C-11.72823364 4.63353821 -11.05018677 4.17849915 -10.35159302 3.70967102 C-9.66838989 3.23658508 -8.98518677 2.76349915 -8.28128052 2.27607727 C-5.28207056 0.3999481 -3.5206277 0.01832413 0 0 Z " fill="#004E00" transform="translate(203.47659301757813,136.8528289794922)"/>
<path d="M0 0 C0.89203125 -0.05414063 1.7840625 -0.10828125 2.703125 -0.1640625 C11.80355114 2.19271453 19.65311445 13.34663852 26.23828125 19.91015625 C26.82295858 20.49200621 27.40763592 21.07385616 28.01003075 21.67333794 C31.09604507 24.74446467 34.17925358 27.81837435 37.26000977 30.89477539 C40.43178867 34.06104295 43.61276281 37.21790337 46.79592609 40.37271976 C49.25539728 42.81354822 51.70811635 45.26107746 54.15904808 47.71047783 C55.32909943 48.87751271 56.50163937 50.04205833 57.67675209 51.20399666 C59.31814256 52.82827055 60.94973901 54.46181567 62.5793457 56.09790039 C63.97211479 57.48520103 63.97211479 57.48520103 65.39302063 58.90052795 C68.67425427 62.69336103 70.54120811 66.01431972 71.1875 71 C70.28905643 78.4442467 66.26741793 83.70614569 61.03515625 88.82568359 C60.47529022 89.38934631 59.91542419 89.95300903 59.33859253 90.53375244 C57.50615371 92.3735337 55.65983729 94.19862644 53.8125 96.0234375 C52.52669479 97.30685538 51.24163145 98.59101691 49.95727539 99.87588501 C47.27355736 102.55648631 44.58329013 105.230269 41.88769531 107.89892578 C38.43409136 111.31844879 34.99390283 114.75109331 31.55805969 118.18845177 C28.90952459 120.83644313 26.25581026 123.47919114 23.60031128 126.1201973 C22.32966985 127.38448085 21.06023041 128.64997364 19.79202271 129.91669846 C18.02126338 131.68311998 16.2440742 133.4428002 14.46484375 135.20068359 C13.9431662 135.72326752 13.42148865 136.24585144 12.88400269 136.78427124 C8.89318475 140.70529456 5.96208441 142.90812608 0.3125 142.9375 C-3.67416967 142.82621365 -6.17239008 142.34053816 -9.25 139.625 C-11.7912704 135.85690941 -12.97556407 132.27934215 -12.79273987 127.68103027 C-12.10819512 125.08780873 -11.00053573 123.82493244 -9.19116211 121.85351562 C-8.554758 121.15734131 -7.91835388 120.46116699 -7.26266479 119.74389648 C-4.07952205 116.39274234 -0.84732909 113.0991637 2.43359375 109.84375 C3.13396255 109.14479614 3.83433136 108.44584229 4.55592346 107.72570801 C6.76408458 105.52308461 8.97572037 103.32398919 11.1875 101.125 C12.69749814 99.62002492 14.2072659 98.11481865 15.71679688 96.609375 C19.39187641 92.94524171 23.07007356 89.2842652 26.75 85.625 C25.37936905 85.61953156 25.37936905 85.61953156 23.98104858 85.61395264 C15.3590403 85.57604605 6.73740924 85.51916293 -1.88433266 85.44109726 C-6.31662069 85.40163081 -10.7487103 85.36943834 -15.18115234 85.35400391 C-19.46078712 85.33883169 -23.73987637 85.30437656 -28.01926804 85.25669098 C-29.64983751 85.24188292 -31.28048487 85.23395931 -32.91112137 85.23311615 C-35.19996167 85.23074288 -37.48729873 85.20363755 -39.77587891 85.17089844 C-41.07715729 85.16201599 -42.37843567 85.15313354 -43.71914673 85.14398193 C-49.07411681 84.35688247 -52.11462271 81.87682624 -55.6875 77.9375 C-57.76598449 73.53111287 -57.74208813 70.2462101 -56.25 65.625 C-53.78544346 62.5767327 -51.50012376 60.79174917 -48.25 58.625 C-45.8054606 58.41280343 -43.47081965 58.31380479 -41.0246582 58.30615234 C-40.29270233 58.29610672 -39.56074646 58.2860611 -38.80661011 58.27571106 C-36.38800845 58.24482815 -33.96951775 58.22782996 -31.55078125 58.2109375 C-29.87354067 58.19222994 -28.19630954 58.17265683 -26.51908875 58.1522522 C-22.10506762 58.10088141 -17.69101595 58.06128223 -13.27685547 58.02410889 C-8.7723838 57.9841002 -4.26803967 57.93299358 0.23632812 57.8828125 C9.07412922 57.78599468 17.91200225 57.70160867 26.75 57.625 C26.2909024 57.17034363 25.83180481 56.71568726 25.35879517 56.24725342 C20.58374359 51.516431 15.81573247 46.77859734 11.05175781 42.03662109 C9.27263287 40.26755687 7.49171745 38.50029143 5.70898438 36.73486328 C3.14761665 34.19774013 0.59274648 31.65422901 -1.9609375 29.109375 C-2.75994476 28.32069031 -3.55895203 27.53200562 -4.38217163 26.71942139 C-5.12278839 25.97895569 -5.86340515 25.23848999 -6.62646484 24.47558594 C-7.27932465 23.82716736 -7.93218445 23.17874878 -8.60482788 22.51068115 C-11.27320009 19.45221747 -12.18701543 17.30523335 -12.5625 13.25 C-12.15776808 8.55510978 -10.99109419 5.221003 -7.46875 1.9921875 C-4.81472352 0.35678386 -3.1049317 0.09758357 0 0 Z " fill="#FCFDFC" transform="translate(229.25,185.375)"/>
<path d="M0 0 C3.25207092 1.41738489 5.31361067 3.12526412 7.75 5.6875 C10.95950202 9.052083 14.36810275 12.08969095 17.87695312 15.13305664 C21.28694661 18.13170201 24.57674022 21.25460935 27.875 24.375 C32.986417 29.19013705 38.13406904 33.95065617 43.375 38.625 C47.46814205 42.32831899 51.48459884 46.11326306 55.51025391 49.88964844 C59.78729668 53.89354845 64.12425733 57.81450587 68.55859375 61.64453125 C69.03425781 62.09183594 69.50992188 62.53914063 70 63 C70 63.33 70 63.66 70 64 C62.47463116 64.15272026 54.9496651 64.25745481 47.4230957 64.32958984 C44.8653266 64.35967554 42.30765991 64.40055486 39.75024414 64.45263672 C36.06370713 64.52580791 32.3785395 64.55954078 28.69140625 64.5859375 C27.55667374 64.61690521 26.42194122 64.64787292 25.25282288 64.67977905 C17.68148471 64.68295482 12.60376461 63.25930996 7 58 C5.28871306 55.70830769 4.21069992 53.62318315 3 51 C2.67 50.34 2.34 49.68 2 49 C1.88741048 47.57156011 1.83347252 46.13825316 1.81054688 44.70556641 C1.79382935 43.8176944 1.77711182 42.92982239 1.7598877 42.01504517 C1.74631226 41.05359589 1.73273682 40.09214661 1.71875 39.1015625 C1.70034058 38.11505707 1.68193115 37.12855164 1.66296387 36.1121521 C1.60409857 32.94982984 1.55134787 29.78745273 1.5 26.625 C1.43233065 22.4712402 1.35861111 18.31765178 1.28125 14.1640625 C1.26767456 13.20666168 1.25409912 12.24926086 1.2401123 11.2628479 C1.22339478 10.36867157 1.20667725 9.47449524 1.18945312 8.55322266 C1.17692505 7.76871735 1.16439697 6.98421204 1.15148926 6.17593384 C1.0006448 4.00926162 0.59337512 2.08515935 0 0 Z " fill="#004E00" transform="translate(183,311)"/>
<path d="M0 0 C38.115 0.495 38.115 0.495 77 1 C70.25 8.875 70.25 8.875 67.56494141 11.54858398 C66.66468735 12.44872475 66.66468735 12.44872475 65.74624634 13.36705017 C65.12100067 13.98713455 64.495755 14.60721893 63.8515625 15.24609375 C63.19417084 15.90207047 62.53677917 16.55804718 61.85946655 17.23390198 C59.78367138 19.30415268 57.70440573 21.37087651 55.625 23.4375 C54.2067992 24.85067862 52.78882824 26.26408794 51.37109375 27.67773438 C47.91671223 31.12116065 44.4592163 34.56143099 41 38 C37.8837538 36.50741224 35.6478612 34.93991728 33.13671875 32.55078125 C32.41419922 31.86693359 31.69167969 31.18308594 30.94726562 30.47851562 C30.20154297 29.76373047 29.45582031 29.04894531 28.6875 28.3125 C27.95337891 27.61705078 27.21925781 26.92160156 26.46289062 26.20507812 C23.00242582 22.91656188 19.58031953 19.59664931 16.21484375 16.2109375 C13.83874782 13.82121522 11.42637077 11.51692705 8.875 9.3125 C8.21242187 8.73757813 7.54984375 8.16265625 6.8671875 7.5703125 C5.27882573 6.23449361 3.64374179 4.95455097 2 3.6875 C1.34 3.130625 0.68 2.57375 0 2 C0 1.34 0 0.68 0 0 Z " fill="#024F02" transform="translate(180,269)"/>
</svg>
