<?xml version="1.0" encoding="UTF-8"?>
<svg version="1.1" xmlns="http://www.w3.org/2000/svg" width="512" height="512">
<path d="M0 0 C1.25579317 -0.00668677 1.25579317 -0.00668677 2.53695589 -0.01350862 C3.4516288 -0.01332426 4.36630171 -0.01313989 5.30869198 -0.01294994 C6.28440102 -0.01662663 7.26011006 -0.02030332 8.26538604 -0.02409142 C11.54398172 -0.03512896 14.82254571 -0.03897225 18.10115719 -0.04278088 C20.44840248 -0.04904553 22.79564677 -0.05569233 25.14288998 -0.0626936 C32.86001043 -0.08373803 40.57713109 -0.09409705 48.29427242 -0.10406017 C50.9512594 -0.10810773 53.60824628 -0.11222465 56.26523304 -0.11641026 C67.31858553 -0.13342164 78.37193703 -0.14791423 89.4253006 -0.155159 C92.29251322 -0.15706878 95.15972584 -0.15898913 98.02693844 -0.16094494 C98.73953856 -0.16142868 99.45213869 -0.16191242 100.18633275 -0.16241082 C111.7214467 -0.17070525 123.25645676 -0.1960326 134.79152537 -0.22852562 C146.64440727 -0.26164058 158.49723645 -0.27961181 170.35016483 -0.28280324 C177.00102668 -0.28496438 183.65175438 -0.29410094 190.30257511 -0.31926441 C196.56279963 -0.34256702 202.82275209 -0.34676931 209.08300877 -0.33650303 C211.37629508 -0.33600808 213.66959489 -0.34231632 215.96284008 -0.35605907 C232.09542646 -0.44729978 245.36767483 0.38396143 257.72786617 11.94672108 C267.83655988 22.75256608 270.10069165 34.66299163 270.03087521 48.97894764 C270.03343848 50.90642857 270.03343848 50.90642857 270.03605354 52.87284851 C270.04050874 56.42351194 270.03254867 59.97405387 270.02249742 63.52470183 C270.01383876 67.35963439 270.01678478 71.19456042 270.01830196 75.02950001 C270.01934929 81.66847823 270.01308863 88.30741707 270.00182629 94.94638538 C269.98555357 104.54514476 269.98036147 114.14388515 269.9778503 123.74265683 C269.97347598 139.31703669 269.96017401 154.89139557 269.94124508 170.46576405 C269.92287948 185.59239058 269.9087263 200.71901142 269.90022945 215.84564686 C269.89970401 216.77847469 269.89917856 217.71130251 269.89863719 218.67239785 C269.89602706 223.35224704 269.89349966 228.03209628 269.89101338 232.71194553 C269.87028907 271.5193854 269.83507069 310.32680185 269.79036617 349.13422108 C270.43658932 349.12977985 271.08281246 349.12533863 271.74861813 349.12076283 C278.49737485 349.0763865 285.24608985 349.04629534 291.99495602 349.0243578 C294.51092368 349.0143237 297.02687974 349.0006934 299.54280758 348.98334217 C303.16702296 348.95898011 306.79108362 348.94771177 310.41536617 348.93890858 C312.0923962 348.92342472 312.0923962 348.92342472 313.80330563 348.90762806 C323.36974662 348.90626537 332.05887499 349.96780649 339.45442867 356.63422108 C346.40451224 364.02938389 347.23846242 372.50232702 347.19441891 382.27850819 C347.20471378 383.89498501 347.20471378 383.89498501 347.21521664 385.54411793 C347.23342076 389.08340339 347.22965619 392.62224289 347.22395992 396.16156483 C347.22852465 398.63581453 347.23383109 401.11006297 347.23984432 403.58430958 C347.24876283 408.76139965 347.24636637 413.93833535 347.23641109 419.11542225 C347.22492121 425.73390163 347.24514042 432.35184748 347.27432823 438.97025681 C347.29271592 444.07737555 347.29239262 449.18436703 347.28669071 454.29151058 C347.28653782 456.73103617 347.29255508 459.17057056 347.30498219 461.61006451 C347.31993893 465.02722545 347.3091797 468.4434081 347.29207516 471.86053944 C347.30174313 472.85772999 347.31141109 473.85492054 347.32137203 474.88232899 C347.23455792 483.20808206 345.35544104 490.70641167 339.66536617 497.00922108 C330.53169749 504.92192291 320.15435878 504.70855276 308.71028805 504.64215565 C306.97636295 504.64676912 305.24244177 504.65312503 303.50852871 504.66106462 C298.7616601 504.67771973 294.01511432 504.66952896 289.26824474 504.65711975 C284.1420517 504.64805594 279.0159135 504.6620456 273.88973141 504.67303944 C263.85457876 504.69081501 253.81954586 504.68698893 243.78438854 504.67538887 C235.62776107 504.66635106 227.47116714 504.66513207 219.31453609 504.66948414 C218.1531265 504.67009707 216.99171691 504.67071 215.79511309 504.67134151 C213.43564573 504.67262043 211.07617838 504.67391728 208.71671104 504.67523187 C186.59804059 504.68663486 164.47943648 504.67352837 142.3607769 504.65203041 C123.38675261 504.6341597 104.4128262 504.63726389 85.43880367 504.65570545 C63.39864904 504.67711711 41.35855252 504.68553625 19.31838894 504.6732564 C16.96765805 504.67198222 14.61692716 504.67072473 12.26619625 504.66948414 C10.53134228 504.66855849 10.53134228 504.66855849 8.76144075 504.66761413 C0.61571354 504.66416213 -7.52997678 504.66998637 -15.67569828 504.67940235 C-25.60420062 504.69062697 -35.53257647 504.68757246 -45.46106434 504.66627938 C-50.52560988 504.65577529 -55.58994463 504.65163631 -60.65448856 504.66487598 C-65.2931537 504.67681883 -69.93141318 504.67020607 -74.57004166 504.64896578 C-76.24554482 504.64450775 -77.92108244 504.64674799 -79.59656334 504.65646893 C-90.27655153 504.71366646 -99.64030775 504.32472996 -108.08463383 497.00922108 C-114.62478616 489.76479379 -115.80268086 481.28148799 -115.71134281 471.86053944 C-115.7167458 470.7811359 -115.72214878 469.70173237 -115.72771549 468.58961964 C-115.74013897 465.05081536 -115.72375454 461.51283478 -115.70572758 457.97406483 C-115.7058827 455.49884976 -115.7073739 453.02363444 -115.71013737 450.54842091 C-115.71151847 445.37305367 -115.69901019 440.19796453 -115.67618656 435.02264881 C-115.64778844 428.40303747 -115.65054742 421.78388734 -115.66327667 415.16424179 C-115.67024503 410.05716002 -115.6624315 404.95018407 -115.65001965 399.84311581 C-115.64551748 397.40277545 -115.6451575 394.96242368 -115.64908504 392.52208233 C-115.65200892 389.10732225 -115.63543368 385.69318888 -115.61368656 382.27850819 C-115.61818821 381.2792934 -115.62268986 380.28007862 -115.62732792 379.2505846 C-115.52952122 369.96521376 -113.62386274 362.69528208 -107.17057133 355.86078358 C-100.88719638 350.32840962 -93.88357465 349.00102983 -85.66324711 349.02069569 C-84.60260044 349.02077122 -83.54195377 349.02084675 -82.4491663 349.02092457 C-80.75665241 349.0286665 -80.75665241 349.0286665 -79.02994633 349.03656483 C-77.27809528 349.03868725 -77.27809528 349.03868725 -75.49085331 349.04085255 C-71.77208709 349.04643609 -68.05338176 349.05898564 -64.33463383 349.07172108 C-61.80859303 349.0767382 -59.28255129 349.08130074 -56.75650883 349.08539295 C-50.57419649 349.09640014 -44.39191951 349.11312194 -38.20963383 349.13422108 C-38.21115271 348.47436325 -38.21267159 347.81450542 -38.2142365 347.1346519 C-38.30379897 308.00371483 -38.3724054 268.87279102 -38.41389515 229.74177216 C-38.41889782 225.04055704 -38.42407512 220.33934213 -38.42936039 215.63812733 C-38.43040963 214.70222201 -38.43145887 213.7663167 -38.43253991 212.80205062 C-38.4499329 197.65905359 -38.48146449 182.51611745 -38.51824501 167.37315652 C-38.55568522 151.82865179 -38.57787619 136.2841789 -38.58598781 120.73963094 C-38.59146919 111.15209565 -38.60876555 101.56473253 -38.64129969 91.97725025 C-38.66248562 85.39778887 -38.66882466 78.81841616 -38.66363934 72.23892316 C-38.66108388 68.44601947 -38.66492964 64.65341608 -38.68645573 60.86056614 C-38.70967261 56.73949304 -38.70154929 52.6190536 -38.69065189 48.49792957 C-38.70230326 47.31112591 -38.71395463 46.12432224 -38.72595906 44.90155482 C-38.63080635 31.54801568 -34.4144168 20.94957887 -25.36588383 11.13422108 C-18.62849324 4.72817756 -9.42529659 0.02336231 0 0 Z " fill="#007F00" transform="translate(140.20963382720947,-0.13422107696533203)"/>
<path d="M0 0 C1.88148072 0.02511882 3.76299381 0.04792565 5.64453125 0.06835938 C10.22216263 0.12306031 14.7982195 0.20913282 19.375 0.3125 C19.38958252 0.901521 19.40416504 1.49054199 19.41918945 2.09741211 C19.49453764 4.81553802 19.59090384 7.53254942 19.6875 10.25 C19.72133789 11.63928711 19.72133789 11.63928711 19.75585938 13.05664062 C20.09067199 21.73133121 21.57538188 29.29013022 27.625 35.80859375 C32.47573911 39.97719768 38.50797861 42.42573818 44.88246155 42.45967102 C45.80610504 42.46682632 46.72974854 42.47398163 47.68138123 42.48135376 C48.69281693 42.48404266 49.70425262 42.48673157 50.74633789 42.48950195 C51.81335938 42.49607315 52.88038086 42.50264435 53.97973633 42.50941467 C57.51904367 42.52916065 61.05830849 42.54081499 64.59765625 42.55078125 C65.80703794 42.55485678 67.01641964 42.5589323 68.26244926 42.56313133 C74.66707056 42.58400046 81.0716704 42.59829694 87.47631836 42.60766602 C94.08146952 42.61871481 100.68628234 42.65309513 107.29131413 42.69283772 C112.37782909 42.71903015 117.46426391 42.72736036 122.55084038 42.73094749 C124.98479935 42.73580887 127.41875484 42.74740992 129.85264778 42.76598549 C133.26800124 42.79042528 136.68248561 42.78940224 140.09790039 42.7824707 C141.09516647 42.79528076 142.09243256 42.80809082 143.11991882 42.82128906 C151.08847482 42.76263607 158.26877693 40.87170641 164.75 36.0625 C170.13356736 30.42257229 172.36260589 24.03144762 172.69140625 16.328125 C172.73330078 15.39355469 172.77519531 14.45898438 172.81835938 13.49609375 C172.85767578 12.52800781 172.89699219 11.55992188 172.9375 10.5625 C173.00227539 9.08716797 173.00227539 9.08716797 173.06835938 7.58203125 C173.17422052 5.15898725 173.27630171 2.7358446 173.375 0.3125 C178.76435067 0.21297367 184.1531561 0.14072341 189.54321289 0.09277344 C191.37338593 0.07276626 193.20349592 0.04555149 195.03344727 0.01074219 C197.67740512 -0.03826003 200.32051165 -0.06057761 202.96484375 -0.078125 C204.17478249 -0.10909271 204.17478249 -0.10909271 205.40916443 -0.14068604 C213.75847419 -0.14391951 220.71472982 2.98408079 226.87109375 8.59765625 C231.32678479 13.67830135 233.50072713 19.87476919 233.49804783 26.55426311 C233.50003888 27.64705568 233.50202993 28.73984825 233.50408131 29.86575574 C233.50116847 31.07099308 233.49825563 32.27623042 233.49525452 33.51799011 C233.49653615 35.43293753 233.49653615 35.43293753 233.49784368 37.38657075 C233.50008535 40.937095 233.49607181 44.48758923 233.49106562 48.03810966 C233.48675663 51.86426855 233.48820787 55.69042567 233.4889679 59.5165863 C233.48949284 66.148001 233.48634907 72.77940587 233.48073006 79.4108181 C233.47261114 88.99878671 233.46999943 98.58675056 233.46874207 108.17472223 C233.46655216 123.72968405 233.45989375 139.28464063 233.45043945 154.83959961 C233.44126374 169.95190403 233.43419515 185.06420703 233.42993164 200.17651367 C233.42966364 201.11717062 233.42939565 202.05782757 233.42911953 203.02698928 C233.42704017 210.38328693 233.42508322 217.73958461 233.42316496 225.0958823 C233.41372727 261.168093 233.39360991 297.24029061 233.375 333.3125 C142.955 333.3125 52.535 333.3125 -40.625 333.3125 C-40.74599405 255.62984044 -40.74599405 255.62984044 -40.77148438 223.20117188 C-40.77735794 215.77856425 -40.78341937 208.35595682 -40.78979492 200.93334961 C-40.79058617 200.00305457 -40.79137741 199.07275953 -40.79219264 198.11427373 C-40.80523838 183.09796193 -40.82888864 168.08168463 -40.85645839 153.06539328 C-40.88451904 137.65311284 -40.90117766 122.24085045 -40.90726548 106.82854551 C-40.91138055 97.31934323 -40.92437488 87.81023838 -40.9487494 78.30106609 C-40.96461472 71.77910236 -40.96939855 65.25718895 -40.96550413 58.73520733 C-40.96358383 54.97310552 -40.96651495 51.2111739 -40.98261642 47.4491024 C-40.99996187 43.36647512 -40.99395419 39.28420917 -40.98576355 35.20155334 C-40.99450207 34.017684 -41.0032406 32.83381465 -41.01224393 31.61407048 C-40.96084034 22.13690612 -39.6456085 14.13674816 -32.74169922 7.24487305 C-23.17867028 -1.48538925 -12.14498425 -0.28256548 0 0 Z " fill="#5EA45E" transform="translate(159.625,16.6875)"/>
<path d="M0 0 C1.25579317 -0.00668677 1.25579317 -0.00668677 2.53695589 -0.01350862 C3.4516288 -0.01332426 4.36630171 -0.01313989 5.30869198 -0.01294994 C6.28440102 -0.01662663 7.26011006 -0.02030332 8.26538604 -0.02409142 C11.54398172 -0.03512896 14.82254571 -0.03897225 18.10115719 -0.04278088 C20.44840248 -0.04904553 22.79564677 -0.05569233 25.14288998 -0.0626936 C32.86001043 -0.08373803 40.57713109 -0.09409705 48.29427242 -0.10406017 C50.9512594 -0.10810773 53.60824628 -0.11222465 56.26523304 -0.11641026 C67.31858553 -0.13342164 78.37193703 -0.14791423 89.4253006 -0.155159 C92.29251322 -0.15706878 95.15972584 -0.15898913 98.02693844 -0.16094494 C98.73953856 -0.16142868 99.45213869 -0.16191242 100.18633275 -0.16241082 C111.7214467 -0.17070525 123.25645676 -0.1960326 134.79152537 -0.22852562 C146.64440727 -0.26164058 158.49723645 -0.27961181 170.35016483 -0.28280324 C177.00102668 -0.28496438 183.65175438 -0.29410094 190.30257511 -0.31926441 C196.56279963 -0.34256702 202.82275209 -0.34676931 209.08300877 -0.33650303 C211.37629508 -0.33600808 213.66959489 -0.34231632 215.96284008 -0.35605907 C232.09542646 -0.44729978 245.36767483 0.38396143 257.72786617 11.94672108 C267.84871912 22.76556388 270.10054036 34.68544949 270.03087521 49.01691151 C270.03343848 50.95051777 270.03343848 50.95051777 270.03605354 52.92318678 C270.04050888 56.48525163 270.03254847 60.04719538 270.02249742 63.60924482 C270.01383897 67.45644744 270.01678477 71.30364354 270.01830196 75.15085316 C270.0193493 81.81111225 270.01308851 88.47133208 270.00182629 95.13158131 C269.98555375 104.76110977 269.98036148 114.3906193 269.9778503 124.02016002 C269.97347595 139.64445415 269.9601739 155.26872736 269.94124508 170.89301014 C269.92287955 186.06813929 269.90872634 201.24326274 269.90022945 216.41840076 C269.89970401 217.35421559 269.89917856 218.29003041 269.89863719 219.25420326 C269.89602706 223.94903652 269.89349966 228.64386983 269.89101338 233.33870316 C269.87028898 272.27055725 269.83492157 311.20238745 269.79036617 350.13422108 C264.18036617 350.13422108 258.57036617 350.13422108 252.79036617 350.13422108 C252.78889961 348.53455274 252.78743305 346.9348844 252.78592205 345.28674126 C252.75021547 307.30875861 252.69396765 269.33085379 252.61244522 231.35294071 C252.60242784 226.67790232 252.59258369 222.00286358 252.58284664 217.32782459 C252.58090527 216.39711358 252.5789639 215.46640256 252.57696369 214.50748818 C252.54594766 199.44009866 252.52896415 184.37272437 252.51717195 169.30530895 C252.50475834 153.84326237 252.47725218 138.38129568 252.43575311 122.91929954 C252.41062374 113.37939729 252.39724849 103.83962755 252.3989366 94.29969173 C252.39896637 87.75665152 252.38432817 81.21374624 252.35820189 74.67075861 C252.34356286 70.89648766 252.33534693 67.12249337 252.34456348 63.34819889 C252.354396 59.25228248 252.33331835 55.15709621 252.30934811 51.06123829 C252.31710852 49.87347799 252.32486894 48.6857177 252.33286452 47.46196467 C252.24584068 39.06381062 250.55338225 32.62208988 245.54036617 25.82172108 C239.0336212 19.46285668 231.82989375 17.99467305 222.96614742 17.81781483 C222.10474651 17.79703373 221.2433456 17.77625263 220.35584164 17.7548418 C217.60493073 17.68947199 214.85392462 17.63051976 212.10286617 17.57172108 C210.23762196 17.5285239 208.37238737 17.48490923 206.50716305 17.4408617 C201.93499493 17.33380345 197.36273107 17.23250054 192.79036617 17.13422108 C192.81393185 18.01775257 192.81393185 18.01775257 192.83797359 18.91913319 C192.90105817 21.63656135 192.93958608 24.35383469 192.97786617 27.07172108 C193.00300289 27.99791248 193.02813961 28.92410389 193.05403805 29.8783617 C193.1526328 39.24486305 191.31541124 46.4800772 184.82942867 53.40765858 C179.74321801 57.71437335 172.90966071 60.24613757 166.2761755 60.2813921 C165.35108685 60.2885474 164.42599819 60.29570271 163.47287655 60.30307484 C162.4598698 60.30576374 161.44686306 60.30845264 160.40315914 60.31122303 C158.80021748 60.32107983 158.80021748 60.32107983 157.16489315 60.33113575 C153.6207793 60.35088003 150.07670788 60.36253506 146.53255367 60.37250233 C144.71660891 60.37861562 144.71660891 60.37861562 142.86397839 60.38485241 C136.45402605 60.4057198 130.04409514 60.42001761 123.63411617 60.42938709 C117.01989886 60.44044172 110.40601887 60.4748293 103.79192066 60.51455879 C98.70115703 60.54073439 93.61047356 60.5490799 88.51964855 60.55266857 C86.08207202 60.55753349 83.64449905 60.56914467 81.20698833 60.58770657 C77.789036 60.61211282 74.3719536 60.61112953 70.95394039 60.60419178 C69.95307903 60.61700184 68.95221767 60.6298119 67.92102718 60.64301014 C59.00690451 60.5773015 51.91168337 57.89448552 45.29427242 51.84515858 C40.59614153 46.50027201 38.64996536 40.15995467 38.69270992 33.14984608 C38.69754391 31.74799061 38.69754391 31.74799061 38.70247555 30.31781483 C38.71504391 28.86568592 38.71504391 28.86568592 38.72786617 27.38422108 C38.73237789 26.40066639 38.73688961 25.4171117 38.74153805 24.40375233 C38.75330134 21.98051317 38.76973934 19.55739834 38.79036617 17.13422108 C33.27614783 17.15376417 27.76349817 17.20585254 22.24983883 17.28680897 C20.3781812 17.30986211 18.50639619 17.32435462 16.63460445 17.32977772 C0.68271058 17.21867146 0.68271058 17.21867146 -13.01358891 24.69061756 C-20.4203969 32.36974282 -20.64985705 41.88921688 -20.60836124 52.02327442 C-20.61500807 53.30094903 -20.6216549 54.57862364 -20.62850314 55.89501566 C-20.64644904 59.42062981 -20.64598123 62.94603247 -20.64237368 66.47168148 C-20.6417479 70.28140911 -20.65838793 74.09106697 -20.67289066 77.9007616 C-20.69564716 84.49442091 -20.70755668 91.0880275 -20.71201992 97.68172359 C-20.71848875 107.2149911 -20.74143903 116.74816342 -20.76836322 126.28139251 C-20.81160447 141.7498187 -20.84158642 157.21824088 -20.86319828 172.68671131 C-20.88421595 187.70951784 -20.91149793 202.73229153 -20.94718266 217.75507069 C-20.95048089 219.14495736 -20.95048089 219.14495736 -20.95384576 220.56292254 C-20.96491561 225.21153324 -20.97610838 229.86014364 -20.98736227 234.5087539 C-21.08050968 273.05054798 -21.15190367 311.59235874 -21.20963383 350.13422108 C-26.81963383 350.13422108 -32.42963383 350.13422108 -38.20963383 350.13422108 C-38.30093442 310.20936642 -38.37169844 270.2845282 -38.41389515 230.35958989 C-38.41889782 225.6433535 -38.42407512 220.92711732 -38.42936039 216.21088123 C-38.43040963 215.27198531 -38.43145887 214.33308938 -38.43253991 213.36574206 C-38.44993302 198.17424618 -38.48146468 182.98281101 -38.51824501 167.79135111 C-38.55568488 152.19712582 -38.57787612 136.60293228 -38.58598781 121.00866389 C-38.59146926 111.39041938 -38.608766 101.77234648 -38.64129969 92.15415481 C-38.6624852 85.5536687 -38.66882475 78.95327099 -38.66363934 72.35275337 C-38.66108382 68.54769846 -38.66493039 64.74294289 -38.68645573 60.93794155 C-38.70967143 56.80373188 -38.7015496 52.67015387 -38.69065189 48.53589344 C-38.70230326 47.34519882 -38.71395463 46.15450421 -38.72595906 44.92772794 C-38.63101324 31.56169615 -34.42391252 20.95987932 -25.36588383 11.13422108 C-18.62849324 4.72817756 -9.42529659 0.02336231 0 0 Z " fill="#30323D" transform="translate(140.20963382720947,-0.13422107696533203)"/>
<path d="M0 0 C1.23234375 -0.00322266 2.4646875 -0.00644531 3.734375 -0.00976562 C14.47100453 0.0529217 24.19291166 1.40612793 34.1875 5.375 C34.95594238 5.67954102 35.72438477 5.98408203 36.51611328 6.29785156 C60.37107832 16.14055951 78.75688973 35.85385562 88.72265625 59.51171875 C89.74528603 62.42407504 90.59404714 65.32673578 91.375 68.3125 C91.67148437 69.33988281 91.96796875 70.36726563 92.2734375 71.42578125 C97.87485672 93.29187189 94.37881013 116.30487974 84.375 136.3125 C28.935 136.3125 -26.505 136.3125 -83.625 136.3125 C-94.28800162 110.72129611 -98.14480492 85.51591379 -87.71582031 59.00097656 C-77.66041821 35.78437539 -59.6579911 16.34220797 -36.1875 6.5 C-35.20535522 6.08331055 -35.20535522 6.08331055 -34.20336914 5.65820312 C-22.97912412 1.17994592 -12.02017519 -0.1581602 0 0 Z " fill="#ECC626" transform="translate(255.625,213.6875)"/>
<path d="M0 0 C13.56907837 10.01762621 22.34508587 23.53424905 25.57810974 40.10980225 C26.32921539 45.25532011 26.24367767 50.38032868 26.1953125 55.5703125 C26.1924826 56.73255341 26.18965271 57.89479431 26.18673706 59.09225464 C26.17562659 62.76994537 26.150539 66.44738405 26.125 70.125 C26.1149584 72.63280896 26.10583462 75.14062177 26.09765625 77.6484375 C26.07571722 83.76570963 26.04233165 89.8828368 26 96 C22.59617421 94.34421921 19.53941981 92.39349442 16.375 90.3125 C11.09718125 86.97760609 5.68280305 84.40641853 -0.125 82.125 C-0.83994629 81.83923096 -1.55489258 81.55346191 -2.29150391 81.2590332 C-21.2496728 74.09653299 -45.9999255 74.03764393 -65 81 C-66.78664062 81.63615234 -66.78664062 81.63615234 -68.609375 82.28515625 C-76.36186619 85.32352343 -82.80282655 89.32745474 -89.453125 94.2421875 C-92 96 -92 96 -94 96 C-94.10253894 88.74507915 -94.17193651 81.4903493 -94.21972656 74.23486328 C-94.23967724 71.77352923 -94.26684764 69.31224155 -94.30175781 66.85107422 C-94.62175831 43.68868526 -93.15664014 24.96243527 -76.4453125 7.31640625 C-55.02540642 -12.97433545 -24.94750106 -16.19921567 0 0 Z " fill="#30333D" transform="translate(290,138)"/>
<path d="M0 0 C6.16139678 3.75041543 11.16111416 8.07894409 13.06640625 15.2578125 C13.83036648 22.76719433 13.99090493 29.67026115 10.06640625 36.2578125 C9.38191406 36.95003906 8.69742188 37.64226562 7.9921875 38.35546875 C5.29374578 42.42228862 5.5076046 45.85454437 5.50390625 50.6328125 C5.46149138 58.38867371 4.88460547 63.92047132 -0.30859375 70.0703125 C-4.6921127 73.72324496 -8.18894196 74.69466284 -13.953125 74.5 C-19.90341518 73.7723511 -23.13353262 70.27363514 -26.734375 65.87890625 C-28.85359832 63.01415812 -29.05380162 61.19007303 -29.07421875 57.6796875 C-29.09355469 56.76574219 -29.11289063 55.85179687 -29.1328125 54.91015625 C-29.16638966 52.99109257 -29.18487434 51.07169936 -29.1875 49.15234375 C-29.36119168 42.63433502 -30.32568646 39.86571979 -34.93359375 35.2578125 C-38.59430938 29.86131682 -37.71712671 21.52447055 -36.93359375 15.2578125 C-34.48657308 7.31591953 -28.67211086 2.41464929 -21.68359375 -1.6171875 C-14.08885972 -3.89560771 -7.09964055 -3.63237423 0 0 Z " fill="#DB9C1F" transform="translate(267.93359375,275.7421875)"/>
<path d="M0 0 C5.10660845 1.56990726 8.62000747 5.97385572 12.26171875 9.6953125 C13.28733519 10.71268178 14.31472691 11.72826403 15.34375 12.7421875 C18.00452394 15.37254776 20.63865538 18.02736782 23.26171875 20.6953125 C26.72200188 19.22628789 28.77890328 17.31982676 31.30859375 14.5625 C32.07171875 13.75683594 32.83484375 12.95117188 33.62109375 12.12109375 C35.21147641 10.42416585 36.78973509 8.71579122 38.35546875 6.99609375 C44.91536136 0.13902479 44.91536136 0.13902479 49.6484375 0.01171875 C53.26171875 0.6953125 53.26171875 0.6953125 56.32421875 2.7578125 C58.26171875 5.6953125 58.26171875 5.6953125 58.51171875 9.0078125 C56.78608939 14.09841911 54.01600428 16.92259349 50.26171875 20.6953125 C49.73271973 21.23124023 49.2037207 21.76716797 48.65869141 22.31933594 C44.88652293 26.13880104 41.08336325 29.92538951 37.26171875 33.6953125 C41.74342574 39.20140965 46.66165477 44.15207736 51.76635742 49.07495117 C55.26828687 52.50303704 57.80904685 55.17328332 58.69921875 60.1328125 C58.06856065 63.8266671 56.01298242 65.27956879 53.26171875 67.6953125 C52.93171875 68.0253125 52.60171875 68.3553125 52.26171875 68.6953125 C45.23671052 68.6953125 42.07881138 65.48886884 37.26171875 60.6953125 C36.72579102 60.16631348 36.18986328 59.63731445 35.63769531 59.09228516 C31.81823021 55.32011668 28.03164174 51.516957 24.26171875 47.6953125 C20.57578625 50.75205398 17.06862897 53.80990815 13.796875 57.30859375 C13.22388672 57.91638672 12.65089844 58.52417969 12.06054688 59.15039062 C10.89502052 60.39720228 9.74143548 61.65527614 8.59960938 62.92382812 C5.59521255 66.06984634 3.3925691 68.0513552 -0.9921875 68.734375 C-4.73828125 68.6953125 -4.73828125 68.6953125 -7.73828125 66.7578125 C-9.73641956 63.69816321 -10.52757379 61.69133736 -10.43359375 58.02905273 C-8.82339128 52.62458453 -3.74702469 48.92236045 0.26171875 45.1953125 C1.22707831 44.27012226 2.1906415 43.34305379 3.15234375 42.4140625 C5.50513217 40.15538561 7.87449107 37.91746592 10.26171875 35.6953125 C8.84765056 32.47125489 7.15174246 30.35973674 4.63671875 27.91015625 C3.9303125 27.21470703 3.22390625 26.51925781 2.49609375 25.80273438 C1.75875 25.08666016 1.02140625 24.37058594 0.26171875 23.6328125 C-1.19885113 22.20671411 -2.65727892 20.77841766 -4.11328125 19.34765625 C-4.76039063 18.71851318 -5.4075 18.08937012 -6.07421875 17.44116211 C-8.90933343 14.4667042 -9.71710757 12.91763617 -10.11328125 8.7578125 C-10.01668642 5.84386859 -9.78267881 4.76930844 -8.23828125 2.1953125 C-5.46779356 0.53301989 -3.25468626 -0.18048168 0 0 Z " fill="#004D00" transform="translate(146.73828125,392.3046875)"/>
<path d="M0 0 C5.10660845 1.56990726 8.62000747 5.97385572 12.26171875 9.6953125 C13.28733519 10.71268178 14.31472691 11.72826403 15.34375 12.7421875 C18.00452394 15.37254776 20.63865538 18.02736782 23.26171875 20.6953125 C26.60756839 19.24488341 28.76225911 17.41792425 31.30078125 14.81640625 C32.04585938 14.06037109 32.7909375 13.30433594 33.55859375 12.52539062 C34.71101563 11.34106445 34.71101563 11.34106445 35.88671875 10.1328125 C37.41835044 8.56683359 38.9521007 7.00292311 40.48828125 5.44140625 C41.16455566 4.74716553 41.84083008 4.0529248 42.53759766 3.33764648 C44.98720759 1.00423866 46.14547254 0.71066577 49.57421875 0.2578125 C53.26171875 0.6953125 53.26171875 0.6953125 56.19921875 3.3828125 C58.34630652 6.83116559 58.8100093 7.80421829 58.26171875 11.6953125 C56.71484375 13.94921875 56.71484375 13.94921875 54.51171875 16.2578125 C53.70347656 17.11246094 52.89523437 17.96710938 52.0625 18.84765625 C47.16150261 23.8306787 42.2417223 28.79114657 37.26171875 33.6953125 C41.74342574 39.20140965 46.66165477 44.15207736 51.76635742 49.07495117 C55.26828687 52.50303704 57.80904685 55.17328332 58.69921875 60.1328125 C58.06856065 63.8266671 56.01298242 65.27956879 53.26171875 67.6953125 C52.93171875 68.0253125 52.60171875 68.3553125 52.26171875 68.6953125 C45.23671052 68.6953125 42.07881138 65.48886884 37.26171875 60.6953125 C36.72579102 60.16631348 36.18986328 59.63731445 35.63769531 59.09228516 C31.81823021 55.32011668 28.03164174 51.516957 24.26171875 47.6953125 C20.57578625 50.75205398 17.06862897 53.80990815 13.796875 57.30859375 C13.22388672 57.91638672 12.65089844 58.52417969 12.06054688 59.15039062 C10.89502052 60.39720228 9.74143548 61.65527614 8.59960938 62.92382812 C5.59521255 66.06984634 3.3925691 68.0513552 -0.9921875 68.734375 C-4.73828125 68.6953125 -4.73828125 68.6953125 -7.73828125 66.7578125 C-9.73641956 63.69816321 -10.52757379 61.69133736 -10.43359375 58.02905273 C-8.82339128 52.62458453 -3.74702469 48.92236045 0.26171875 45.1953125 C1.22707831 44.27012226 2.1906415 43.34305379 3.15234375 42.4140625 C5.50513217 40.15538561 7.87449107 37.91746592 10.26171875 35.6953125 C8.84765056 32.47125489 7.15174246 30.35973674 4.63671875 27.91015625 C3.9303125 27.21470703 3.22390625 26.51925781 2.49609375 25.80273438 C1.75875 25.08666016 1.02140625 24.37058594 0.26171875 23.6328125 C-1.19885113 22.20671411 -2.65727892 20.77841766 -4.11328125 19.34765625 C-4.76039063 18.71851318 -5.4075 18.08937012 -6.07421875 17.44116211 C-8.90933343 14.4667042 -9.71710757 12.91763617 -10.11328125 8.7578125 C-10.01668642 5.84386859 -9.78267881 4.76930844 -8.23828125 2.1953125 C-5.46779356 0.53301989 -3.25468626 -0.18048168 0 0 Z " fill="#004D00" transform="translate(402.73828125,392.3046875)"/>
<path d="M0 0 C3.05884953 1.92694045 5.4643066 4.43952784 8 7 C9.13209244 8.12051963 10.26496557 9.24025082 11.3984375 10.359375 C14.61995752 13.55246727 17.81459846 16.7708963 21 20 C24.22405761 18.58593181 26.33557576 16.89002371 28.78515625 14.375 C29.48060547 13.66859375 30.17605469 12.9621875 30.89257812 12.234375 C31.60865234 11.49703125 32.32472656 10.7596875 33.0625 10 C34.48859839 8.53943012 35.91689484 7.08100233 37.34765625 5.625 C37.97679932 4.97789062 38.60594238 4.33078125 39.25415039 3.6640625 C42.2286083 0.82894782 43.77767633 0.02117368 47.9375 -0.375 C50.85144391 -0.27840517 51.92600406 -0.04439756 54.5 1.5 C56.16229261 4.27048769 56.87579418 6.48359499 56.6953125 9.73828125 C55.12540524 14.8448897 50.72145678 18.35828872 47 22 C45.98263072 23.02561644 44.96704847 24.05300816 43.953125 25.08203125 C41.32276474 27.74280519 38.66794468 30.37693663 36 33 C37.45042909 36.34584964 39.27738825 38.50054036 41.87890625 41.0390625 C42.63494141 41.78414063 43.39097656 42.52921875 44.16992188 43.296875 C45.35424805 44.44929688 45.35424805 44.44929688 46.5625 45.625 C48.12847891 47.15663169 49.69238939 48.69038195 51.25390625 50.2265625 C52.29526733 51.24097412 52.29526733 51.24097412 53.35766602 52.27587891 C55.69107384 54.72548884 55.98464673 55.88375379 56.4375 59.3125 C56 63 56 63 53.3125 65.9375 C49.86414691 68.08458777 48.89109421 68.54829055 45 68 C42.74609375 66.453125 42.74609375 66.453125 40.4375 64.25 C39.58285156 63.44175781 38.72820312 62.63351562 37.84765625 61.80078125 C32.8646338 56.89978386 27.90416593 51.98000355 23 47 C17.48092613 51.49226943 12.50471904 56.42495867 7.5324707 61.50463867 C6.99066162 62.05482666 6.44885254 62.60501465 5.890625 63.171875 C5.16407715 63.9158252 5.16407715 63.9158252 4.42285156 64.67480469 C2.04522437 66.88924538 0.36003141 67.95303938 -2.875 68.375 C-6.71852258 67.91377729 -8.25600111 66.66559892 -11 64 C-12.42008439 61.15983122 -12.29544274 59.14879759 -12 56 C-10.453125 53.6484375 -10.453125 53.6484375 -8.25 51.375 C-7.44175781 50.529375 -6.63351562 49.68375 -5.80078125 48.8125 C-4.87652344 47.884375 -3.95226562 46.95625 -3 46 C-1.91012771 44.8958615 -0.82028502 43.79169379 0.26953125 42.6875 C3.16043755 39.77186323 6.07452323 36.88092636 9 34 C4.50773057 28.48092613 -0.42495867 23.50471904 -5.50463867 18.5324707 C-6.05482666 17.99066162 -6.60501465 17.44885254 -7.171875 16.890625 C-7.6678418 16.40625977 -8.16380859 15.92189453 -8.67480469 15.42285156 C-10 14 -10 14 -12 11 C-11.8616853 7.19634586 -11.49915469 4.74873203 -9.375 1.5625 C-5.88777372 -0.73172781 -4.11242371 -0.75394435 0 0 Z " fill="#004D00" transform="translate(319,393)"/>
<path d="M0 0 C3.05884953 1.92694045 5.4643066 4.43952784 8 7 C9.13209244 8.12051963 10.26496557 9.24025082 11.3984375 10.359375 C14.61995752 13.55246727 17.81459846 16.7708963 21 20 C24.22405761 18.58593181 26.33557576 16.89002371 28.78515625 14.375 C29.48060547 13.66859375 30.17605469 12.9621875 30.89257812 12.234375 C31.60865234 11.49703125 32.32472656 10.7596875 33.0625 10 C34.48859839 8.53943012 35.91689484 7.08100233 37.34765625 5.625 C37.97679932 4.97789062 38.60594238 4.33078125 39.25415039 3.6640625 C42.2286083 0.82894782 43.77767633 0.02117368 47.9375 -0.375 C50.85144391 -0.27840517 51.92600406 -0.04439756 54.5 1.5 C56.16229261 4.27048769 56.87579418 6.48359499 56.6953125 9.73828125 C55.12540524 14.8448897 50.72145678 18.35828872 47 22 C45.98263072 23.02561644 44.96704847 24.05300816 43.953125 25.08203125 C41.32276474 27.74280519 38.66794468 30.37693663 36 33 C37.45042909 36.34584964 39.27738825 38.50054036 41.87890625 41.0390625 C42.63494141 41.78414063 43.39097656 42.52921875 44.16992188 43.296875 C45.35424805 44.44929688 45.35424805 44.44929688 46.5625 45.625 C48.12847891 47.15663169 49.69238939 48.69038195 51.25390625 50.2265625 C52.29526733 51.24097412 52.29526733 51.24097412 53.35766602 52.27587891 C55.69107384 54.72548884 55.98464673 55.88375379 56.4375 59.3125 C56 63 56 63 53.3125 65.9375 C49.86414691 68.08458777 48.89109421 68.54829055 45 68 C42.74609375 66.453125 42.74609375 66.453125 40.4375 64.25 C39.58285156 63.44175781 38.72820312 62.63351562 37.84765625 61.80078125 C32.8646338 56.89978386 27.90416593 51.98000355 23 47 C17.48092613 51.49226943 12.50471904 56.42495867 7.5324707 61.50463867 C6.99066162 62.05482666 6.44885254 62.60501465 5.890625 63.171875 C5.16407715 63.9158252 5.16407715 63.9158252 4.42285156 64.67480469 C2.04522437 66.88924538 0.36003141 67.95303938 -2.875 68.375 C-6.71852258 67.91377729 -8.25600111 66.66559892 -11 64 C-12.42008439 61.15983122 -12.29544274 59.14879759 -12 56 C-10.453125 53.6484375 -10.453125 53.6484375 -8.25 51.375 C-7.44175781 50.529375 -6.63351563 49.68375 -5.80078125 48.8125 C-4.87652344 47.884375 -3.95226562 46.95625 -3 46 C-1.91012771 44.8958615 -0.82028502 43.79169379 0.26953125 42.6875 C3.16043755 39.77186323 6.07452323 36.88092636 9 34 C4.50773057 28.48092613 -0.42495867 23.50471904 -5.50463867 18.5324707 C-6.05482666 17.99066162 -6.60501465 17.44885254 -7.171875 16.890625 C-7.6678418 16.40625977 -8.16380859 15.92189453 -8.67480469 15.42285156 C-10 14 -10 14 -12 11 C-11.8616853 7.19634586 -11.49915469 4.74873203 -9.375 1.5625 C-5.88777372 -0.73172781 -4.11242371 -0.75394435 0 0 Z " fill="#004D00" transform="translate(63,393)"/>
<path d="M0 0 C5.38784667 1.09583322 7.88571641 3.91106543 11.6875 7.75 C12.81959244 8.87051963 13.95246557 9.99025082 15.0859375 11.109375 C18.30745752 14.30246727 21.50209846 17.5208963 24.6875 20.75 C28.03334964 19.29957091 30.18804036 17.47261175 32.7265625 14.87109375 C33.47164063 14.11505859 34.21671875 13.35902344 34.984375 12.58007812 C36.13679688 11.39575195 36.13679688 11.39575195 37.3125 10.1875 C38.84413169 8.62152109 40.37788195 7.05761061 41.9140625 5.49609375 C42.59033691 4.80185303 43.26661133 4.1076123 43.96337891 3.39233398 C46.428222 1.04441562 47.5400572 0.76669164 51 0.375 C54.6875 0.75 54.6875 0.75 57.625 2.875 C59.6875 5.75 59.6875 5.75 60.4375 8.5625 C59.26482474 13.54636984 56.24422451 16.17652483 52.6875 19.75 C52.12466309 20.31976563 51.56182617 20.88953125 50.98193359 21.4765625 C46.91082482 25.59534234 42.80813326 29.68080322 38.6875 33.75 C42.89794335 38.78830318 47.30993483 43.47106922 52 48.0625 C53.24838106 49.28542986 54.49458812 50.51058417 55.73828125 51.73828125 C56.28137939 52.26977783 56.82447754 52.80127441 57.3840332 53.34887695 C59.33278376 55.44362867 59.68041641 56.68624767 60 59.5625 C59.60395896 63.60211856 58.69908942 65.04729155 55.6875 67.75 C52.4375 69 52.4375 69 48.6875 68.75 C45.5585246 66.91480319 43.2097574 64.33221598 40.6875 61.75 C39.48204921 60.55309366 38.2748726 59.35792409 37.06640625 58.1640625 C33.58480088 54.71411209 30.13146923 51.23750255 26.6875 47.75 C23.23856156 49.22971211 21.04267546 51.17359532 18.4296875 53.84765625 C17.63949219 54.64880859 16.84929687 55.44996094 16.03515625 56.27539062 C15.21917969 57.11263672 14.40320313 57.94988281 13.5625 58.8125 C11.93711294 60.47222622 10.30961373 62.12988747 8.6796875 63.78515625 C7.60243408 64.88935913 7.60243408 64.88935913 6.50341797 66.01586914 C4.18800279 68.22700036 3.07070238 68.69890635 -0.125 69.125 C-3.3125 68.75 -3.3125 68.75 -6.1875 66.6875 C-8.3125 63.75 -8.3125 63.75 -9.0625 60.4375 C-7.96351676 55.03416574 -5.1650793 52.56629127 -1.3125 48.75 C-0.1177901 47.54366109 1.07615625 46.33656573 2.26953125 45.12890625 C5.72164519 41.64822248 9.19937948 38.19457949 12.6875 34.75 C9.63075852 31.0640675 6.57290435 27.55691022 3.07421875 24.28515625 C2.46642578 23.71216797 1.85863281 23.13917969 1.23242188 22.54882812 C-0.01438978 21.38330177 -1.27246364 20.22971673 -2.54101562 19.08789062 C-5.68626885 16.08422436 -7.66921271 13.87911591 -8.35546875 9.49609375 C-8.3125 5.75 -8.3125 5.75 -6.3125 2.75 C-3.3125 0.75 -3.3125 0.75 0 0 Z " fill="#004C00" transform="translate(230.3125,392.25)"/>
<path d="M0 0 C7.77012214 4.43471601 12.21706724 10.42439509 14.6875 19 C15.04430256 21.75443607 15.04161035 24.44508854 14.98046875 27.21875 C14.97622391 27.96209595 14.97197906 28.70544189 14.96760559 29.47131348 C14.95099081 31.81459858 14.91337454 34.15698077 14.875 36.5 C14.85993078 38.10154996 14.84624632 39.70311358 14.83398438 41.3046875 C14.80114426 45.20346583 14.74948563 49.10158056 14.6875 53 C13.99019775 52.85852539 13.29289551 52.71705078 12.57446289 52.57128906 C4.37065526 51.03992958 -3.54287786 50.69773368 -11.875 50.75 C-13.11185547 50.74226563 -14.34871094 50.73453125 -15.62304688 50.7265625 C-23.06943588 50.74231372 -30.04510106 51.35906487 -37.3125 53 C-37.41218761 48.32273411 -37.48434934 43.64610125 -37.53222656 38.96801758 C-37.55220745 37.38034274 -37.57940203 35.79274021 -37.61425781 34.20532227 C-37.8592935 22.74990385 -37.30249178 13.34457868 -29.125 4.57421875 C-20.69621245 -2.74647388 -10.2673354 -4.58057148 0 0 Z " fill="#5EA35E" transform="translate(267.3125,164)"/>
</svg>
