<?xml version="1.0" encoding="UTF-8"?>
<svg version="1.1" xmlns="http://www.w3.org/2000/svg" width="512" height="512">
<path d="M0 0 C1.7466394 0.53693481 1.7466394 0.53693481 3.52856445 1.0847168 C54.68907612 17.1501446 103.49593644 42.74040661 144.65429688 77.19677734 C147.1334541 79.25453412 149.66580137 81.24475094 152.1875 83.25 C170.02955742 97.90693975 170.02955742 97.90693975 171.94921875 107.4921875 C172.31046249 117.08383169 169.04981597 123.46690536 164.49951172 131.59423828 C162.71975856 134.80830402 161.07569538 138.08707844 159.4375 141.375 C159.10927246 142.03242188 158.78104492 142.68984375 158.44287109 143.3671875 C113.679483 233.63027486 101.3221361 338.14629127 119.1875 436.9375 C120.60005386 444.91224029 121.55076361 452.90882409 116.74291992 459.93896484 C110.8152201 467.2451749 101.50218338 470.62527663 93.125 474.3125 C92.44715454 474.6142514 91.76930908 474.91600281 91.07092285 475.22689819 C34.40689621 500.44962326 -13.37224822 517.70410123 -73.625 495.625 C-75.9542917 494.62748263 -78.27462974 493.60881967 -80.5859375 492.5703125 C-90.77164914 487.34359994 -90.77164914 487.34359994 -101.76025391 485.94091797 C-105.53462281 487.54434191 -108.23503158 490.32965774 -111.06298828 493.21923828 C-113.90035981 495.77278396 -117.26521411 497.30407271 -120.6875 498.9375 C-121.36659424 499.26814453 -122.04568848 499.59878906 -122.74536133 499.93945312 C-137.63202228 507.0346786 -151.98480253 508.9453358 -168.2890625 508.9609375 C-169.8917146 508.96738494 -171.49436558 508.97411464 -173.09701538 508.98110962 C-176.44377361 508.99301907 -179.79042914 508.99679718 -183.13720703 508.99560547 C-187.37624797 508.995403 -191.61461311 509.02265857 -195.85349464 509.05714989 C-199.16200642 509.07965082 -202.47036174 509.08343596 -205.77894211 509.08238602 C-207.33908787 509.0847091 -208.89924023 509.09334078 -210.45930862 509.10905075 C-240.40926918 509.38236346 -265.7952772 496.71176568 -287.09765625 476.20751953 C-313.96984444 449.54584235 -328.57595353 409.62753469 -328.9471283 372.14923096 C-328.95470148 369.9326567 -328.94872413 367.71655556 -328.9375 365.5 C-328.93534485 364.73153748 -328.9331897 363.96307495 -328.93096924 363.17132568 C-328.87684277 351.1173922 -328.39136275 339.40627534 -325.625 327.625 C-325.42632324 326.77873047 -325.22764648 325.93246094 -325.02294922 325.06054688 C-321.23450016 309.54351356 -315.32810827 287.21350463 -303.640625 275.6640625 C-301.3492572 273.26854162 -300.35752706 271.88317249 -299.625 268.625 C-300.73600745 262.67948316 -303.76211831 257.13580212 -306.26611328 251.68017578 C-308.72880741 246.1433173 -310.85725163 240.47923474 -313 234.8125 C-313.46583496 233.58241211 -313.93166992 232.35232422 -314.41162109 231.08496094 C-324.18354199 205.09047554 -331.67598945 178.48705391 -338.625 151.625 C-338.80897842 150.91987274 -338.99295685 150.21474548 -339.18251038 149.48825073 C-341.03624687 142.26955776 -342.35148347 134.26224899 -339.6796875 127.0859375 C-335.54162509 120.13711573 -329.58463814 116.86083561 -322.3125 113.875 C-321.48854736 113.53428467 -320.66459473 113.19356934 -319.81567383 112.8425293 C-285.10445206 98.77424685 -251.02049014 92.81187326 -213.625 93.625 C-213.62935059 92.88781738 -213.63370117 92.15063477 -213.63818359 91.39111328 C-213.66147026 84.4173119 -213.54817067 77.46725461 -213.25 70.5 C-213.2190625 69.58863281 -213.188125 68.67726563 -213.15625 67.73828125 C-212.35975088 49.07365178 -212.35975088 49.07365178 -205.625 42.625 C-198.68833053 38.36635995 -191.65842237 37.23826551 -183.6875 36 C-183.02816467 35.89483063 -182.36882935 35.78966125 -181.68951416 35.68130493 C-139.46297632 28.96578517 -92.38992742 27.85390282 -51.625 42.625 C-51.25246094 41.41199219 -50.87992187 40.19898438 -50.49609375 38.94921875 C-48.36629444 32.56731572 -45.52194982 26.53104925 -42.6875 20.4375 C-42.16220703 19.28830078 -41.63691406 18.13910156 -41.09570312 16.95507812 C-34.28615559 2.23656926 -34.28615559 2.23656926 -27.625 -2.375 C-18.42942486 -5.44019171 -8.91637781 -2.81608106 0 0 Z " fill="#007F00" transform="translate(340.625,3.375)"/>
<path d="M0 0 C1.56020726 -0.00644764 3.12041338 -0.01317736 4.68061829 -0.02017212 C7.93741655 -0.03207779 11.19410929 -0.03586001 14.45092773 -0.03466797 C18.57797407 -0.03446536 22.70432737 -0.06173739 26.83121014 -0.09621239 C30.05132514 -0.11869997 33.27127922 -0.12249889 36.49146461 -0.12144852 C38.01057123 -0.12377295 39.52968452 -0.13241274 41.04871178 -0.14811325 C71.20461146 -0.43060868 96.96600446 12.99175615 118.2109375 33.66796875 C147.34569754 63.13080491 159.88094373 104.86899854 160.05078125 145.5234375 C159.98249876 153.62539195 159.35097426 161.38334512 157.73828125 169.3359375 C157.53203125 170.56957031 157.32578125 171.80320312 157.11328125 173.07421875 C151.45769632 206.7220509 136.2067039 234.82207052 112.73828125 259.3359375 C111.52011719 260.61017578 111.52011719 260.61017578 110.27734375 261.91015625 C90.93995937 280.38479579 65.13466586 287.64693751 39.07421875 287.671875 C37.47156665 287.67832244 35.86891567 287.68505214 34.26626587 287.69204712 C30.91950764 287.70395657 27.57285211 287.70773468 24.22607422 287.70654297 C19.98703328 287.7063405 15.74866814 287.73359607 11.50978661 287.76808739 C8.20127483 287.79058832 4.89291951 287.79437346 1.58433914 287.79332352 C0.02419338 287.7956466 -1.53595898 287.80427828 -3.09602737 287.81998825 C-33.04598793 288.09330096 -58.43199595 275.42270318 -79.734375 254.91845703 C-106.60656319 228.25677985 -121.21267228 188.33847219 -121.58384705 150.86016846 C-121.59142023 148.6435942 -121.58544288 146.42749306 -121.57421875 144.2109375 C-121.5720636 143.44247498 -121.56990845 142.67401245 -121.56768799 141.88226318 C-121.51356152 129.8283297 -121.0280815 118.11721284 -118.26171875 106.3359375 C-117.96370361 105.0665332 -117.96370361 105.0665332 -117.65966797 103.77148438 C-112.45206122 82.44175125 -103.46281139 57.78349095 -87.26171875 42.3359375 C-85.79450484 40.71895128 -84.33715752 39.09298789 -82.88671875 37.4609375 C-81.34623868 35.75153408 -79.8046519 34.04312706 -78.26171875 32.3359375 C-77.44767578 31.41941406 -77.44767578 31.41941406 -76.6171875 30.484375 C-56.70226422 9.20817848 -28.38521433 0.02791557 0 0 Z " fill="#F9E16A" transform="translate(133.26171875,224.6640625)"/>
<path d="M0 0 C5.25242566 0.14540814 9.56223095 2.04632027 14.30078125 4.17578125 C15.65598877 4.77169067 15.65598877 4.77169067 17.03857422 5.37963867 C23.57776181 8.32824885 29.88903933 11.61294765 36.11328125 15.17578125 C37.31174683 15.85894409 37.31174683 15.85894409 38.53442383 16.5559082 C45.68074389 20.78364844 45.68074389 20.78364844 47.48828125 24.36328125 C48.35060504 29.81539298 47.41037014 34.79242487 45.94921875 40.0546875 C43.5951043 51.84520985 45.9042374 63.97360407 52.17578125 74.17578125 C55.63461351 78.94809411 59.94697629 82.64914255 64.48828125 86.36328125 C71.35099913 91.99642884 71.35099913 91.99642884 71.7578125 96.046875 C71.43254974 100.04902117 69.99962954 102.93325047 68.17578125 106.42578125 C54.92187762 133.30242432 46.13631418 162.59494512 40.02197266 191.85449219 C39.52276814 194.20116447 38.98615644 196.53557592 38.4375 198.87109375 C32.76403379 223.79536704 31.11008091 249.43639745 31.11328125 274.92578125 C31.11146851 275.85292938 31.10965576 276.78007751 31.10778809 277.73532104 C31.11033327 289.1897947 31.71912835 300.43974623 33.02124023 311.8203125 C33.53809668 316.47385052 33.76755102 321.12276166 33.92578125 325.80078125 C33.97809402 326.83282936 33.97809402 326.83282936 34.03146362 327.88572693 C34.06065041 331.62351363 33.61527237 333.20553792 31.24609375 336.1484375 C28.86307713 338.06227663 26.52914487 339.76956996 23.92578125 341.36328125 C16.83391334 346.001175 12.88141471 352.41857457 10.94726562 360.671875 C10.48272833 363.39584262 10.34664748 365.94575287 10.3125 368.70703125 C10.28865234 369.70605469 10.26480469 370.70507812 10.24023438 371.734375 C10.19726992 373.8201041 10.16601696 375.90610737 10.14648438 377.9921875 C9.93527636 385.60549985 9.93527636 385.60549985 7.66796875 389.44921875 C0.99309848 395.31066396 -8.63110196 398.44075136 -17.44921875 398.30078125 C-20.98930759 397.21708058 -22.13518397 396.15808615 -24.51171875 393.36328125 C-25.75 390.6640625 -25.75 390.6640625 -26.82421875 387.67578125 C-32.63224073 373.14689952 -43.62142075 364.717952 -57.51171875 358.36328125 C-58.53910156 357.93660156 -59.56648438 357.50992187 -60.625 357.0703125 C-65.18722769 354.37248638 -67.06243595 350.82239688 -68.60498047 345.81274414 C-68.8976103 344.4901243 -69.17567784 343.16422356 -69.44140625 341.8359375 C-69.59713608 341.10734024 -69.75286591 340.37874298 -69.91331482 339.62806702 C-70.41981192 337.23021022 -70.90469004 334.82866848 -71.38671875 332.42578125 C-71.55746918 331.59326843 -71.7282196 330.76075562 -71.90414429 329.90301514 C-77.97059676 300.28381156 -82.22544828 270.50897418 -84.51171875 240.36328125 C-84.5990477 239.22919327 -84.68637665 238.09510529 -84.77635193 236.926651 C-85.42379546 227.96612031 -85.68582462 219.06329414 -85.71484375 210.078125 C-85.71767113 209.37911135 -85.7204985 208.68009769 -85.72341156 207.95990181 C-85.73826035 204.24889908 -85.74757557 200.53793368 -85.75195312 196.8269043 C-85.75630087 193.83621779 -85.77006868 190.84582579 -85.79296875 187.85522461 C-85.9377027 168.55553531 -85.18243574 149.71540036 -82.8891449 130.53500366 C-82.41188364 126.52431117 -81.98140923 122.50919974 -81.55384827 118.49295044 C-78.80658726 94.35063205 -72.39887424 70.29029971 -64.51171875 47.36328125 C-64.20927246 46.44885254 -63.90682617 45.53442383 -63.59521484 44.59228516 C-61.55039729 38.8754435 -59.78662243 35.53077789 -54.51171875 32.36328125 C-50.84765625 31.61328125 -50.84765625 31.61328125 -46.88671875 31.36328125 C-34.95612676 30.26870636 -24.97562894 26.04958166 -16.51171875 17.36328125 C-13.40690167 13.56357162 -10.56289124 9.58498951 -7.76171875 5.55859375 C-4.1498928 0.42929925 -4.1498928 0.42929925 0 0 Z " fill="#0A430A" transform="translate(384.51171875,67.63671875)"/>
<path d="M0 0 C-0.66306636 3.97977857 -1.87054826 7.47392951 -3.37109375 11.21484375 C-3.86321277 12.45434187 -4.35489214 13.69401461 -4.84619141 14.93383789 C-5.10539368 15.58466339 -5.36459595 16.23548889 -5.63165283 16.90603638 C-19.05302884 50.74004141 -30.50176318 85.95431449 -36.64404297 121.91650391 C-36.99536734 123.97288401 -37.37368958 126.02301115 -37.75390625 128.07421875 C-39.75389677 139.33082554 -40.91183312 150.70021703 -42.125 162.0625 C-42.21144775 162.86266541 -42.29789551 163.66283081 -42.38696289 164.48724365 C-43.61957765 175.98016955 -44.4606506 187.4539595 -45 199 C-49.47730252 197.55860702 -53.45940922 195.8179202 -57.625 193.625 C-63.8878604 190.41624027 -70.17796691 187.80835299 -77 186 C-77.63251175 185.83214493 -78.2650235 185.66428986 -78.91670227 185.49134827 C-87.00547668 183.60479719 -95.08628638 183.7092109 -103.33984375 183.734375 C-104.91345784 183.73302432 -106.48707152 183.73108044 -108.0606842 183.72857666 C-111.34445198 183.72564349 -114.62811028 183.72986385 -117.91186523 183.73925781 C-122.09192359 183.7506418 -126.27172473 183.74408804 -130.45177364 183.73211288 C-133.69741199 183.72483711 -136.94299078 183.72720842 -140.18863106 183.73236847 C-141.72859288 183.7336897 -143.26856034 183.73211167 -144.80851555 183.72740936 C-175.17796931 183.65500893 -200.55006513 195.50297075 -222 216.6875 C-226.06244776 220.86396033 -229.72641669 225.17940685 -233 230 C-235.7205244 227.62094764 -236.91274154 225.32307563 -238.27734375 221.99609375 C-238.70225098 220.96315186 -239.1271582 219.93020996 -239.56494141 218.8659668 C-240.01788574 217.73457275 -240.47083008 216.60317871 -240.9375 215.4375 C-241.41622559 214.24874268 -241.89495117 213.05998535 -242.38818359 211.83520508 C-252.29381947 187.02803158 -260.77389514 161.71225707 -268 136 C-268.18902893 135.33321228 -268.37805786 134.66642456 -268.57281494 133.97943115 C-269.7488645 129.82864637 -270.90022006 125.67217792 -272.02038574 121.50595093 C-272.54181187 119.57655095 -273.07774106 117.65108831 -273.61425781 115.72583008 C-276.03627075 106.48678226 -278.80338723 95.15811291 -273.8125 86.375 C-269.70157324 80.60665198 -264.04762492 77.86137606 -257.6875 75.25 C-256.86354736 74.90928467 -256.03959473 74.56856934 -255.19067383 74.2175293 C-220.47945206 60.14924685 -186.39549014 54.18687326 -149 55 C-149.00435059 54.26281738 -149.00870117 53.52563477 -149.01318359 52.76611328 C-149.03647026 45.7923119 -148.92317067 38.84225461 -148.625 31.875 C-148.5940625 30.96363281 -148.563125 30.05226562 -148.53125 29.11328125 C-147.73475088 10.44865178 -147.73475088 10.44865178 -141 4 C-134.06333053 -0.25864005 -127.03342237 -1.38673449 -119.0625 -2.625 C-118.40316467 -2.73016937 -117.74382935 -2.83533875 -117.06451416 -2.94369507 C-77.71033251 -9.20240814 -38.94176156 -8.29455729 0 0 Z " fill="#007F00" transform="translate(276,42)"/>
<path d="M0 0 C0.96035156 0.48082031 1.92070312 0.96164062 2.91015625 1.45703125 C29.28820068 15.74079444 44.52061772 40.90799634 53.18359375 68.8125 C62.42601645 101.31332707 59.36682028 137.80745664 42.95703125 167.59765625 C41.98830078 169.28181641 41.98830078 169.28181641 41 171 C40.44699219 171.98871094 39.89398438 172.97742188 39.32421875 173.99609375 C34.82792938 181.56144937 29.06751964 187.69667243 23 194 C22.12408203 194.98806641 22.12408203 194.98806641 21.23046875 195.99609375 C7.96785398 210.53460563 -12.60882767 217.55255433 -31.73828125 219.3515625 C-55.02367574 219.93171955 -75.79435273 210.04845565 -92.6328125 194.41235352 C-111.68624944 175.98254058 -121.3698752 151.68452314 -126 126 C-126.28810547 124.43572266 -126.28810547 124.43572266 -126.58203125 122.83984375 C-128.50715293 105.15391279 -127.77195165 87.15079417 -123 70 C-122.81808105 69.3287207 -122.63616211 68.65744141 -122.44873047 67.96582031 C-114.92950043 41.02023276 -98.09231463 16.99235915 -74.1875 2.25 C-51.35666022 -10.46329708 -23.4546545 -11.87371552 0 0 Z " fill="#ECD05A" transform="translate(164,263)"/>
<path d="M0 0 C6.68524831 -0.10267446 13.37028834 -0.17199085 20.05615234 -0.21972656 C22.32348223 -0.23965772 24.59076197 -0.26681268 26.85791016 -0.30175781 C59.60290795 -0.7932942 85.86126792 9.07339285 109.70336914 31.61010742 C139.25600682 60.37162992 152.58022929 101.71473957 153.30004883 142.20703125 C153.33810882 151.31754749 152.81434813 160.05299576 151 169 C150.79375 170.23363281 150.5875 171.46726562 150.375 172.73828125 C144.71941507 206.3861134 129.46842265 234.48613302 106 259 C105.18789062 259.84949219 104.37578125 260.69898438 103.5390625 261.57421875 C85.77372291 278.54695088 60.78039066 287.42675561 36.55078125 287.1953125 C35.41215134 287.1924826 34.27352142 287.18965271 33.10038757 287.18673706 C29.50431293 287.17564393 25.90849791 287.15055997 22.3125 287.125 C19.8574255 287.11495615 17.40234705 287.10583277 14.94726562 287.09765625 C8.96475688 287.07574032 2.982397 287.04237281 -3 287 C-3 286.67 -3 286.34 -3 286 C-1.29457031 285.76216797 -1.29457031 285.76216797 0.4453125 285.51953125 C30.71924216 281.04926764 56.29354457 265.86082654 74.59277344 241.26098633 C86.59100489 224.78283639 95.0431078 207.1193217 100.3125 187.4375 C100.55508545 186.54087646 100.7976709 185.64425293 101.04760742 184.72045898 C104.51622779 171.03847428 105.38691038 157.30341558 105.3125 143.25 C105.31034485 142.51020905 105.3081897 141.77041809 105.30596924 141.00820923 C105.13336176 103.92204575 93.85620746 68.72876875 70 40 C69.21882813 39.05253906 68.43765625 38.10507812 67.6328125 37.12890625 C50.47911227 17.30372811 26.19793207 3.64257402 0 1 C0 0.67 0 0.34 0 0 Z " fill="#ECD059" transform="translate(140,225)"/>
<path d="M0 0 C0.0505894 6.79928419 0.08568667 13.5985201 0.10986328 20.39794922 C0.11993892 22.71242079 0.13359975 25.02687959 0.15087891 27.34130859 C0.17505865 30.66246693 0.1864673 33.9834574 0.1953125 37.3046875 C0.20563507 38.34430634 0.21595764 39.38392517 0.22659302 40.45504761 C0.22674408 41.41589264 0.22689514 42.37673767 0.22705078 43.36669922 C0.231492 44.21497284 0.23593323 45.06324646 0.24050903 45.93722534 C0 48 0 48 -2 50 C-5.28647924 51.04152072 -8.60205706 51.91875931 -11.93359375 52.8046875 C-15.23958126 54.09339091 -16.35373243 54.90455323 -18 58 C-18.42165577 62.7225446 -17.88500644 66.79599141 -17 71.4375 C-15.14239671 81.89315279 -14.58583816 93.83555246 -18 104 C-18.25652344 104.80566406 -18.51304688 105.61132812 -18.77734375 106.44140625 C-22.63011382 117.27215473 -29.25391058 124.10663605 -39 130 C-39.71800781 130.33128906 -40.43601562 130.66257813 -41.17578125 131.00390625 C-43.33526678 131.99976177 -43.33526678 131.99976177 -45 135 C-45.10024322 137.12569015 -45.10024322 137.12569015 -44.75 139.375 C-44.66234375 140.12523437 -44.5746875 140.87546875 -44.484375 141.6484375 C-43.94658688 144.25931209 -43.05351099 146.55619991 -42 149 C-42.60585937 149.46148437 -43.21171875 149.92296875 -43.8359375 150.3984375 C-53.05262523 157.57327441 -61.36232779 165.34029816 -68 175 C-70.7205244 172.62094764 -71.91274154 170.32307563 -73.27734375 166.99609375 C-73.70225098 165.96315186 -74.1271582 164.93020996 -74.56494141 163.8659668 C-75.01788574 162.73457275 -75.47083008 161.60317871 -75.9375 160.4375 C-76.41622559 159.24874268 -76.89495117 158.05998535 -77.38818359 156.83520508 C-87.29381947 132.02803158 -95.77389514 106.71225707 -103 81 C-103.18902893 80.33321228 -103.37805786 79.66642456 -103.57281494 78.97943115 C-104.7488645 74.82864637 -105.90022006 70.67217792 -107.02038574 66.50595093 C-107.54181187 64.57655095 -108.07774106 62.65108831 -108.61425781 60.72583008 C-111.03627075 51.48678226 -113.80338723 40.15811291 -108.8125 31.375 C-104.70157324 25.60665198 -99.04762492 22.86137606 -92.6875 20.25 C-91.86354736 19.90928467 -91.03959473 19.56856934 -90.19067383 19.2175293 C-68.55729131 10.44962889 -46.5335966 4.18519552 -23.375 1.1875 C-22.4159375 1.06334717 -21.456875 0.93919434 -20.46875 0.8112793 C-13.62687635 0.00875689 -6.88447223 -0.12916883 0 0 Z " fill="#007F00" transform="translate(111,97)"/>
<path d="M0 0 C1.15905853 -0.0127597 2.31811707 -0.02551941 3.51229858 -0.03866577 C4.76845978 -0.04089142 6.02462097 -0.04311707 7.31884766 -0.04541016 C8.61553375 -0.05206696 9.91221985 -0.05872375 11.24819946 -0.06558228 C14.00046099 -0.07756693 16.75259703 -0.08126268 19.50488281 -0.08007812 C22.99578121 -0.07987664 26.48584971 -0.10699295 29.97655296 -0.14162254 C33.34065938 -0.16953582 36.70462749 -0.16804988 40.06884766 -0.17041016 C41.30476654 -0.18478119 42.54068542 -0.19915222 43.8140564 -0.21395874 C57.88194634 -0.14125185 69.96261269 3.85765375 80.57275391 13.25146484 C86.1808383 19.04253855 93.35791016 29.0027208 93.35791016 37.29052734 C94.33630859 37.23832031 94.33630859 37.23832031 95.33447266 37.18505859 C100.76529117 37.0168474 104.75899929 37.03763917 109.35791016 40.29052734 C112.15402562 43.35723463 112.59430058 45.76429517 112.42041016 49.79052734 C111.85294723 53.2589997 111.25628932 54.4251063 109.04541016 57.35302734 C104.50076182 60.61356129 98.66598521 59.67703766 93.35791016 59.29052734 C93.15166016 60.38365234 92.94541016 61.47677734 92.73291016 62.60302734 C89.75387226 74.17230466 82.42227373 83.6608291 72.47900391 90.17724609 C62.37268973 95.85603216 53.17305642 97.45695002 41.70556641 97.38818359 C40.8054332 97.38676865 39.90529999 97.3853537 38.97789001 97.38389587 C36.12536178 97.37833394 33.27291435 97.36578861 30.42041016 97.35302734 C28.47705192 97.34800742 26.53369245 97.34344538 24.59033203 97.33935547 C19.84616065 97.328377 15.10204907 97.31113887 10.35791016 97.29052734 C10.37885742 98.5617041 10.39980469 99.83288086 10.42138672 101.14257812 C10.49395272 105.87244337 10.53977041 110.60225969 10.57763672 115.33251953 C10.59771436 117.37720015 10.6249824 119.42182361 10.65966797 121.46630859 C10.70835534 124.41046271 10.73091759 127.35385568 10.74853516 130.29833984 C10.7691803 131.20794464 10.78982544 132.11754944 10.81109619 133.05471802 C10.81305662 138.63795524 10.15552991 141.90054748 6.35791016 146.29052734 C2.33932421 148.96958464 -0.91850706 148.98663428 -5.64208984 148.29052734 C-8.51238853 146.49659067 -10.13340623 145.30789458 -11.64208984 142.29052734 C-11.73514141 139.66621585 -11.76788599 137.06867938 -11.75561523 134.44433594 C-11.75576126 133.63449753 -11.75590729 132.82465912 -11.75605774 131.99028015 C-11.75535961 129.30648138 -11.74757189 126.62275153 -11.73974609 123.93896484 C-11.73788156 122.08094318 -11.73645782 120.22292102 -11.73545837 118.36489868 C-11.73163599 113.46910246 -11.72180807 108.57333579 -11.71075439 103.67755127 C-11.70053428 98.68396403 -11.69595946 93.69037202 -11.69091797 88.69677734 C-11.68018557 78.89468101 -11.66311248 69.09260663 -11.64208984 59.29052734 C-12.73908203 59.33693359 -13.83607422 59.38333984 -14.96630859 59.43115234 C-16.42070834 59.46868524 -17.87513768 59.50508377 -19.32958984 59.54052734 C-20.05082031 59.57404297 -20.77205078 59.60755859 -21.51513672 59.64208984 C-25.42163327 59.71344138 -27.21143319 59.56587453 -30.59912109 57.39990234 C-33.45751779 54.44859409 -33.89806334 52.56696473 -34.14208984 48.54052734 C-34.06458674 44.72073134 -33.68560004 42.46813353 -31.01708984 39.66552734 C-27.16732342 36.97233429 -23.988711 37.04013733 -19.36865234 37.14208984 C-17.47880615 37.17423584 -17.47880615 37.17423584 -15.55078125 37.20703125 C-14.59091309 37.23458496 -13.63104492 37.26213867 -12.64208984 37.29052734 C-12.66303711 36.44345215 -12.68398437 35.59637695 -12.70556641 34.72363281 C-12.77403039 31.55912341 -12.82402972 28.39499344 -12.86181641 25.22998047 C-12.88184303 23.86429367 -12.90907316 22.49869166 -12.94384766 21.13330078 C-12.99275416 19.16265633 -13.01300332 17.19136752 -13.03271484 15.22021484 C-13.05366211 14.03669434 -13.07460937 12.85317383 -13.09619141 11.63378906 C-12.54448885 7.57195318 -11.19187084 5.46365209 -8.64208984 2.29052734 C-5.23670263 0.0202692 -4.00086166 0.02990228 0 0 Z " fill="#53538B" transform="translate(91.64208984375,293.70947265625)"/>
<path d="M0 0 C0.84621414 -0.00095673 1.69242828 -0.00191345 2.56428528 -0.00289917 C4.35901972 -0.00358058 6.15375661 -0.00172903 7.94848633 0.00244141 C10.67860564 0.00775715 13.40855793 0.00251232 16.13867188 -0.00390625 C17.88411494 -0.00324481 19.62955791 -0.0019623 21.375 0 C22.59101143 -0.00303635 22.59101143 -0.00303635 23.83158875 -0.00613403 C28.49714385 0.01287101 32.91691224 0.36001761 37.51953125 1.1328125 C36.0094075 6.27787484 34.44965809 11.39979432 32.7578125 16.48828125 C25.09860884 39.59513632 18.75873512 63.14798359 14.51953125 87.1328125 C14.39271973 87.81375977 14.2659082 88.49470703 14.13525391 89.19628906 C11.92836622 101.1129116 10.68039257 113.15218765 9.39453125 125.1953125 C9.3080835 125.99547791 9.22163574 126.79564331 9.13256836 127.62005615 C7.8999536 139.11298205 7.05888065 150.586772 6.51953125 162.1328125 C2.04222873 160.69141952 -1.93987797 158.9507327 -6.10546875 156.7578125 C-19.23801804 150.02938609 -32.48052139 147.19889633 -47.10546875 146.0078125 C-48.61173828 145.87826172 -48.61173828 145.87826172 -50.1484375 145.74609375 C-52.59206841 145.53663967 -55.03600716 145.33229493 -57.48046875 145.1328125 C-57.7982009 142.61254873 -58.10962543 140.09172987 -58.41796875 137.5703125 C-58.50498047 136.88517578 -58.59199219 136.20003906 -58.68164062 135.49414062 C-60.22998271 122.70598192 -60.66710913 109.92665827 -60.66577148 97.05981445 C-60.66798933 94.67316631 -60.68632843 92.28695957 -60.70507812 89.90039062 C-60.70800807 88.35416821 -60.70999553 86.80794365 -60.7109375 85.26171875 C-60.71812302 84.5626088 -60.72530853 83.86349884 -60.73271179 83.14320374 C-60.70585709 77.27995663 -60.39534518 71.17155332 -56.24609375 66.75390625 C-53.25335199 64.99968615 -50.58264891 64.07384281 -47.23046875 63.1953125 C-35.32491598 59.74189595 -25.92129028 53.95836974 -19.8359375 42.9296875 C-15.02712988 33.00719109 -14.04628357 24.2662117 -14.62744141 13.37963867 C-14.88617332 6.7954633 -14.88617332 6.7954633 -12.60546875 3.0703125 C-8.6728957 -0.51526881 -5.07912949 -0.01252606 0 0 Z " fill="#0B430A" transform="translate(224.48046875,78.8671875)"/>
<path d="M0 0 C2.70577649 2.38724713 4.02693894 4.79624993 5.53125 8.05859375 C6.00651123 9.0746167 6.48177246 10.09063965 6.97143555 11.13745117 C7.47586182 12.22646729 7.98028809 13.3154834 8.5 14.4375 C17.97087175 34.50442408 28.60414537 53.47821843 41.72680664 71.38427734 C43.76024864 74.17259817 45.50891423 76.89242176 47 80 C39.91873271 80.2338499 33.4940996 79.41807693 26.5625 78 C25.47775391 77.77852295 24.39300781 77.5570459 23.27539062 77.32885742 C2.05347175 72.80897921 -18.0362715 65.38942676 -38 57 C-38 54 -38 54 -36.12890625 52.125 C-35.28199219 51.42375 -34.43507812 50.7225 -33.5625 50 C-17.99304335 36.37946268 -8.30308521 18.63180233 0 0 Z " fill="#26A325" transform="translate(280,432)"/>
<path d="M0 0 C0.03092239 0.56200607 0.06184479 1.12401215 0.09370422 1.70304871 C0.48943918 8.86514442 0.89741343 16.02650053 1.3125 23.1875 C1.41129456 24.89363968 1.41129456 24.89363968 1.51208496 26.63424683 C2.3835044 41.51440591 3.42006437 56.33133559 5.1730957 71.13549805 C5.29644287 72.18519775 5.41979004 73.23489746 5.546875 74.31640625 C5.65870117 75.20787354 5.77052734 76.09934082 5.88574219 77.01782227 C5.9422998 77.99900024 5.9422998 77.99900024 6 79 C4.41887133 80.58112867 2.56163808 80.42748701 0.375 80.75 C-13.71248923 83.27340335 -28.98284162 88.80464442 -40.30078125 97.8359375 C-40.86152344 98.22007812 -41.42226562 98.60421875 -42 99 C-42.99 98.67 -43.98 98.34 -45 98 C-46.77993735 93.97172074 -47.65164029 90.37529912 -47 86 C-43.76344636 81.82380175 -39.50485978 79.30895804 -35.13671875 76.45703125 C-27.29942251 71.11276891 -21.35702533 62.19070308 -19 53 C-18.11686778 47.9281226 -17.80780211 42.95140612 -17.8125 37.8125 C-17.81185547 37.0707251 -17.81121094 36.3289502 -17.81054688 35.56469727 C-17.86240131 30.10996382 -18.52512932 24.94949706 -19.5390625 19.5859375 C-20.39149112 14.80366844 -21.0756335 10.71893006 -18.38671875 6.421875 C-15.51948882 3.51241091 -13.35117067 2.76943626 -9.4375 1.6875 C-8.30183594 1.36136719 -7.16617188 1.03523437 -5.99609375 0.69921875 C-3 0 -3 0 0 0 Z " fill="#0B440B" transform="translate(112,146)"/>
<path d="M0 0 C2.22027624 2.05360776 3.64790219 3.93580262 4.98828125 6.640625 C5.35775879 7.37023437 5.72723633 8.09984375 6.10791016 8.8515625 C6.5054248 9.64304687 6.90293945 10.43453125 7.3125 11.25 C15.30485869 26.78112154 24.17384869 42.24877055 35 56 C34.01 56.495 34.01 56.495 33 57 C31.13085938 56.29418945 31.13085938 56.29418945 28.84375 55.11328125 C27.99466064 54.67540283 27.14557129 54.23752441 26.27075195 53.78637695 C25.35640381 53.29999756 24.44205566 52.81361816 23.5 52.3125 C22.5618042 51.81645264 21.6236084 51.32040527 20.65698242 50.80932617 C7.62624354 43.79125304 -4.73726239 35.62143414 -16 26 C-15.1186646 21.68683337 -12.83663642 18.72332386 -10.25 15.25 C-6.61653386 10.27809283 -3.17090756 5.28484593 0 0 Z " fill="#018000" transform="translate(273,448)"/>
<path d="M0 0 C20.13 0 40.26 0 61 0 C59.16659727 4.58350683 58.39460493 6.01543472 54.9375 9.125 C54.22464844 9.78757812 53.51179688 10.45015625 52.77734375 11.1328125 C46.06142786 15.64787269 39.07295297 16.4371896 31.15234375 16.29296875 C29.80638878 16.28660149 29.80638878 16.28660149 28.4332428 16.28010559 C25.60100757 16.26347363 22.76951576 16.22585197 19.9375 16.1875 C18.00326557 16.17243309 16.06901986 16.15874822 14.13476562 16.14648438 C9.42289589 16.11362112 4.71157345 16.06194841 0 16 C0 10.72 0 5.44 0 0 Z " fill="#E5CA5C" transform="translate(101,353)"/>
<path d="M0 0 C5.79826198 -0.12445087 11.59573097 -0.21473829 17.39501953 -0.2746582 C19.36390747 -0.29966047 21.33270393 -0.333674 23.30126953 -0.37719727 C45.23339765 -0.84963287 45.23339765 -0.84963287 54.5078125 7.16796875 C55.04148438 7.83441406 55.57515625 8.50085938 56.125 9.1875 C56.68445313 9.86167969 57.24390625 10.53585937 57.8203125 11.23046875 C59 13 59 13 59 15 C39.53 15 20.06 15 0 15 C0 10.05 0 5.1 0 0 Z " fill="#ECD05A" transform="translate(102,316)"/>
<path d="M0 0 C5.28 0 10.56 0 16 0 C17 1 17 1 17.12025452 2.82862854 C17.1169236 4.02442787 17.1169236 4.02442787 17.11352539 5.24438477 C17.11344986 6.14524307 17.11337433 7.04610138 17.11329651 7.97425842 C17.10813522 8.95341721 17.10297394 9.93257599 17.09765625 10.94140625 C17.0962413 11.93881332 17.09482635 12.9362204 17.09336853 13.96385193 C17.08775114 17.16343124 17.07519571 20.36294169 17.0625 23.5625 C17.05748724 25.72591045 17.05292395 27.88932199 17.04882812 30.05273438 C17.03777606 35.36851629 17.02049979 40.68424646 17 46 C11.39 46.66 5.78 47.32 0 48 C0 32.16 0 16.32 0 0 Z " fill="#24A224" transform="translate(111,97)"/>
<path d="M0 0 C4.71403788 0.47939368 8.66579301 0.96834048 13 3 C10.85201305 9.63618128 8.4852442 16.17074125 6 22.6875 C5.65710938 23.59822266 5.31421875 24.50894531 4.9609375 25.44726562 C3.18904593 30.10355321 1.33597977 34.59813812 -1 39 C-2.79206547 38.85915204 -4.58364917 38.71216299 -6.375 38.5625 C-7.37273437 38.48128906 -8.37046875 38.40007812 -9.3984375 38.31640625 C-12 38 -12 38 -14 37 C-11.82761657 29.10366475 -8.95883541 21.5807251 -5.875 14 C-5.41996094 12.86949219 -4.96492188 11.73898438 -4.49609375 10.57421875 C-1.18463703 2.36927407 -1.18463703 2.36927407 0 0 Z " fill="#25A325" transform="translate(276,43)"/>
<path d="M0 0 C4.9637707 2.76261274 9.68356357 5.73843355 14.375 8.9375 C19.77290546 12.58250845 25.20194552 16.01455189 31 19 C29 20 29 20 27.15917969 19.56616211 C26.42086914 19.30585205 25.68255859 19.04554199 24.921875 18.77734375 C24.09655273 18.48867432 23.27123047 18.20000488 22.42089844 17.90258789 C21.53950195 17.58410889 20.65810547 17.26562988 19.75 16.9375 C18.85571289 16.61966553 17.96142578 16.30183105 17.04003906 15.97436523 C9.55590357 13.27935296 2.24790605 10.27595754 -5 7 C-5 6.01 -5 5.02 -5 4 C-2.5 1.8125 -2.5 1.8125 0 0 Z " fill="#028201" transform="translate(247,482)"/>
</svg>
