<?xml version="1.0" encoding="UTF-8"?>
<svg version="1.1" xmlns="http://www.w3.org/2000/svg" width="512" height="512">
<path d="M0 0 C1.03936707 -0.0098568 1.03936707 -0.0098568 2.09973145 -0.01991272 C4.39754339 -0.03965523 6.69528989 -0.05131156 8.99316406 -0.0612793 C9.7781855 -0.06535482 10.56320694 -0.06943035 11.37201691 -0.07362938 C15.52860756 -0.09449614 19.68516516 -0.1087941 23.84179688 -0.11816406 C28.13034004 -0.12921805 32.41836282 -0.16360404 36.70672226 -0.20333576 C40.00792386 -0.22951544 43.30900188 -0.23785716 46.61029816 -0.24144554 C48.19071204 -0.24630959 49.77112047 -0.2579185 51.3514328 -0.27648354 C53.5680374 -0.30090072 55.78330135 -0.2999059 58 -0.29296875 C59.88957428 -0.30176811 59.88957428 -0.30176811 61.81732178 -0.31074524 C66.78943841 0.39393556 69.97779296 2.52950594 73.04223633 6.47070312 C74.53817735 9.79851895 75.13543112 12.87530146 75.72363281 16.4777832 C75.84189926 17.18353485 75.96016571 17.8892865 76.08201599 18.61642456 C76.46332073 20.90594401 76.82990426 23.19755217 77.19628906 25.48950195 C77.45589296 27.06493971 77.71647829 28.64021604 77.97802734 30.21533203 C78.50050068 33.3712729 79.01729784 36.52805505 79.52880859 39.68579102 C80.36822689 44.86411215 81.23584042 50.03748129 82.10473633 55.2109375 C82.82962325 59.53182553 83.54526505 63.85422495 84.25878906 68.17700195 C85.33773438 68.50571289 86.41667969 68.83442383 87.52832031 69.1730957 C97.10075511 72.18274598 106.06682545 75.72187416 114.97485352 80.36816406 C119.20217455 82.52814198 119.20217455 82.52814198 123.82128906 83.2590332 C127.53923528 81.60859874 130.67634838 79.32875341 133.94628906 76.92700195 C134.68379395 76.39631104 135.42129883 75.86562012 136.18115234 75.31884766 C138.5469105 73.61373607 140.90358309 71.89665326 143.25878906 70.17700195 C148.59026287 66.29607525 153.92775637 62.42458542 159.29345703 58.59106445 C161.0249045 57.34528262 162.73899543 56.07545303 164.45019531 54.80200195 C169.90520242 50.95323449 173.93802228 49.40821229 180.65332031 49.5402832 C188.43120187 51.44102487 193.97487246 58.60372392 199.39941406 64.05200195 C200.37224672 65.02348538 201.34537593 65.99467192 202.31878662 66.96557617 C204.34925279 68.99310601 206.37608833 71.02417796 208.40039062 73.05786133 C210.99163859 75.66053347 213.59180426 78.25408183 216.19473648 80.84506226 C218.20237707 82.8454699 220.20522264 84.85062382 222.20665741 86.85723877 C223.6276073 88.28016486 225.05257439 89.69907567 226.4776001 91.11791992 C227.33899597 91.98562012 228.20039185 92.85332031 229.08789062 93.74731445 C229.84700745 94.50802246 230.60612427 95.26873047 231.38824463 96.05249023 C235.30761186 100.50399722 235.89634783 104.38726886 235.74316406 110.20825195 C234.82921854 115.80985354 231.58719436 119.70257243 228.25878906 124.17700195 C227.28887032 125.5294 226.32160563 126.88370389 225.35644531 128.23950195 C220.81259693 134.59444154 216.23255422 140.91526706 211.49316406 147.1262207 C210.88875488 147.93051514 210.2843457 148.73480957 209.66162109 149.56347656 C208.49997106 151.10782344 207.3243514 152.64178695 206.13330078 154.16357422 C203.02767323 158.26116489 203.02767323 158.26116489 202.17675781 163.20825195 C203.7767762 167.59819411 205.7950299 171.69714692 207.93652344 175.8449707 C211.94070253 183.94520298 214.50054709 192.59425785 217.25878906 201.17700195 C218.26903893 201.33613823 218.26903893 201.33613823 219.29969788 201.49848938 C226.32585176 202.60711074 233.34987113 203.72857179 240.37280273 204.85742188 C242.99207126 205.27671862 245.61186186 205.69276777 248.23217773 206.10546875 C252.00419666 206.70014675 255.77416752 207.30657993 259.54394531 207.9152832 C260.71087418 208.09666336 261.87780304 208.27804352 263.08009338 208.46492004 C271.7822407 209.88780026 278.2405776 211.2737594 284.25878906 218.17700195 C285.71561141 221.09064666 285.41029507 223.66386062 285.43579102 226.91821289 C285.44564781 227.95757996 285.44564781 227.95757996 285.45570374 229.01794434 C285.47544624 231.31575628 285.48710258 233.61350279 285.49707031 235.91137695 C285.50114584 236.69639839 285.50522137 237.48141983 285.50942039 238.2902298 C285.53028716 242.44682045 285.54458511 246.60337805 285.55395508 250.76000977 C285.56500907 255.04855293 285.59939506 259.33657571 285.63912678 263.62493515 C285.66530645 266.92613675 285.67364818 270.22721477 285.67723656 273.52851105 C285.6821006 275.10892493 285.69370951 276.68933337 285.71227455 278.26964569 C285.73669173 280.48625029 285.73569692 282.70151424 285.72875977 284.91821289 C285.73462601 286.17792908 285.74049225 287.43764526 285.74653625 288.73553467 C285.04185545 293.7076513 282.90628507 296.89600585 278.96508789 299.96044922 C275.63727207 301.45639024 272.56048955 302.05364401 268.95800781 302.6418457 C268.25225616 302.76011215 267.54650452 302.8783786 266.81936646 303.00022888 C264.52984701 303.38153362 262.23823885 303.74811715 259.94628906 304.11450195 C258.37085131 304.37410585 256.79557498 304.63469118 255.22045898 304.89624023 C252.06451812 305.41871358 248.90773597 305.93551073 245.75 306.44702148 C240.57167886 307.28643978 235.39830972 308.15405331 230.22485352 309.02294922 C225.90396548 309.74783614 221.58156607 310.46347794 217.25878906 311.17700195 C216.93007813 312.25594727 216.60136719 313.33489258 216.26269531 314.4465332 C213.25304504 324.018968 209.71391686 332.98503834 205.06762695 341.89306641 C202.90764904 346.12038745 202.90764904 346.12038745 202.17675781 350.73950195 C203.82719227 354.45744817 206.10703761 357.59456127 208.50878906 360.86450195 C209.03947998 361.60200684 209.5701709 362.33951172 210.11694336 363.09936523 C211.82205495 365.46512339 213.53913775 367.82179598 215.25878906 370.17700195 C219.13971576 375.50847576 223.01120559 380.84596926 226.84472656 386.21166992 C228.09050839 387.94311739 229.36033798 389.65720832 230.63378906 391.3684082 C234.48255652 396.82341531 236.02757873 400.85623517 235.89550781 407.5715332 C233.99476614 415.34941476 226.83206709 420.89308535 221.38378906 426.31762695 C220.41230563 427.29045961 219.44111909 428.26358882 218.47021484 429.23699951 C216.44268501 431.26746568 214.41161305 433.29430122 212.37792969 435.31860352 C209.77525755 437.90985148 207.18170919 440.51001715 204.59072876 443.11294937 C202.59032111 445.12058996 200.58516719 447.12343553 198.57855225 449.1248703 C197.15562615 450.54582019 195.73671534 451.97078728 194.31787109 453.39581299 C193.0163208 454.6879068 193.0163208 454.6879068 191.68847656 456.00610352 C190.92776855 456.76522034 190.16706055 457.52433716 189.38330078 458.30645752 C184.93179379 462.22582475 181.04852216 462.81456072 175.22753906 462.66137695 C169.62593747 461.74743143 165.73321859 458.50540725 161.25878906 455.17700195 C159.90639102 454.20708321 158.55208713 453.23981852 157.19628906 452.2746582 C150.84134948 447.73080982 144.52052395 443.15076711 138.30957031 438.41137695 C137.50527588 437.80696777 136.70098145 437.20255859 135.87231445 436.57983398 C134.32796758 435.41818395 132.79400407 434.24256429 131.2722168 433.05151367 C127.17462613 429.94588612 127.17462613 429.94588612 122.22753906 429.0949707 C117.83759691 430.69498909 113.73864409 432.71324279 109.59082031 434.85473633 C101.49058804 438.85891542 92.84153317 441.41875998 84.25878906 444.17700195 C84.09965279 445.18725182 84.09965279 445.18725182 83.93730164 446.21791077 C82.82868027 453.24406465 81.70721923 460.26808402 80.57836914 467.29101562 C80.1590724 469.91028415 79.74302324 472.53007475 79.33032227 475.15039062 C78.73564427 478.92240955 78.12921108 482.69238041 77.52050781 486.4621582 C77.33912766 487.62908707 77.1577475 488.79601593 76.97087097 489.99830627 C75.54799076 498.70045359 74.16203162 505.15879049 67.25878906 511.17700195 C64.34514436 512.63382431 61.77193039 512.32850796 58.51757812 512.35400391 C57.47821106 512.3638607 57.47821106 512.3638607 56.41784668 512.37391663 C54.12003473 512.39365913 51.82228823 512.40531547 49.52441406 512.4152832 C48.73939262 512.41935873 47.95437119 512.42343426 47.14556122 512.42763329 C42.98897057 512.44850005 38.83241297 512.462798 34.67578125 512.47216797 C30.38723809 512.48322196 26.0992153 512.51760795 21.81085587 512.55733967 C18.50965426 512.58351935 15.20857625 512.59186107 11.90727997 512.59544945 C10.32686608 512.60031349 8.74645765 512.6119224 7.16614532 512.63048744 C4.94954072 512.65490462 2.73427677 512.65390981 0.51757812 512.64697266 C-0.74213806 512.6528389 -2.00185425 512.65870514 -3.29974365 512.66474915 C-8.27186028 511.96006834 -11.46021484 509.82449796 -14.5246582 505.88330078 C-16.02059923 502.55548496 -16.61785299 499.47870244 -17.20605469 495.8762207 C-17.32432114 495.17046906 -17.44258759 494.46471741 -17.56443787 493.73757935 C-17.94574261 491.4480599 -18.31232613 489.15645174 -18.67871094 486.86450195 C-18.93831484 485.2890642 -19.19890016 483.71378787 -19.46044922 482.13867188 C-19.98292256 478.98273101 -20.49971972 475.82594886 -21.01123047 472.66821289 C-21.85064877 467.48989175 -22.7182623 462.31652261 -23.5871582 457.14306641 C-24.31204512 452.82217837 -25.02768692 448.49977896 -25.74121094 444.17700195 C-26.98773438 443.76450195 -28.23425781 443.35200195 -29.51855469 442.92700195 C-39.08805007 439.69905723 -48.31318701 436.28005968 -57.27026367 431.5793457 C-59.96908634 430.21268361 -62.18071041 429.18754428 -65.23339844 429.13012695 C-69.01649376 430.709363 -72.13546132 433.00813023 -75.42871094 435.42700195 C-76.16621582 435.95769287 -76.9037207 436.48838379 -77.66357422 437.03515625 C-80.02933238 438.74026784 -82.38600497 440.45735064 -84.74121094 442.17700195 C-90.07268474 446.05792865 -95.41017824 449.92941848 -100.77587891 453.76293945 C-102.50732637 455.00872128 -104.2214173 456.27855087 -105.93261719 457.55200195 C-111.38762429 461.40076941 -115.42044415 462.94579162 -122.13574219 462.8137207 C-129.91362374 460.91297903 -135.45729434 453.75027998 -140.88183594 448.30200195 C-141.85466859 447.33051852 -142.82779781 446.35933198 -143.8012085 445.38842773 C-145.83167466 443.3608979 -147.8585102 441.32982594 -149.8828125 439.29614258 C-152.47406046 436.69347044 -155.07422614 434.09992208 -157.67715836 431.50894165 C-159.68479894 429.508534 -161.68764451 427.50338008 -163.68907928 425.49676514 C-165.11002918 424.07383904 -166.53499627 422.65492823 -167.96002197 421.23608398 C-168.82141785 420.36838379 -169.68281372 419.50068359 -170.5703125 418.60668945 C-171.32942932 417.84598145 -172.08854614 417.08527344 -172.8706665 416.30151367 C-176.79003374 411.85000669 -177.3787697 407.96673505 -177.22558594 402.14575195 C-176.31164041 396.54415036 -173.06961623 392.65143148 -169.74121094 388.17700195 C-168.7712922 386.82460391 -167.8040275 385.47030002 -166.83886719 384.11450195 C-162.2950188 377.75956237 -157.71497609 371.43873685 -152.97558594 365.2277832 C-152.37117676 364.42348877 -151.76676758 363.61919434 -151.14404297 362.79052734 C-149.98239294 361.24618047 -148.80677328 359.71221696 -147.61572266 358.19042969 C-144.5100951 354.09283902 -144.5100951 354.09283902 -143.65917969 349.14575195 C-145.25919808 344.7558098 -147.27745177 340.65685698 -149.41894531 336.5090332 C-153.4231244 328.40880093 -155.98296896 319.75974606 -158.74121094 311.17700195 C-159.46704376 311.06060364 -160.19287659 310.94420532 -160.94070435 310.82427979 C-167.79899581 309.7217658 -174.65485147 308.60510681 -181.50827217 307.47273636 C-185.03132902 306.89113909 -188.55508952 306.31494103 -192.08105469 305.7512207 C-196.13981288 305.10207282 -200.19433119 304.42920899 -204.24902344 303.75512695 C-206.13840134 303.45798798 -206.13840134 303.45798798 -208.06594849 303.15484619 C-220.93053939 300.97686186 -220.93053939 300.97686186 -225.36247253 294.9851532 C-227.07734339 291.49238276 -227.12846536 288.98116585 -227.14526367 285.09521484 C-227.15555855 284.05519066 -227.15555855 284.05519066 -227.1660614 282.99415588 C-227.1842954 280.71244568 -227.18049698 278.43142532 -227.17480469 276.1496582 C-227.17936825 274.55691811 -227.18467435 272.96417998 -227.19068909 271.3714447 C-227.19961356 268.03677358 -227.19720487 264.70234203 -227.18725586 261.36767578 C-227.17576869 257.10268225 -227.19597645 252.83851698 -227.225173 248.57363224 C-227.24355476 245.28526084 -227.24323862 241.99708719 -227.23753548 238.70867729 C-227.23738249 237.13666052 -227.2434079 235.56463015 -227.25582695 233.99266243 C-227.27077298 231.79064719 -227.2600357 229.59015256 -227.24291992 227.38818359 C-227.24275375 226.13751602 -227.24258759 224.88684845 -227.24241638 223.59828186 C-226.4972658 218.51180735 -224.44736415 215.46690265 -220.3651886 212.38066101 C-217.46283647 211.04930729 -214.90763784 210.4378475 -211.75756836 209.91845703 C-210.57672165 209.7184761 -209.39587494 209.51849518 -208.179245 209.31245422 C-206.91449844 209.10920029 -205.64975189 208.90594635 -204.34667969 208.6965332 C-203.03087845 208.47753476 -201.71523176 208.25760598 -200.3997345 208.03678894 C-196.950551 207.46036838 -193.49942359 206.89655072 -190.04772949 206.33538818 C-186.52046002 205.75963393 -182.99518837 205.17190788 -179.46972656 204.58520508 C-172.56212301 203.43745424 -165.65239053 202.30301368 -158.74121094 201.17700195 C-158.36536865 199.99726807 -157.98952637 198.81753418 -157.60229492 197.60205078 C-154.55038624 188.15425327 -151.17648037 179.2976493 -146.55957031 170.49145508 C-144.39589941 166.24783197 -144.39589941 166.24783197 -143.65917969 161.61450195 C-145.30961415 157.89655573 -147.58945948 154.75944264 -149.99121094 151.48950195 C-150.52190186 150.75199707 -151.05259277 150.01449219 -151.59936523 149.25463867 C-153.30447682 146.88888051 -155.02155963 144.53220793 -156.74121094 142.17700195 C-160.62213764 136.84552815 -164.49362747 131.50803465 -168.32714844 126.14233398 C-169.57293027 124.41088652 -170.84275986 122.69679559 -172.11621094 120.9855957 C-175.9649784 115.5305886 -177.5100006 111.49776874 -177.37792969 104.7824707 C-175.47718802 97.00458915 -168.31448897 91.46091855 -162.86621094 86.03637695 C-161.89472751 85.0635443 -160.92354097 84.09041508 -159.95263672 83.11700439 C-157.92510688 81.08653823 -155.89403493 79.05970269 -153.86035156 77.03540039 C-151.25767943 74.44415243 -148.66413106 71.84398676 -146.07315063 69.24105453 C-144.07274299 67.23341395 -142.06758907 65.23056838 -140.06097412 63.22913361 C-138.63804803 61.80818372 -137.21913722 60.38321662 -135.80029297 58.95819092 C-134.93259277 58.09679504 -134.06489258 57.23539917 -133.17089844 56.34790039 C-132.41019043 55.58878357 -131.64948242 54.82966675 -130.86572266 54.04754639 C-126.41421567 50.12817915 -122.53094403 49.53944319 -116.70996094 49.69262695 C-111.10835935 50.60657248 -107.21564046 53.84859666 -102.74121094 57.17700195 C-101.38881289 58.14692069 -100.034509 59.11418539 -98.67871094 60.0793457 C-92.32377135 64.62319409 -86.00294583 69.2032368 -79.79199219 73.94262695 C-78.98769775 74.54703613 -78.18340332 75.15144531 -77.35473633 75.77416992 C-75.81038945 76.93581995 -74.27642594 78.11143961 -72.75463867 79.30249023 C-68.63150754 82.43202676 -68.63150754 82.43202676 -63.63964844 83.22387695 C-60.33298255 82.02955558 -57.25795005 80.63350945 -54.11621094 79.05200195 C-47.96825383 76.02513578 -41.69972087 73.64549595 -35.21777344 71.43481445 C-34.30165283 71.11843018 -33.38553223 70.8020459 -32.44165039 70.47607422 C-30.20948171 69.70580858 -27.97603017 68.93953565 -25.74121094 68.17700195 C-25.63512009 67.50350204 -25.52902924 66.83000214 -25.41972351 66.13609314 C-24.31110215 59.10993926 -23.1896411 52.08591989 -22.06079102 45.06298828 C-21.64149427 42.44371975 -21.22544512 39.82392916 -20.81274414 37.20361328 C-20.21806614 33.43159436 -19.61163296 29.66162349 -19.00292969 25.8918457 C-18.82154953 24.72491684 -18.64016937 23.55798798 -18.45329285 22.35569763 C-17.03041263 13.65355031 -15.64445349 7.19521341 -8.74121094 1.17700195 C-5.82756623 -0.2798204 -3.25435227 0.02549595 0 0 Z " fill="#005E00" transform="translate(226.7412109375,-0.177001953125)"/>
<path d="M0 0 C0.72348633 0.23106445 1.44697266 0.46212891 2.19238281 0.70019531 C19.08026962 6.21389963 32.86654008 14.02750892 46 26 C46.99773437 26.87398437 46.99773437 26.87398437 48.015625 27.765625 C66.77393353 45.12144318 77.03896764 72.11975005 78.21875 97.08984375 C79.10952122 126.33229881 68.95581556 152.32663183 49.1484375 173.72265625 C48.08496094 174.84994141 48.08496094 174.84994141 47 176 C46.12214844 176.95712891 46.12214844 176.95712891 45.2265625 177.93359375 C40.66899848 182.73722343 35.5501045 186.41439292 30 190 C29.09378906 190.58910156 28.18757812 191.17820312 27.25390625 191.78515625 C4.31892908 205.94447051 -23.95263096 210.43358014 -50.25390625 204.49072266 C-54.94022592 203.26067006 -59.46218948 201.69248068 -64 200 C-65.61841797 199.41025391 -65.61841797 199.41025391 -67.26953125 198.80859375 C-92.54378176 188.97791608 -112.85535237 167.75335367 -123.85131836 143.22607422 C-125.99444493 138.23185351 -127.71374723 133.27444531 -129 128 C-129.27714844 127.01515625 -129.55429688 126.0303125 -129.83984375 125.015625 C-136.32639222 99.54770196 -131.29173994 71.20104031 -118.26953125 48.60546875 C-103.09262656 23.72562989 -79.168879 6.77751633 -51.30859375 -1.03515625 C-34.97762874 -4.69642578 -16.02215168 -5.12272877 0 0 Z " fill="#C6DFD7" transform="translate(283,154)"/>
</svg>
